<?xml version="1.0" encoding="UTF-8"?>
<svg xmlns="http://www.w3.org/2000/svg" version="1.1" viewBox="0 0 1010.2 949.3">
  <defs>
    <style>
      .cls-1 {
        fill: #fff;
      }
    </style>
  </defs>
  <!-- Generator: Adobe Illustrator 28.6.0, SVG Export Plug-In . SVG Version: 1.2.0 Build 709)  -->
  <g>
    <g id="Layer_1">
      <g>
        <path class="cls-1" d="M96.1,765c-.4-.5-.9-.9-1.3-1.4.8,0,1.6.1,2.5.2,5.3-9.4,10.9-18.6,15.9-28.1,9.2-17.3,18-34.8,27.2-52.1,2.3-4.3,5.2-8.2,7.8-12.3.2,3.5-.8,6.5-1.1,9.5-.5,5-.3,10.1-1.1,15-.6,3.1-2.5,6.1-3.8,9.1,0,0-.1,0-.2-.1,0,.1,0,.2,0,.4,0,0,0,0,0,0,0,0,0,0,0,0l.2-.2c-.7,2.8-1.3,5.6-2,8.4,6-9.5,11.1-18.9,15.5-28.6,8.5-18.8,16.6-37.9,25-56.8,4.7-10.6,9.6-21.2,14.3-31.8.8-1.8,3.6-3.6.6-5.9,1.4-1.2,3.2-2.2,4-3.7,5.6-9.8,10.9-19.7,16.5-29.5,8.1-14,16.3-27.9,24.5-41.9,1.2-2.1,2.5-4.2,3.9-6.7-2.7-.2-4.6-.4-7.4-.6,1.4-2.1,2.3-3.5,3.7-5.5.4,1.9.5,2.8.7,3.8,1.2-.8,2-1.6,2.9-1.9,4-1.2,2.8-4.2,1.6-6.2-3.1-5.3-6.9-10.2-10-15.4-11.4-18.7-22.7-37.4-33.9-56.2-4.9-8.2-10.2-15.4-19.5-19.3-5-2.1-9.3-6.1-14.7-9.7,7.3-5.8,12.3.5,18.7,0-19.5-27.4-40-54.1-52.6-82.9-4.4,3.7-9,7.5-13.6,11.2-.6-.4-1.3-.8-1.9-1.1,1.7-3.8,2.9-8,5.3-11.3,4.7-6.3,5-11.9-.1-18.1-2.3-2.8-2.7-6,.7-8.7,1-.8,1.7-1.9,2.9-3.4,2.1,4.2,4,8.1,5.7,11.6,11.6-17.4,16.2-38.2,28.8-55.2,1.3,3.3,1.8,6.4,2.2,9.6.9,6.5.8,13.3,2.8,19.3,5.7,17.3,12.3,34.4,18.7,51.5.2.6,1.1.9,1.1,1,1.2-8.2,2.4-16.3,3.8-25.5,1.3,1.5,2.2,2.2,2.7,3.1,2.3,4.1,5,8.1,6.8,12.5,3.3,8.1,6,16.6,9.2,24.7,8.2,20.8,17.3,41.4,21.1,63.7.4,2.3,1.9,4.4,3.3,7.5.9-1.7,1.5-2.3,1.4-2.9-.1-6.1.4-12.2-1.7-18.2-1.2-3.4-.6-7.2.5-11.1,3.4-11.7.9-23.9,1.8-35.9,1.8-25.2,1.8-50.5,1.1-75.8-.2-8.2-4.9-16.3-7.8-24.3-.3-.9-2.6-1.5-4-1.5-.6,0-1.8,2.2-1.6,3.1,2.2,9.2.4,18.1-1.6,26.8-5.4-.9-5.1-4.3-4.5-8.2.8-5.3,1.4-10.7,1.9-16.1.4-4.4-1.3-9.5,4.3-11.2,1.1.9,2.1,1.7,3.1,2.6.5-.3.9-.6,1.4-.9l-9.2-22.9c-.3.1-.7.2-1,.4-.4,7.7-.9,15.4-1.3,23.1-.4-.2-.8-.3-1.3-.5-1.2,1.4-2.7,2.6-3.4,4.2-1.1,2.5-1.5,5.4-2.7,7.9-.6,1.3-2.3,2-3.6,2.9-.7-1.3-2.1-2.6-2.1-4,0-4.1.4-8.2.9-12.3.9-8.1,1.7-16.3,2.9-24.4,1.5-9.7,3.7-19.2,4.8-28.9.5-4.5,2-9.7-3.3-14.5-3.5,15.7-7,30.8-10.4,46-8.2-8.3-11-19.3-14.8-29.8-.2-.5,0-1.3.3-1.9,1.4-4.4,2.9-8.8,4.4-13.2,3.1-9.5,3.5-19.4,5-29.1.9-5.7,2.8-11.3,4-17,.5-2.7.3-5.6.5-8,1.4-2.6,3.3-5.2,4.2-8,2.5-7.5,4-15.4,6.9-22.7,2.1-5.4,4.5-10.5,4.9-16.3-.7.3-1.4.6-2.1.8v-.9c.6,0,1.3,0,2,0,1.4-1.6,3.3-3,4.1-4.8,3.5-7.6,6.7-15.3,9.9-23,2.1-5.2,4.1-10.5,6.1-15.7-.5-.2-1-.5-1.6-.7-3,4.7-6.1,9.3-8.9,14-9.1,15.7-18.5,31.2-27.1,47.1-7.8,14.7-14.7,29.8-22.1,44.8-.5,1-1.6,1.8-2.5,2.6-1.3,1.2-3.3,2-4.1,3.4-4.2,8.1-8.1,16.4-12.3,24.5-2.9,5.7-6.2,11.2-9.5,17.2-.2,0-.9-.1-1,.1-4.1,6.4-8.1,12.9-11.9,19.6-.3.6,1.2,2.2,1.4,2.7-13.1,15.3-22.4,33-31.1,51.1-4.2-4.3-4.8-10.8-1.9-16.4,6.6-12.7,13.5-25.4,19.4-38.4,2.3-5.1,7.8-9.9,4.5-15.5,1.3-.6,2.9-.9,3.3-1.7,3-6.7,5.7-13.5,8.5-20.3-.9,1-1.8,2.1-3,3.3-.5-.6-.9-1.1-1.4-1.7,1.5-.6,2.9-1.1,4.4-1.7,1.3-2,2.6-4,3.9-5.9-.3-.2-.6-.4-.9-.7-1.9.9-3.8,1.8-5.7,2.7.9-2.2,2.1-4.5,3.8-4.9,3.1-.8,5.8-3.6,5.3-6.9-.2-1.6-.4-3.2-.6-4.8.3-.6.8-1.2.8-1.8,0-.4-.7-.8-1-1.2-.3.6-.7,1.2-1,1.8-3.8,7-7.7,13.9-11.3,21-8.3,16.3-16.6,32.6-24.5,49.1-3.4,7-5.8,14.5-8.4,21.9-.2.7.7,1.8,1.1,2.7,0,0,0,0,0,0-.4.9-.7,1.8-1.1,2.8-.5-.2-1.1-.4-1.6-.7-2.3,4.9-4.9,9.8-6.9,14.8-2.2,5.5-6.4,10.5-4.3,17-3.7,2-2.6,5.9-3.7,9-3.5,10.2-9.9,18.9-15.1,28.2-1.5,2.8-3.4,5.4-5.1,8-2.2-2.4-4.4-4.9-6.7-7.3-2.7-2.7-6.6-2.4-8.4,0,13.9,20.9,27.7,41.6,41.5,62.3,1.1-.8,1.9-1.5,2.8-2.1,1.4,3,2.5,5.8,3.9,8.5.5,1,1.5,1.9,2.2,2.8,2.7,3.2,5.4,6.5,8,9.7-.3.3-.6.6-.8.9-1.1-.4-2.1-.7-3.2-1.1l-1,.8c4.6,8.2,9.1,16.4,13.7,24.6,1.6-2.5,3.3-4.9,2.3-8.4-.3-.9,1.8-3.2,3.2-3.6,1.3-.4,3.8.4,4.5,1.5,3.6,5.6,6.9,11.5,10.2,17.3.5.9.9,2.2.7,3.2-.3,1.6-1,3.2-1.6,4.8-1.5-.7-3.5-1-4.5-2.2-2.3-2.6-4.5-4.6-8.2-3.6-.2,1.2-.3,2.4-.5,3.6.4-.3.7-.6,1.1-.9,1.4.9,3.1,1.6,4,2.8,5.3,7.1,10.5,14.3,15.5,21.6,10.1,15,21.9,28.8,28.7,46,5.5,13.9,13.7,26.7,20.4,40.1,1.2,2.4,1.8,5.6,1.4,8.3-.3,1.8-2.7,3.4-4,4.9-6.1-10-12.2-20.1-18.4-30.2-.9.4-1.8.7-2.6,1.1.9,4.4,1.6,9,2.9,13.3,1.5,4.6,3.7,9,1.1,14-.7,1.4,0,4.8-.2,4.8-4.9.5-4.6,4.9-6,7.8-5.4,11.5-10.4,23-15.6,34.6-1.2-6.9-1.2-13.6-2-20.3-.8-6.7-2.5-13.3-3.7-19.6-3.7,7-7.2,13.5-11,20.7-1.8-2.1-3.8-3.3-4-4.8-.6-3.6-.9-7.1,0-11,2.8-11.6,2.1-23.3.6-35.2-2.1-17-9-32.5-14.2-49.8,0,7.8-.6,14.5.1,21.1,1.2,11.5,2.8,22.9.8,34.4-.2,1.2-.8,2.4-1.3,3.5-.6,0-1.3,0-1.9.1-12.4-25.4-14-54.9-29.2-79.7-.2,1.9-.6,3.6-.5,5.3.6,11.4,1.4,22.7,1.9,34.1,0,2.1-.7,4.2-1.4,7.6-2.4-3.9-4-6.5-5.5-9.2-6.9-12.4-13.5-25-20.7-37.2-8.8-14.9-18.2-29.5-27.4-44.1-3.2-5-6.6-9.9-9.9-14.8v5c1.9,3.4,4.5,6.6,5.6,10.3,1.8,6,2.3,12.4,3.9,18.4,2.4,9.3,5.3,18.5,8,27.7h0c0,0,0,.1,0,.2,0,0,0-.1,0-.2,3.4,2.2,5.4,4.5,2.3,8.7-1.1,1.4-1.4,3.9-1.1,5.7.9,5,2.3,9.9,3.5,14.8.5,0,.9-.1,1.4-.2.5-1,1-2,1.8-3.5,1.4,6.6-.2,13.5,5.3,18.6v10.2c-2.9-2.8-5.9-5.6-8.8-8.4-.5.3-1.1.7-1.6,1,4,25,17.4,46.9,24.4,71-.4-5.5-1.7-10.9,1.2-16.1.5-.9.2-2.3.3-3.4.3-2.4.6-4.7.9-7.1,3.2,4.2,10.3,5.1,9.4,12.1-.2,1.2.7,3.3,1.8,3.9,4.2,2.5,4.4,6.9,5.8,10.8,1.1,3.1,1.8,6.3,2.9,9.4.1.4,1.2.5,1.4.5,0,4.8,0,9.6,0,14.3,0,3.4-.5,6.9-.6,10.3,0,1.2.2,2.5.8,3.4.7,1.1,1.9,1.8,2.9,2.6-.2.2-.5.4-.7.7-.9-.8-1.8-1.7-2.7-2.5-.4,1.1-1.1,2.3-1.1,3.4,0,11.6,0,23.2,0,34.8,0,1.7.7,3.4,1.3,6,1.5-2.4,2.5-5.1,3.2-5,3.9.4,3.5-2.1,3.5-4.4,0-2.8,0-5.6,0-8.9-1.9,1.1-3.2,1.9-4.6,2.6,2-3.7,3.8-8.2,7-9.8,2.8-1.4,2.8-3.2,3.3-5,.2-.5-2-1.8-3.2-2.8,1-1.6,2.1-3.2,2.8-4.4-1.3-1.8-2.2-3.2-3.2-4.7-.2.1-.5.3-.7.3-1.4-2.1-2.6-3.9-3.7-5.6,3.5-1.8,3.4-6,5.4-8.8,2.3,1.5,4.5,3,7.3,4.8-1.8,1-3,1.7-4.2,2.4,6,10.5,12,20.8,18,31.2,4,6.9,3.5,16-1.4,22.2-2.8,3.6-6.1,6.8-8.9,10.5-1.8,2.3-3,5-5.1,8.4,5.1-.3,8.3,0,6,5.2-5.3,11.9-10.5,23.8-15.4,35.9-2,4.7-3.6,9.8-.9,14.3-1.3,1.2-2.9,2.1-3.4,3.4-7.9,21.5-15.5,43.2-23.4,64.7-4.7,12.7-9.8,25.2-14.8,37.8-2,5-4,10.1-6.4,16.1,2.5-2.2,4-3.6,5.5-5,.3.3.6.5.9.8l-1.2,3.6c1.7,0,2.8-.6,3.3-1.5,5.1-9.1,10.5-18.1,14.8-27.6,1.4-3.1,2.9-5.9,4.5-8.8,1.7-2.9,4.1-6,1.6-9.7,5.3.4,7.5-3.3,9.5-7.3,4.2-8.5,8.4-17,12.6-25.5.8-1.7,1.2-3.6,1.8-5.5ZM222.4,523.2c.2.9.4,1.8.5,2.7-.5,0-.9.1-1.4.2,0-.9-.1-1.8-.2-2.7.4,0,.7-.1,1.1-.2ZM219.6,507.3v2.7c-.3,0-.6,0-1,0-.1-.9-.2-1.8-.4-2.7.4,0,.9,0,1.3-.1ZM230.6,347.6v3.2l-1.8.2c-.1-1.1-.3-2.2-.4-3.3.7,0,1.5,0,2.2-.1ZM190.9,232.6c.8.6,1.5,1.2,2.3,1.8-.3.4-.7.8-1,1.2-.7-.6-1.4-1.3-2.1-1.9.3-.3.5-.7.8-1ZM191.6,254c0,1-.1,2-.2,3-.4,0-.8,0-1.2-.1,0-1-.1-2.1-.2-3.1.6,0,1.7.1,1.7.2ZM216,54.2c1-1.7,2-3.5,3-5.2.1,2.4,0,4.7-3,5.2ZM220.3,46.9c-.4.5-.8,1-1.2,1.5v-2.1l1.2.6ZM215.7,54.6v2.6c-.4-.1-.9-.3-1.3-.4.4-.7.9-1.4,1.3-2.2ZM208.3,68.9l1,.3c-.6,1.4-1.2,2.7-1.7,4.1l-.6-.2c.4-1.4.9-2.8,1.3-4.1ZM207.6,74.6c.2.5.3,1,.5,1.5-1.2.4-2.4.8-3.5,1.2-.2-.5-.3-1-.5-1.4,1.2-.4,2.4-.8,3.5-1.2ZM202.7,81.1c.5.3,1.1.6,1.6.9-.8,1.7-1.6,3.4-2.5,5.1-.6-.3-1.2-.6-1.8-.9.9-1.7,1.8-3.3,2.7-5ZM178,174.6c.3.1.6.3.9.4-.4.8-.8,1.5-1.1,2.3-.2,0-.5-.2-.7-.3l.9-2.4ZM173.5,147.7c.8.6,1.6,1.2,2.4,1.8-.5.5-.9,1-1.4,1.5l-1.8-2.2c.3-.3.6-.7.9-1ZM161.7,160.1c.7.5,1.4,1.1,2.1,1.6-.2.2-.3.5-.5.7-.8-.5-1.6-.9-2.4-1.4.2-.3.5-.6.7-.9ZM145.7,248.6c0,.9,0,1.8.1,2.7-.3,0-.7,0-1,.1-.2-.9-.3-1.8-.5-2.7.5,0,.9,0,1.4,0ZM141.9,238.6c.9,1,1.7,2.1,2.6,3.1-.5.3-.9.7-1.4,1l-2-3.2c.3-.3.5-.6.8-.9ZM137.7,239.5c0,.8.2,1.7.3,2.5-.2,0-.4.1-.6.2l-1-2.5,1.4-.2ZM69.8,298.8c0-.4-.2-.8-.3-1.1,1.3-.7,2.6-1.5,3.9-2.2.2.3.3.6.5.9l-4.1,2.5ZM74.8,312.2c-.2,0-.4-.2-.6-.2.2-.7.4-1.4.5-2.1.4.2.8.3,1.2.5-.4.6-.7,1.2-1.1,1.8ZM89,264.5c-.7.4-1.4.7-2.1,1-.1-.3-.3-.7-.4-1,.8-.3,1.5-.6,2.3-.8,0,.3.3.8.2.8ZM101.1,221.6c.3.1.6.2.9.3-.7,2.4-1.3,4.8-2.1,7.4-.4-.2-1.2-.7-1.9-1.1,1-2.2,2.1-4.4,3.1-6.6ZM110.2,386.1c-.2-1.1-.5-2.2-.7-3.4.6-.1,1.7-.4,1.7-.3.3,1.1.6,2.2.8,3.3-.6.1-1.2.2-1.8.3ZM118.6,378.7c-.4-.4-1.1-.7-1.3-1.2-.1-.3.5-.8.9-1.5.8.5,1.2.8,1.7,1.1-.4.5-.9,1.1-1.3,1.6ZM126,367.3c-.3-.8-.6-1.6-.9-2.4.4-.1.8-.3,1.2-.4.2.8.4,1.7.5,2.5-.3,0-.6.2-.9.3ZM199.5,579.2l-1-2.8c.3,0,.7-.2,1-.3.2,1,.3,2,.5,2.9-.2,0-.3,0-.5,0ZM197.7,544.5c.1-1.8.2-3.5.3-5.3.3,0,.6,0,.8,0v5.3c-.4,0-.8,0-1.2,0ZM199.5,478.3c1.5.4,3,.9,4.5,1.3-.1.4-.2.8-.4,1.2-1.5-.4-2.9-.8-4.4-1.2,0-.4.2-.9.3-1.3ZM198.6,486.4c.3,0,.6,0,.9,0v2.6c-.3,0-.6,0-.9,0v-2.6ZM198.6,509c.4.2.8.4,1.1.7-.4.7-.8,1.3-1.1,2-.3-.1-.6-.3-.9-.4.3-.8.6-1.5.9-2.3ZM195.5,583.4c-.5-.8-1-1.6-1.5-2.4.3-.2.5-.4.8-.7l1.3,2.7-.7.4ZM180.6,408.7c.7.6,1.4,1.1,2.1,1.7l-.7.7c-.6-.6-1.3-1.2-1.9-1.7.2-.2.3-.4.5-.7ZM136.6,353.5c.6-.4,1.1-.7,1.7-1.1,1.1,1.6,2.3,3.3,3.4,4.9-.7.4-1.4.8-2,1.3-1-1.7-2-3.4-3.1-5.1ZM142.2,423.3c-.5-.1-.9-.6-1.3-1,0,0,.5-.9.7-.9.5,0,1,.3,2.6.9-1.2.6-1.7,1-2,1ZM154.5,452.1c-.5-.1-.9-1-1.3-1.5.5-.4,1.1-1.2,1.6-1.2.5,0,1,.8,1.9,1.6-1.1.5-1.7,1.2-2.2,1ZM162.9,460.7c0,0,.3-.8.7-1.9.5,1.2.8,1.9,1.1,2.6-.6-.2-1.2-.4-1.8-.7ZM168.4,473.8c-1-1-2-1.9-3-2.9l.9-.9c1.1,1.1,2.1,2.1,3.2,3.2l-1,.6ZM175.3,474.4l-3.8-2.4c.2-.4.3-.9.5-1.3,1.4.6,2.8,1.3,4.2,1.9-.3.6-.6,1.2-.9,1.8ZM178.9,484.5c.3-.3.7-.6,1-.9.3.3.7.6.7.6-.2.4-.5.8-.8,1.1-.3-.3-.6-.6-.9-.8ZM186.9,490c-2-.4-3.9-.8-6.4-1.3.8-1.3,1.3-2.2,1.5-2.4,2,1.1,3.6,2,5.3,2.9-.1.3-.3.6-.4.9ZM185,465c-.5.1-1-.2-2.9-.8,2.1-.5,2.8-.7,4.8-1.3-1.2,1.3-1.5,1.9-1.9,2ZM185.2,468c-.4.6-.6,1.1-1,1.3-.2,0-1-.4-.9-.5,0-.4.3-.9.6-1.2.2-.1.7.2,1.3.4ZM153.8,387c6.7,1.9,11.1,6.2,14.6,12,6.9,11.3,14.4,22.3,21.3,33.5,2.2,3.6,3.4,7.7,5.6,12.6-9.8-2.7-43-50.5-41.5-58.2ZM190.9,473.8c-.5,0-1,.1-1.5.2l-.2-4.4c.3,0,.7,0,1,0,.2,1.4.5,2.9.7,4.3ZM189.3,483.9c-.1-.6-.2-1.1-.3-1.7,1.3,0,2.5-.1,3.8-.2,0,.4.1.7.2,1.1-1.2.3-2.4.5-3.6.8ZM163.9,570.2c-.1,2-.2,2.9-.3,3.8-.3,0-.6,0-.8.1-.2-.6-.6-1.3-.5-1.9,0-.4.6-.8,1.7-2ZM141.4,656.7c14.1-31.3,27.3-63.4,45.4-93,1,.1,2,.3,2.9.4.1,1.9.8,3.9.2,5.5-1.4,3.8-3.4,7.5-5.1,11.1-7.6,15.5-14.9,31.2-22.9,46.5-6.3,12-13.4,23.7-20.1,35.5-.4.6-1.2.9-2.1,1.6-.4-3.2-.7-6-1.1-9.2.7.4,1.5.8,2.8,1.5ZM133.7,628.2c.5,0,.9,0,1.4.1,0,1.2-.2,2.4-.3,3.6-.5,0-.9,0-1.4-.1,0-1.2.2-2.4.3-3.6ZM128.7,570.5c.4,1,.8,1.9,1.2,2.9-.2.1-.5.2-.7.3-.4-1-.9-2-1.3-3,.3,0,.5,0,.8-.1ZM41,465.1c.1-1.2.2-2.5.4-3.7.5,0,1,0,1.5,0,.1,1.3.2,2.5.3,3.8-.7,0-1.4,0-2.2,0ZM74.3,497.6c-.2-.1.2-.8.3-1.3.4,0,.8-.1,1.2-.2.2.9.4,1.7.6,2.6-.7-.3-1.4-.6-2-1.1ZM77.7,518.2c-.4-1.3-.9-2.6-1.3-3.9.4-.1.9-.3,1.3-.4.3,1.3.7,2.6,1,3.9-.3.1-.7.2-1,.3ZM86.3,641.7v-3.3c.3,0,.6,0,.9,0,0,1.1.2,2.2.3,3.3-.4,0-.8,0-1.1,0ZM94.8,617.8c.4,1.6.8,3.2,1.4,5.5-4.7-1.5-2.4-3.6-1.4-5.5ZM88,601c.5-.2.9-.4,1.4-.6.2.9.3,1.8.5,2.8-.6-.7-1.3-1.4-1.9-2.1ZM87.5,565.5c.2-.2.3-.4.5-.6l1.9,1.5c-.2.2-.4.4-.6.7-.6-.5-1.2-1-1.8-1.6ZM89.9,586.9c-.6-1.3-1.1-2.7-1.7-4,.3,0,.6-.2.8-.2.6,1.3,1.1,2.6,1.7,3.9-.3.1-.6.2-.9.4ZM86.2,552.7c1.9-2.1,3.2-4,4.8.3-1.6-.1-2.9-.2-4.8-.3ZM103.5,527.1c.2.2.5.3.7.5-.3.6-.4,1.2-.9,1.6-.3.3-1,.2-2.7.5,1.6-1.4,2.3-2.1,2.9-2.7ZM97.8,588.3c-1-.7-1.9-1.3-2.9-2,.4-.4.9-.8,1.3-1.2.7.8,1.4,1.6,2.1,2.3-.2.3-.4.6-.6.9ZM97.5,577.7c.3-1.1.6-2.2.9-3.3.3,0,.7.1,1,.2-.2,1.1-.4,2.2-.6,3.3-.4,0-.8-.2-1.2-.3ZM99.6,593.9c-.1-.3-.2-.6-.3-.9.8-.3,1.7-.6,2.5-.8,0,.2.2.4.3.7-.8.3-1.6.7-2.4,1ZM101.8,572.3c-.2-.9-.4-1.8-.6-2.7.3,0,.6-.2.9-.3.4.9.7,1.8,1.1,2.6-.4.1-.9.2-1.3.3ZM104,607.6c-.3-2.3-.5-4.7-.8-7,.5,0,1.1-.1,1.6-.2.2,2.3.5,4.5.7,6.8-.5.1-1.1.3-1.6.4ZM107.9,609.6c-.4-.1-.8-.2-1.1-.3.3-1.1.6-2.1.9-3.2.5.1.9.3,1.4.4-.4,1-.8,2.1-1.2,3.1ZM109.5,587.9c-.7-.3-1.5-.5-2.2-.8.2-.4.3-.8.5-1.2.6.4,1.2.7,1.8,1.1,0,.3,0,.6,0,.9ZM109.8,601.8c0-1.1-.2-2.2-.2-3.4,0,0,1.2-.2,1.2-.2.3,1.2.4,2.4.6,3.5-.5,0-1.1,0-1.6,0ZM124,573.6c-.3,0-.7,0-1-.1.2-1.3.3-2.6.5-3.9.3,0,.5,0,.8,0,0,1.3-.2,2.6-.3,4ZM124.4,540.1c-1.3-.1-2.6-.3-3.9-.4,1.2-.5,2.3-.9,3.5-1.4.1.6.3,1.2.4,1.8ZM116.6,532.5c.7.1,1.3.3,1.9.5,0,.3,0,.6,0,.9-.7-.2-1.4-.3-2.1-.5.1-.3.3-.8.3-.8ZM116.1,540.3c.1-.5.2-1,.3-1.5,1.3.3,2.7.6,4,.8.1,2.2.3,4.5.5,6.7-2.7-1.7,1.3-7.2-4.8-6.1ZM119.1,605.5c.2-.3.4-.6.6-.8.7.6,1.4,1.2,2.1,1.7-.2.2-.3.4-.5.7-.7-.5-1.5-1-2.2-1.6ZM118.1,681.9c.4,1.4.8,2.9,1.1,4.4,0,0-1.6.6-1.6.5-.6-1.4-1.2-2.8-1.7-4.2.7-.2,1.4-.4,2.2-.6ZM106.9,688.5c1.4.6,2.9,1.2,4.3,1.8-.2.5-.4,1-.6,1.5-1.5-.5-2.9-1-4.4-1.4.2-.6.5-1.3.7-1.9ZM96.7,712.1c.4,0,.8,0,1.2.1,0,.9-.1,1.8-.2,2.7-.4,0-.8,0-1.2,0,0-.9.1-1.8.2-2.7ZM54.6,830.7c-.3-.6-.7-1.1-.9-1.8,0-.2.7-.5,1.5-1.1-.3,1.2-.4,2.1-.6,2.9ZM59.4,820c0-.5,0-1,0-1.5.8,0,1.6,0,2.4.1,0,.3,0,.6.1.8-.8.2-1.6.3-2.5.5ZM61.8,812.3c.7-.7,1.4-1.5,2.2-2.2.8,1.1,1.7,2.2,3.4,4.4-2.9-1.1-4.2-1.6-5.6-2.1ZM70.1,800.5c.3-.2.6-.3.9-.5.3.9.6,1.8.8,2.7l-1.7-2.2ZM85.9,767.2c-.2-.4-.6-1-.6-1,.5-.5,1.1-.8,1.6-1.2.2.3.4.6.6.9-.6.5-1.1.9-1.7,1.4Z"/>
        <path class="cls-1" d="M20.6,293.1c2.3.4,5.3,1,7.1,0,3.2-1.8,1.3-4.7-.2-6.8-2.7-3.7-5.7-3.6-10.3.1v4c1.1,1,2.1,2.5,3.4,2.7Z"/>
        <path class="cls-1" d="M878.9,666.5s0,0,0,0c0,0,0,0,0,.1h0Z"/>
        <path class="cls-1" d="M972.7,440.6c-2.2-1.1-2.9-4.9-4.3-7.5-1.8,1.2-4.5,3.5-7.5,4.7-7.7,3.1-15.8,5.2-23.3,8.5-9.9,4.4-22.1,3.1-29.7,13.1-.7-2-1.2-3.4-1.6-4.4,5.9-4.2,9.8-9.8,12.7-16.1,2.4-5.5,4.3-11.2,6.6-16.8,5.3-12.6,10.4-25.2,16.1-37.6,5.9-12.9,13-25.3,18.5-38.4,4-9.5,12.7-16.7,13-27.8,0-.7,1.3-1.4,1.9-2.1.8-1,1.6-2.1,2.3-3.2-.4-.3-.8-.7-1.2-1-1.6,1.8-3,4-4.9,5.4-5.1,3.7-8.6,8.3-11,14.2-1.2,2.9-3.5,5.4-5.2,8.2-5.8,9.4-11.6,18.8-17.2,28.2-.8,1.3,0,3.5-.9,4.7-7.4,10.1-14.9,20.1-22.6,30-2.3,2.9-5.2,5.2-7.9,7.8-.4-.4-.9-.8-1.3-1.3.5-.9,1.1-1.9,1.6-2.8,3.3-6.2,4.7-13.2,8.7-19.3,3.7-5.8,2.9-13.2,2.8-20.2,0-3.6-1.5-7.5.9-11,.2-.2-.2-.8-.3-1.2-.7.2-1.4.4-2,.5,3.7-2.6,3.7-6.9,4-10.7.4-4.4.2-9-.9-13.2-.5-1.8-4-2.8-6.1-4.1-1.4-.9-2.8-1.7-4-2.4-3.2,5.4-7.7,11.7-15.9,15.8,5-10.5,9.6-20,14-29.5,2.6-5.8,6.3-11.5,7-17.6,2.1-18.5,3-37.1,4.3-55.7.5-7.7-.3-15.7,1.3-23.2,1.6-7.3-1.1-14.8,4.2-22.3,4.7-6.5,5.6-15.8,7.9-23.9.4-1.4-.1-4.2-1-4.6-4.5-1.9-2.2-3.8-.8-6.3,2.7-4.8,5.9-9.5,7.1-14.7,2.1-8.5,2.4-17.4,4.2-26,1.9-8.9,4.5-17.8,7.2-26.5,2.7-8.8,6-17.5,9-26.2,3.4-10,10.3-18.9,10.4-31.1-5.1,7.8-10,14.7-14.3,22-5.4,9.1-10.5,18.5-15.3,27.9-3.9,7.6-8.5,14.7-9.4,24-1,10-4.8,19.8-7.5,29.7-.5,1.8-1.5,3.5-2.2,5.2-.2,0-.5-.1-.7-.2.7-7.2,1.4-14.5,2.1-21.7-2.7,2.4-4.5,5.1-5.8,8-12.4,26.3-24.8,52.6-37.1,79-8.6,18.5-17.2,37-25.7,55.6-2.7,6-4.6,12.5-7.7,18.3-7.2,14-14.7,27.8-22.3,41.5-4.9,8.9-8.4,18.4-14.4,26.8-4,5.7-6.6,12.4-9.9,18.6-1.4,2.6-2.9,5.2-4.3,7.8,5.4-5.2,9.5-11.2,14.4-16.6,4.4-4.9,7.9-11.2,16-12.7-.5,1.4-.6,2.4-1,3.1-4.3,7.1-8.5,14.4-13.1,21.4-5.8,9-12.1,17.8-17.8,26.9-1.5,2.5-1.5,6-2.2,9,.5.1,1,.2,1.5.4,2.9-2,5.8-3.9,9.1-6.2,0,1.7.5,2.9.1,3.6-4.8,10.4-9.7,20.7-14.6,31-2.2,4.7-4.9,9.2-6.8,14-6.9,17.6-13.7,35.3-20.3,53-.5,1.3,0,3-.3,4.4-.5,1.8-1.3,3.4-2.1,5,0,.2-1,0-1.5-.1.1.7.2,1.4.3,1.7,5.6-1.7,10.8-3.2,16.1-4.8.3.7.6,1.4.9,2.1-11.5,8.4-24.9,13.3-38.7,20,3.3-17.5,12.8-31.1,18.6-46.2,5.8-15.1,12.2-30,18.3-45.1-.4-.3-.9-.6-1.3-1-1.4.3-2.8.6-4.2,1,.2-1.1.4-2,.6-3-.4-.2-.9-.4-1.3-.6-10.3,18.2-20.6,36.5-30.9,54.7-.4.3-1.5.7-2,1.5-3.9,6.2-7.2,12.9-11.6,18.7-3.1,4.2-3.6,9.7-7.7,13.3-2.6,2.3-4.2,5.8-5.5,7.7,1.3,6.7,7.8-2.8,9.1,4.7-4.1-.5-7.5-.9-10.6-1.3,0,.9.3,1.8,0,2.4-1.3,3-2.7,5.9-4.3,8.8-.3.6-1.2,1.4-1.8,1.4-4.5.2-6.7,4.4-7.8,6.9-1.6,4.1-4.6,6.3-7.4,8.8-1.7,1.5-4.1,2.3-6.7,3.8,1-2.1,1.4-3.2,1.9-4.3,2.1-4.5,1.5-9.6,4.4-14.3,5.7-9.2,10.1-19.3,14.8-29.2.9-1.9.8-4.4,1-6,1.5-1.3,3.6-2.3,4.5-3.9,8.2-15.6,16.2-31.3,24.1-47,3.8-7.6,7.3-15.4,11-23.2-7.8,9.8-17.6,18.4-20.3,30.4-1.4,1.1-2.9,1.7-3.6,2.8-6.4,10.8-11.9,22.2-19,32.5-14.7,21.1-26.4,43.9-37.6,67-4.7,9.7-10.6,18.8-16.3,27.9-1.9,3-5,5.2-7.5,7.8-.5-.4-1.1-.8-1.6-1.2.5-15.5,13.8-26.7,15-42.7-10.1,14.5-20.3,28.2-29.4,42.5-7.7,12.1-14.4,24.9-21.3,37.6-8,14.8-15.4,29.9-23.5,44.6-5.2,9.5-10.6,18.9-16.6,27.8-3.2,4.8-8,8.5-12.1,12.7.1-1.7,0-3.6.7-5.1,2.9-6.2,5.9-12.4,9.1-18.5,6.3-11.8,13-23.5,19.1-35.3,5-9.7,9.2-19.9,14.4-29.5,6.7-12.5,14.1-24.7,20.8-37.1,4.8-8.9,9-18.1,13.9-27,3.6-6.6,7.7-12.8,11.6-19.2,4.5-5.7,9.1-11.4,13.6-17.1-2.4.4-4.8,1-7.3,1.1-2.2,0-4.5-.4-8-.8,17-18.6,36.5-32.9,45.4-55.7-1.6,1.1-2.9,2.5-4.2,3.8-5.7,5.6-11.3,11.4-17.1,16.9-3,2.9-4.6,1.1-5.4-2.1,3.9-1.7,16.5-21.6,16-25.2,3.1.7,3.1.7,3.8-2.7,0-.5.6-.8,1-1.2,5.4-5.4,10.8-10.8,16.2-16.1-.4-.6-.9-1.1-1.3-1.7-1.9.9-3.8,1.9-5.2,2.6-2.2-.8-4.4-1.6-5.8-2.1.5-1.5.7-3,1.5-4.2.9-1.4,2.1-2.6,3.2-3.9.2.5.4,1,.7,1.8,1.1-1.9,1.9-3.4,3.1-5.7-1.9.4-2.8.6-3.7.8-1.2.4-2.3.8-3.5,1.1-.1-.2-.2-.4-.3-.5.9-.8,1.9-1.6,2.8-2.4.5-.6,1-1.6,1.6-1.7,5.1-.7,7.8-4.7,11.5-7.6,5.5-4.4,3.6-11.7,7.7-16.3,1.4-1,3.6-1.8.8-3.8,0,0,0,0,0,0,1.4-2.6,2.8-5.2,4.3-7.8-2.4-.8-1.7-1.6,0-2.6,1.6-1,3.7-1.7,4.8-3.2,4-5.8,7.7-11.7,11.4-17.7,10.7-17.4,21.6-34.7,32-52.4,6.7-11.5,12.7-23.5,18.9-35.3,2-3.7,3.8-7.5,5.5-11.4.3-.8-.3-2-.5-3.1-.5-.2-.9-.3-1.4-.5-2.2,2.5-4.6,4.8-6.4,7.6-3.9,6-7,12.6-11.2,18.4-7,9.9-14.4,19.4-21.9,28.9-3.6,4.6-7.5,8.8-11.3,13.2-.6-.3-1.1-.6-1.7-1,2.6-6.3,4.6-12.8,7.8-18.8,11.3-21,23-41.7,34.4-62.6,5.4-9.9,10.6-19.9,15.9-29.8,9.1-17,18.3-34,27.4-51h0c0-.1.1-.2.2-.4,0,0-.1.2-.2.3,0-2.1-1-5,0-6,6.7-6.3,11.2-14.1,15.9-21.7,10.4-16.8,24.6-30.5,36.5-46,3-3.9,6.7-7.3,10-11-.2-.4-.4-.7-.7-1.1-2.4.9-5.1,1.3-7,2.8-3.7,3-6.9,6.5-10.2,9.9-2.9,3-5.1,6.7-8.3,9.1-10.6,7.7-21.2,15.3-32.3,22.2-20.6,12.7-41.5,24.9-62.4,37.3-5.6,3.3-11.5,6.3-17.2,9.5-.4-.5-.8-1.1-1.1-1.6,15.8-14.3,31.5-28.6,47.3-42.9-.2-.4-.5-.7-.7-1.1-1.4.6-3.1,1-4.3,1.8-8.7,5.9-17.3,11.8-25.8,17.8-16.5,11.7-32.7,23.9-49.4,35.2-8.1,5.4-17.2,9.2-25.7,14.1-11.9,6.8-23.7,13.8-36.1,21,3.5-15,16.6-23.9,21.9-37.4-6.4,4.7-12.6,9.6-18.4,14.9-5.2,4.9-9.8,10.3-14.6,15.5-2.6,2.8-5.9,5.3-7.6,8.7-3.9,7.6-10.4,11.8-17.5,15.6-7.1,3.8-14.3,7.2-21.3,11.1-12.9,7.3-25.6,14.9-38.4,22.3-3,1.7-6,3.5-9.2,5.4.7.5,1.2.8,1.4.9-2.5,1.4-5.3,2.8-7.9,4.4-2.5,1.5-4.9,3.2-7.5,4.7-17.8,10.1-35.6,20.2-53.3,30.3-1.2.7-2,2.2-3.6,4,2,.4,2.9.8,3.5.6,6.4-1.8,12.8-3.4,19-5.6,13.4-4.9,26.6-10.3,39.9-15.3,2.7-1,5.6-1.6,8.4-2.4.3.5.6,1,.9,1.6-3.9,4.6-7.9,9.2-11.8,13.8.4.6.8,1.1,1.2,1.7,4.7-2.2,9.6-4.2,14.1-6.7,9.5-5.4,18.8-11.1,28.3-16.5,2.6-1.5,5.5-2.3,8.3-3.4.1.3.3.6.4.9-4.2,3.8-8.4,7.6-12.6,11.4,22-4.9,39.7-18.8,60.1-26.5.3.4.6.7.9,1.1-7.8,10.8-15.6,21.6-23.4,32.4,5.7-2.5,11-5.3,15.3-9.2,8.4-7.8,16.2-16.2,24.3-24.4,4-4.1,7.4-8.9,11.9-12.3,5.1-3.9,11.2-6.6,16.8-9.8.3.5.7,1,1,1.4-6.3,8.6-12.6,17.1-18.9,25.7.5.5.9,1,1.4,1.4,1.4-.5,3.1-.7,4.2-1.6,8.3-7.2,17-14.2,24.7-22,13.2-13.3,27.8-24.5,44.4-33.1,1.1-.6,2.2-.9,3.4-1.4-.2,2.2-1,3.6-2,5-3.9,5.5-8.3,10.7-11.5,16.5-6.5,11.9-12.3,24.3-18.5,36.3-7.6,14.8-15.6,29.5-23,44.4-1.4,2.9-4.5,6.1-1.8,10,.8-.9,1.6-1.7,2.4-2.6.4.2.8.5,1.3.7-.6,1.5-1,3-1.8,4.5-14,27.1-28,54.1-42,81.1-2,3.9-2.8,9.1-5.9,11.5-5.6,4.4-6.6,11.1-10.5,16.2,2.5,3.1-1.4,4.1-2,6.2,0,.3-.2.5-.5.4h0s0,0,0,0c0,0,0,0,0,0,.7.8,1.3,1.6,1.6,2,2.5-1.9,5.1-3.9,9-6.8,0,2.5.7,4.7-.1,6.2-4.4,8.6-9.4,16.8-13.8,25.4-2.7,5.2-4.6,10.8-6.8,16.2-.8.8-1.8,1.4-2.2,2.3-1.8,4.6-3.4,9.3-5.1,13.9,1.1,1.6,2.3,3.3-1,3.7-.7.8-1.6,1.4-2,2.3-5.9,12.3-11.7,24.7-17.5,37-4.8,10.1-9.6,20.2-14.4,30.4.4.3.8.7,1.2,1,3.8-4.3,7.5-8.6,11.8-13.3-6.9,20.5-23.4,36.5-24.4,59.2,3.9-4.4,7.5-8.5,11.2-12.6.4.3.8.6,1.2.8-.3,1-.4,2.1-1,2.9-3.6,4.5-8.1,8.8-3.2,15-3.4,1.2-7.2,1.5-8.3,3.4-4.3,7.2-7.6,15-11.3,22.4,1.8,1.2,2.8,1.8,4.3,2.8-5,.7-9.3,7.5-7.4,11.1,2.3,4.5.5,7.9-1.7,11.5h0s0,0,0,0c0,0,0,0,0,0h0c-.5,1.5-1,3-1.5,4.5.2.1.4.3.6.4,1.4-1.5,2.9-3.1,4.9-5.2-1.8,6.8-3.4,13.1-5,19.3-.2,0-.4,0-.6-.1v-3.5c-2.2,1.3-5.1,2-6.2,3.8-2.2,3.5-3.6,7.7-5.2,11.6-.3.9-.4,2.7-.1,2.8,3.6,1.1,1,3,.5,4.3-2.4,6.6-5,13.1-7.4,19.7-.5,1.3-.9,3.5-.3,4.3,2.9,3.8,1.4,6.6-1.4,9.9-.9-1.3-1.5-2.2-2.2-3.2-11.4,27-17.6,55.6-32.5,81-.6-.5-1.6-1.5-3-2.8-9.3,26-18.5,51.9-27.8,77.7,1.9-1.1,3.3-2.5,4.2-4.2,3.4-6.2,6.7-12.4,9.8-18.7,2-4.2,3.6-8.7,5.2-13.1.5-1.4,0-3.2.7-4.5,2.4-4.5,5.2-8.8,7.8-13.2,8.1-13.6,16.1-27.2,24.2-40.8,1.3-2.2,2.6-4.4,4-6.6,0,0,0,0,0,0,3.7-6.6,7-13.5,11.1-19.9,5.6-8.6,8.8-18.4,15.3-26.6,9.2-11.6,16.5-24.6,24.7-36.9,4.8-7.4,9.6-14.8,14.5-22.1.6-.9,2.3-1.1,3.6-1.5,0,1.2.2,2.4,0,3.5-2.2,9.4-5.6,18.3-9.7,27-2,4.2-2.2,9.3-3.1,14-.2,1.1.1,2.3,0,3.5-.2,1.2-1,2.3-.9,3.4.8,8.5,2,16.9,2.3,25.4,0,2.6-.2,4.5,2.6,5.1,3,.6,5.8,0,6.6-3.5.6-2.3,1-4.8,1-7.2-.2-10.8-.7-21.5-.9-32.3-.1-8.4.1-16.6,4.6-24.3,6.6-11.2,12.7-22.8,19-34.2.2-.3-.1-.8-.3-1.3-1.2.7-2.2,1.4-3.4,2.1.6-2.3,1.1-4.2,2-7.9,1.2,2.3,1.8,3.4,2.5,4.8,1.4-1.6,2.5-2.7,3.3-3.9,8-10.9,15.9-21.9,24-32.8.9-1.3,2.7-1.9,4.1-2.8-1.5,8.5-.5,16.9-5.2,22.5-1.5,1.1-2.5,1.6-3,2.4-2.1,3.3-3.7,7-6.1,10.1-3.2,4.1-5.6,7.6-4,13.6,1.6,5.9.7,12.4,1.3,18.5.3,2.8,1.6,5.5,2.5,8.3.6,1,.1,3.3.7,3.5,1.6.8,4.8,1.6,5.2.9,1.8-2.7,3.7-5.9,4.1-9.1.4-4-1.2-8.2-.9-12.2.4-6.6,2-13.2,2.3-19.8.5-9.6,1.8-18.7,6.9-27.4,5.6-9.6,9.5-20.2,14.4-30.3.9-1.9,3.3-3,5-4.5.3,1.8.9,3.7.7,5.5-1.2,12.3-3.3,24.5-3.8,36.7-.7,17.3-.2,34.6-.2,51.9,0,15.5,0,31,0,46.4,0,1.5,1,3.1,1.8,4.5.5,1,1.4,1.8,2.1,2.8-1.2.6-2.3,1.1-3.4,1.6-.1,1.5-.5,3.2-.3,4.8.2,1,1.4,1.8,2.1,2.8,1.3-2.9,4,.1,5.7-1.3v.2c-.1,0-.1,0-.1,0,0,0,0,0,.1,0-.7,5.4-1,11-6.6,14.2-.7.4-1.3,1.5-1.4,2.4-.4,7.4-1,14.8-1,22.3,0,5.2,5.7,8.2,9.8,5,2.1-1.6,3.9-5.1,3.9-7.7,0-9.4-.9-18.8-1.5-28.2-.2-3.3-.2-6.6-.3-9.8h0s0,0,0,0c3.5-6.9-5.1-3.9-6-7.5,1.1-.4,2.3-.9,3.4-1.3-.5.6-1,1.3-1.6,1.9,1,.4,2,.9,2.8,1.2,1-2.9,2.2-4.9,2.2-6.9,0-10.9-.3-21.8-.6-32.7,0,0,0,0-.1,0,.3-.5.7-1,.7-1.5.4-25.7.7-51.4,1.1-77.1.1-7.2-.5-14.8,1.2-21.7,2.9-11.8,8.7-22.5,19.1-32-.5,3.6-.5,5.9-1.1,8-5.1,16.1-5.9,32.7-5.2,49.4.1,3,1,5.2,4.6,5.2,3.6,0,6.1-1.6,6.4-5.4.2-3.1,0-6.3,0-9.5.6-10,.3-20.2,2.3-30,1.6-7.6,5.6-14.9,9.3-21.9,2.6-5,6.3-9.5,9.8-14,2.6-3.3,5.6-6.2,8.5-9.3-2.3-3.1.5-2.4,2.7-3.2-.8,1.6-1.2,2.5-1.6,3.4,7.6-3.1,15.2-6.3,22.7-9.4,2.1,2.4,3.7,4,.5,6.2-1.6,1.1-3.1,2.8-3.9,4.6-4.3,9-8.5,18-12.3,27.1-3,7.1-5.5,14.5-8.2,21.8.3.1.5.3.8.4,2.3-2.5,4.6-5.1,7.2-8-8.9,25.5-17.6,50.4-26.3,75.3-8.8,24.9-17.6,49.9-26.4,74.8.8.4,1.6.7,2.4,1.1,3.3-5.9,6.6-11.8,9.8-17.7,9.8-17.8,19.7-35.5,29.2-53.4,7.1-13.5,13.6-27.2,20.5-40.8,1.3-2.5,2.3-6.3,6.6-3.5-1.4,3.2-2.9,6.4-4.3,9.7-.3.8,0,1.9-.1,2.8-1.5,7-2.3,14.2-4.8,20.8-2.4,6.2-3.2,6.9-.3,13.1,6.3-14.1,12.3-27.6,18.5-41.3-2.4-.6-4.1-1-5.8-1.4,9.6-1,8.7-9.1,11.3-14.6-1.5-.6-2.7-1-3.3-1.2,1.4-1.6,3-2.8,3.6-4.3,1.6-3.9,1.7-8.9,4.3-11.6,3.7-4,4.7-8.8,6.5-13.4,6-15.7,12.3-31.4,18.6-47,1.5-3.7,2.8-8.7,5.7-10.4,16.6-9.6,33.5-18.6,50.5-27.5,6.9-3.6,14.4-6,21.5-9.3,6.4-3,12.6-6.4,19.7-10-.5,5.7-1.2,10.6-1.2,15.4-.2,14.6,0,29.3,0,44,0,1,.4,2.1.8,3.1.7,1.8,2,3.5,2,5.2,0,9.3-.6,18.7-.7,28,0,5.5.7,11,.7,16.5-.1,11.1-.6,22.2-.8,33.3,0,1,.9,2.1,1.4,3.1,0-2.1-.4-4.2,0-6.2,1.8-9.1,3.7-18.2,5.7-27.3.3-1.4,1.1-2.7,1.7-4.1,1.2,6.3,2.3,12.1.9,17.9-.4,1.8-.7,3.7-.5,5.6.7,5.4,1.5,10.8,2.5,16.2.3,1.6.9,3.1,1.4,4.6-.5,1.6-1.4,3.4-1.5,5.3-.6,9.5-.9,19-1.6,28.4-.8,10.9-2,21.8-2.8,32.8-.2,2.6.5,5.2.8,7.8.5,0,.9,0,1.4,0,2.1-6,4.2-12.1,6.2-18.1.5,0,.9,0,1.4.1v72.6c1.4-.9,2.2-1.5,3.1-2.1-.3-.6-.6-1.2-.9-1.8,1.3.2,2.6.5,3.8.7,0,.2,0,.5-.1.7-.6.1-1.3.2-1.9.3-.6,1.4-1.2,2.8-2.2,4.8,0,0,.2.2.3.3-1,2.5-2,4-2,5.5-.5,9.2-.8,18.5-1,27.7,0,2.1.2,4.3.8,6.3,1.8,6.4,6.6,7.4,11.5,2.6-.6-.7-1.3-1.5-1.9-2.2.5-.3,1-.6,1.6-.9.3.7.6,1.4.8,2.1.4-.9,1.1-1.8,1.1-2.7.4-10.6.8-21.2.9-31.8,0-4.1-.4-8.2-.5-12.3-.2-4.5-.6-9.1-.2-13.6.4-4.7-1.3-9.5,1.6-14.2,1-1.7-1.6-5.3-1.4-7.9.6-9.7,1.8-19.3,2.6-29,.3-3.3,0-6.5.1-9.8.2-4.1.5-8.1.7-12.2.2-5.3-1.1-11.1.7-15.7,2.3-6,1.2-11.4.8-17.1-.4-5.5-.2-11-.2-16.5,0-4.8.5-9.7-.2-14.4-.9-5.6-1.1-7.1,1.9-11.8q5,12.4,8.8,12.4c-.5-7.4-.9-14.9-1.4-22.3-.4-5.8-.9-11.5-1.1-17.3-.4-8.5-.5-16.9-.9-25.4,0-1.9-1.1-3.8-.9-5.6.3-3.5,1.7-6.9,1.8-10.4.2-10.7,0-21.4,0-32.1,0-5.6,0-11.3,0-18-7.4,8.4-13.9,15.9-20.4,23.4-.4-.3-.8-.6-1.3-.9,4.2-6.1,8-12.4,12.8-18.1,4.7-5.7,9.4-10.9,8.1-19.1-.3-1.6,1.1-4.5,2.5-5.2,6.1-3.4,12.6-6.2,18.9-9.2,8.4-4.1,16.8-7.9,25-12.4,3.3-1.8,5.9-4.9,8.8-7.3-.3-.4-.6-.8-.8-1.1-6.7,1.1-13.4,2.2-20.2,3.3-.8-5,1.4-6.9,5-8.5,6.6-2.9,13.9-5,18.7-11.9-4.5,1.4-8.4,3-12.5,3.7-2,.3-4.3-1-6.3-1.8-.3-.1,0-1.8.1-2.8,7.4-1.4,14.6-2.6,21.7-4.3,1.4-.3,2.3-2.4,4.2-4.5-5-.2-8.9.5-11.8-.9ZM962.3,332.4c.4.2.7.4,1.1.5-.5,1.3-1.1,2.6-1.6,3.8l-1.7-.8c.7-1.2,1.4-2.4,2.1-3.6ZM957.4,340.4c.3.9.5,1.7.8,2.6-.5.1-.9.2-1.4.3-.2-.9-.3-1.7-.5-2.6.3,0,.7-.2,1-.3ZM953.9,347.2c.3,0,.5,0,.8,0v2.8c-.3,0-.7,0-1,0,0-.9.1-1.9.2-2.8ZM945.7,361.6c.2,0,.4.2.6.2-.2.9-.5,1.7-.7,2.6-.4-.2-.8-.4-1.2-.7.4-.7.9-1.4,1.3-2.2ZM940.4,375.1c.4.5.8,1.1,1.2,1.6-1.5,1-3,2-4.5,3-.3-.5-.7-.9-1-1.4,1.4-1.1,2.9-2.2,4.3-3.3ZM929.3,391.4c.4.5.7,1,1.1,1.5-1.1.6-2.2,1.2-3.3,1.8-.2-.2-.3-.5-.5-.7.9-.9,1.8-1.7,2.8-2.6ZM914.6,410.7c.9.3,1.9.5,2.8.8,0,.2,0,.4,0,.5-1,0-1.9-.1-2.9-.2,0-.4,0-.8.1-1.2ZM916.3,355.6c-.7.6-1.4,1.2-2.1,1.8-.2-.5-.3-.9-.5-1.4.8-.1,1.7-.2,2.5-.4ZM937.3,96.6c.4.3.9.7,1.3,1-.7,1.4-1.4,2.8-2.1,4.2l-1.5-.8c.8-1.5,1.5-2.9,2.3-4.4ZM933.3,103.7c.5.2.9.3,1.4.5-.4,1-.8,2.1-1.2,3.1-.5-.2-.9-.3-1.4-.5.4-1,.8-2.1,1.2-3.1ZM918.1,177.3c1.4.6,2.9,1.2,4.3,1.7-.2.6-.5,1.2-.7,1.9-1.4-.7-2.8-1.4-4.2-2.2.2-.5.5-1,.7-1.4ZM915.5,215.8l1.8,2.8c-.6.3-1.1.7-1.7,1-.5-1-1-2-1.5-3,.4-.3.9-.5,1.3-.8ZM912,235.6c.1,1.2.3,2.4.4,3.6-.6,0-1.2,0-1.7.1,0-1.2-.2-2.3-.3-3.5.5,0,1.1-.1,1.6-.2ZM907.4,299.4c.3.4.6.7,1,1.1-.4.3-.7.5-1.3,1-.3-.5-.7-.9-.6-1.2,0-.3.6-.6.9-.9ZM745.4,485.2l1.2.8c-.7,1.1-1.3,2.2-2,3.3-.4-.3-.8-.5-1.2-.8.7-1.1,1.3-2.2,2-3.4ZM740.5,491.8c1,.7,2,1.4,3.6,2.4-1.2.8-2,1.3-2.9,1.8-.6-1.2-1.3-2.4-1.9-3.6.4-.2.8-.4,1.2-.6ZM735.8,505.8c.2-.3.8-.5,1.2-.4.3,0,.6.5,1.2,1.1-1.1.3-1.6.5-2.2.6-.1-.4-.4-1-.3-1.3ZM782.1,219.2c.3,1.3.7,2.6,1,3.9-.4.1-.9.2-1.3.3-.1-1.4-.2-2.8-.4-4.1.2,0,.4,0,.6-.1ZM775.1,228.6c0,.2.1.4.2.6-.7.3-1.3.6-2,.9l-.4-1.2c.7,0,1.4-.2,2.2-.3ZM770.7,242.8c.3,1.4.6,2.8.9,4.1-.5.1-.9.2-1.4.4-.4-1.4-.8-2.7-1.2-4.1.5-.1,1.1-.3,1.6-.4ZM762.2,251.7c1.7.4,3.3.9,5,1.3-.2.6-.3,1.2-.5,1.8-1.6-.5-3.3-1.1-4.9-1.6.1-.5.3-1,.4-1.4ZM753.7,249.6c.3.8.6,1.5.8,2.3-.3,0-.6.2-.9.3-.3-.8-.5-1.6-.8-2.4.3,0,.8-.3.8-.2ZM752.5,277c-.3.2-.7.4-1,.6-.5-.6-1-1.2-1.5-1.8.6-.4,1.2-.8,1.8-1.1.2.8.4,1.6.7,2.4ZM750,218.3c.6.7,1.3,1.4,1.9,2-.4.3-.7.5-1.1.8-.5-.7-1.1-1.4-1.6-2.1.3-.2.5-.5.8-.7ZM745,283.7c.3,0,.6,0,.9,0,.1,1.7.3,3.5.4,5.2-.5,0-.9,0-1.4.1v-5.2ZM743.5,283.9c.1,0-.3.8-.4,1.2-.3,0-.7,0-1,.1-.1-.8-.3-1.6-.4-2.3.6.3,1.3.6,1.8,1ZM736.7,271.9c.2,0,.5,0,.7,0v3.9c-.5,0-1-.2-1.5-.2.3-1.2.5-2.5.8-3.7ZM562.9,280.3c-.6-.8-1.3-1.6-1.9-2.4.3-.2.6-.5.9-.7.7.8,1.3,1.6,2,2.4-.3.3-.6.5-.9.8ZM580.3,300.6c-.3-.2-.5-.4-.8-.6.6-.7,1.1-1.3,1.7-2,.2.1.4.3.6.4-.5.7-1,1.4-1.5,2.1ZM595.9,273.6c-.4-.2-.9-.5-1.3-.7.6-1.2,1.2-2.4,1.8-3.7.5.4,1.1.7,1.6,1.1-.7,1.1-1.4,2.2-2,3.3ZM605.3,283.2c-.4,0-.8,0-1.2,0,0-1.2-.2-2.4-.2-3.6.5,0,.9,0,1.4,0v3.6ZM606,269.2c-.4,0-.8-.2-1.3-.3.1-.8.3-1.6.4-2.4.4,0,.7.1,1.1.2,0,.8-.2,1.7-.3,2.5ZM607.3,260c-.5-.5-1.1-.9-1.5-1.4-.1-.1.4-.7.6-1.1.3,0,.7,0,1,0,0,.8,0,1.6-.1,2.4ZM621.4,254.2c-.2,0-.5-.2-.7-.2.2-.9.5-1.7.7-2.6.3.1.7.3,1,.4-.3.8-.7,1.6-1,2.4ZM625.2,272.2c-.3,0-.6,0-.9.1-.1-.9-.3-1.8-.4-2.7.4,0,.9,0,1.3,0v2.6ZM670.9,248.7c-.9-1.8-1.8-3.6-2.8-5.4.5-.3,1-.6,1.5-.9,1.2,1.7,2.3,3.4,3.5,5.1-.7.4-1.5.7-2.2,1.1ZM711,222.4c-.1-1.2-.3-2.4-.4-3.5.3,0,.5,0,.8-.1.1.7.3,1.4.4,2.1,0,.5.2.9-.8,1.5ZM718,220.8c-.6-1.3-1-2.1-1.3-2.8.6.3,1.3.4,1.8.8.2.1-.2.9-.4,2ZM727.8,207.3c-.4,0-1.1-.7-1.1-1,.1-.6.6-1.1,1-1.7.4.4.9.8,2,1.7-.8.4-1.3.9-1.9.9ZM723.8,259.6c1.2.9,2.4,1.7,3.6,2.6-.3.5-.6,1-1,1.5l-3.3-3.3c.2-.3.4-.5.6-.8ZM718.2,301.1l2.5,2.8c-.3.3-.7.6-1,.9-.8-1-1.5-2-2.3-3,.3-.2.5-.5.8-.7ZM684.6,431.8c1.1-.5,2.2-1,3.2-1.5,0,.3.2.6.2.9-1.2.2-2.3.4-3.5.6ZM701.4,418.4c-1.1-.2-2.1-.5-3.2-.7-.1-.8-.3-1.7-.4-2.5,1.1,1.2,4.5.2,3.6,3.3ZM702.1,414.6c-.5-1.3-.9-2.5-1.4-3.8.6,0,1.1-.2,1.7-.3-.1,1.4-.2,2.7-.3,4.1ZM701.9,396.1c.6.8,1.3,1.5,1.9,2.3-.3.2-.5.4-.8.7-.7-.7-1.3-1.5-2-2.2.3-.2.6-.5.9-.7ZM700.2,402.7c0,0,.6.1.8.2-.2.5-.4,1.1-.5,1.6-.3,0-.6-.2-.9-.2.2-.5.4-1.1.6-1.6ZM698,408.3c.3.3.5.6.8.9-.9.8-1.7,1.6-2.6,2.3-.4-.4-.7-.9-1.1-1.3,1-.7,1.9-1.3,2.9-2ZM696.1,412.7c.4.5.8,1,1.3,1.5-.7-.1-1.5-.3-2.2-.4.3-.4.7-.7,1-1.1ZM698,417.7c-1.4,1.1-2.8,2.3-4.2,3.4l-.7-1.2c1.6-.7,3.3-1.5,4.9-2.2ZM686.6,367.6c0-.1.9,0,1.4-.1.2.3.5.6.7.9-.8.5-1.5,1.1-2.3,1.6,0-.8,0-1.6.2-2.4ZM686.4,409.2c.8.7,1.6,1.4,2.3,2.1-.4.3-.9.7-1.3,1l-1.9-2.2c.3-.3.6-.6.9-.9ZM687.6,420.1c0,.4,0,.7,0,1.1-1.8.2-3.6.4-5.4.5,0-.6,0-1.1-.1-1.7h5.5ZM683.9,432.1c-1.7,1-3.3,2.1-5,3.2-.3-.6-.5-1.2-.8-1.7,1.9-.5,3.8-1,5.7-1.4ZM629.4,487.3c-.3-.2-.6-.7-.6-1.1,0-.3.4-.6.9-1.3.3.9.6,1.4.7,2,0,.1-.8.5-1,.4ZM630.3,504.2c-1.5.5-2.2.9-2.8.8-.5,0-.9-.7-1.4-1.1.5-.5.9-1.2,1.5-1.5.2-.1.8.5,2.8,1.8ZM637.9,548.1c.4.2.8.5,1.2.7-1.4,2.4-2.9,4.8-4.3,7.3-.2.4,0,1,.2,1.5-1,.4-2.1.9-3.1,1.3-.3-.4-.5-.7-.8-1.1,2.3-3.3,4.6-6.5,6.8-9.8ZM635.8,476.3c-.3-.4-.7-.9-1-1.3,1.3-1,2.5-2.1,3.8-3.1.4.5.8,1.1,1.2,1.6-1.3.9-2.7,1.9-4,2.8ZM638.6,466.7c.2,0,.5.1.7.2,0,.7-.2,1.4-.3,2-.4-.1-.9-.2-1.3-.3.3-.6.6-1.3.8-1.9ZM638.4,464.4c.7-1.6,1.2-2.7,1.8-4.2,1.3.7,2.6,1.4,4.8,2.6-2.7.7-4.6,1.1-6.6,1.6ZM640.8,481.8c.3.6.6,1.2.9,1.7-.3.1-.6.3-.9.4-.3-.6-.5-1.2-.8-1.8.3,0,.8-.3.8-.3ZM641.8,490.1c.7,1.3,1.4,2.5,2.1,3.8-.4.3-.7.6-1.1.9-.8-1.3-1.5-2.6-2.3-4,.4-.2.8-.5,1.3-.7ZM644.3,507.5c-.9-.7-1.8-1.3-2.8-2,.3-.4.5-.8.8-1.2.9.6,1.9,1.2,2.8,1.8-.3.5-.6.9-.9,1.4ZM648.6,464.8c1,.2,1.9.6,2.9.9-.2.5-.4,1.1-.6,1.6-1-.4-1.9-.9-2.9-1.4,0,0,.5-1.2.5-1.2ZM648.3,453.3c.6-1.6.9-2.3,1.2-3.1.3.6.6,1.2.8,1.9,0,.1-.7.4-2,1.2ZM650.9,448.3c-1.7-.6-3.4-1.2-5.2-1.9.2-.5.4-1,.6-1.4,1.6.8,3.2,1.7,4.8,2.5,0,.2-.2.5-.3.7ZM645.9,475.6c.5-.5,1-.9,1.5-1.4.9,1.1,1.9,2.1,2.8,3.2-.3.2-.5.5-.8.7-1.2-.8-2.3-1.7-3.5-2.5ZM649.6,486c.4-1.1.6-1.9.9-2.6.4.6.8,1.1,1.2,1.7-.5.2-1.1.5-2.1,1ZM653.6,486.6c-.5-.5-1-1-1.6-1.5.8,0,1.6,0,2.4-.1-.3.5-.6,1.1-.9,1.6ZM654,475c-.1-.5-.2-.9-.3-1.4.9-.9,1.7-1.7,3.4-3.4.6,2.2,1,3.5,1.3,4.9h-4.4ZM652.7,446.1c0-1.2.1-2.4.2-3.5.3,0,.5,0,.8,0,.1,1.2.3,2.3.4,3.5-.5,0-.9,0-1.4,0ZM658,463.9c-.3,0-.8-.6-1.3-.9.4-.6.8-1.2,1.4-1.6.2-.1.9.5,1.8,1.1-.9.7-1.4,1.3-1.9,1.4ZM660.7,464.7c0-.1.6-.8.7-.7.5.3.9.7,1.5,1.2-.7.4-1.2.8-1.3.7-.4-.3-.8-.8-1-1.3ZM661.8,455.9c-.3-3.5,0-5.6,3.9-3.4-1.2,1.1-2.4,2.1-3.9,3.4ZM666.6,459.6c.2.5.5,1.1.7,1.6-.8.3-1.6.6-2.5.9-.1-.5-.2-.9-.4-1.4.7-.4,1.4-.8,2.1-1.1ZM662.3,483.8c-.2-.3-.5-.5-.7-.8.5-.4.9-.8,1.4-1.2.2.1.3.2.5.3-.4.6-.8,1.1-1.2,1.7ZM666.3,479.5c-.4,0-.9,0-1.3,0v-7.1c.6,0,1.2,0,1.8-.1-.2,2.4-.3,4.8-.5,7.2ZM663.2,468.9c-.2-.1-.3-.3-.5-.4,1.2-1.5,2.5-3,3.7-4.4.4.4.9.8,1.3,1.3-1.5,1.2-3.1,2.4-4.6,3.6ZM668.5,454.9c-.3,0-.6-.2-.9-.2.2-.7.4-1.4.5-2.2.4.1.9.2,1.3.3-.3.7-.6,1.4-.9,2ZM671.7,451.7c-1.4-.9-2.9-1.7-4.3-2.6.3-.4.6-.8.9-1.3,1.4,1,2.8,1.9,4.2,2.9-.3.3-.5.6-.8.9ZM680.4,460.1c-1,2.2-1.6,3.4-2.3,5-1.1-1.5-1.9-2.6-3-4,1.6-.3,2.9-.5,5.3-1ZM676.9,443.5c.2.1.4.2.6.3-.4.8-.9,1.5-1.3,2.3-.1,0-.2-.1-.4-.2.4-.8.7-1.6,1.1-2.4ZM675.1,452.2c-.5-.1-1-.3-1.4-.4.4-1.1.9-2.2,1.3-3.3l.8.2c-.2,1.2-.4,2.4-.7,3.6ZM675,419.9c.2.2.3.4.5.6-.5.5-1,.9-1.4,1.4-.2-.3-.4-.6-.7-.8.5-.4,1.1-.8,1.6-1.1ZM672.6,439.9c.3,0,.6.2.9.3-.3,1-.5,1.9-.8,2.9-.4-.1-.7-.3-1.1-.4l1-2.7ZM670.2,426.6c0,.5,0,.9,0,1.4h-5.4c0-.5,0-.9,0-1.4h5.5ZM662.9,417.4c.3.7.5,1.3.8,2-.3.2-.5.4-.8.5-.4-.6-.7-1.3-1.1-1.9.4-.2.8-.4,1.1-.6ZM665.1,438.6c.3.4.5.8.8,1.2-1.5.8-2.9,1.6-4.4,2.4-.8,1.4-1.4,1.4-2.3,0-.9.8-1.9,1.6-2.9,2.4-.2-.4-.5-.7-.7-1.1,1.8-1.1,2.2-5.6,5.9-1.9,1.2-1,2.4-2,3.6-3ZM658.1,431.3c.4-.2,1.1,0,1.5.3.3.2.5,1.2.5,1.3-2.6,1.3-5.3,2.5-7.9,3.7-.2-.5-.4-1-.5-1.6,2.1-1.2,4.3-2.5,6.5-3.6ZM653.2,437c.2.3.5.6.7.9-.8.9-1.6,1.7-2.5,2.6-.4-.5-.7-.9-1.1-1.4l2.8-2.1ZM646.1,417.6l1.2,2.3c-.3.2-.7.4-1,.6-.4-.7-.9-1.5-1.3-2.2.4-.2.8-.4,1.2-.7ZM644.3,441c0,.3.1.6.2,1-1.2.3-2.4.5-3.5.8,0-.3-.2-.6-.3-.9,1.2-.3,2.4-.5,3.6-.8ZM639.3,428.8c.4,1.7.9,3.4,1.3,5.1l-1.4.3c-.4-1.7-.7-3.4-1.1-5.1.4,0,.7-.2,1.1-.3ZM641.2,446.9c1.1,1.4,1.9,2.4,3.2,4-2,.1-4.2.3-6.4.4-.2-.5-.4-1-.5-1.5,1.4-1.1,2.8-2.2,3.8-2.9ZM633.9,434.1c.5.8,1.1,1.6,1.6,2.3-.5.3-1,.5-1.5.8-.3-.9-.7-1.8-1-2.7l.9-.5ZM631.6,462.9c.6.6,1.2,1.1,1.8,1.7-.1.2-.3.4-.4.6-.7-.4-1.4-.8-2.1-1.3.2-.3.5-.7.7-1ZM629.4,456.7c.4.6.7,1.2,1.1,1.8-.4.2-.7.4-1.1.6-.2-.6-.5-1.3-.7-1.9.3-.2.5-.4.8-.5ZM630,472.5c-.3.3-.6.7-1,.9-.3.2-.7.2-1.1.3,0-.4-.1-.9-.2-1.3h2.2ZM625.7,478.6c1.3.6,2.5,1.2,3.8,1.7l-.4.9c-1.3-.5-2.6-.9-3.9-1.4.2-.4.3-.9.5-1.3ZM625.2,552.8c1.2.6,2.4,1.3,3.5,1.9-.7.9-1.5,1.7-2.2,2.6-.7-1.2-1.5-2.3-2.2-3.5.3-.3.6-.7.9-1ZM616.3,502.4c.4,0,.7,0,1.1,0,0,1-.2,1.9-.3,2.9-.3,0-.6,0-.9,0,0-1,.1-1.9.2-2.9ZM605.6,510.6c-.9.1-1.8.3-2.7.4.6-.7,1.3-1.3,1.9-2,.3.5.5,1,.8,1.6ZM602,510.9c.1.2.3.3.5.3,0,1.3.1,2.7.2,4-.3,0-.7,0-1,0,0-1.4.2-2.9.3-4.4ZM589.2,549.1c.4.2.9.3,1.3.5-.4.8-.7,1.6-1.1,2.3-.2,0-.5-.1-.7-.2.1-.9.3-1.7.4-2.6ZM499.2,826.1c.3-.1.6-.3.8-.4.2.7.3,1.3.5,2-.4-.5-.9-1.1-1.3-1.6ZM531.3,747.5c-.2-1.1-.4-2.2-.6-3.6.9,0,1.7,0,1.7.2.4,1.1.6,2.2.8,3.3-.7,0-1.3,0-2,0ZM556.8,653.8c0,.1,0,.3,0,0h0ZM554.6,665c.4.2.8.4,1.1.7-.5.9-1,1.8-1.5,2.6-.4-.2-.8-.5-1.2-.7.5-.9,1-1.7,1.6-2.6ZM553.5,682.3c0,.5-.1,1.1-.2,1.6-2.3-.3-4.6-.6-6.9-.9,0-.2,0-.5.1-.7h7ZM546.6,677.2c.6.6,1.1,1.2,1.7,1.8-.7.6-1.4,1.1-2,1.7-.5-.5-.9-.9-1.4-1.4.6-.7,1.1-1.4,1.7-2.1ZM543.9,681.3c.3.1.5.2.8.3-.3.7-.6,1.5-.9,2.2,0,0-.6-.2-.9-.3.3-.7.6-1.5.9-2.2ZM540.7,677.7c-.3-.1-.6-.2-.9-.3.5-1.2,1-2.4,1.4-3.6.3,0,.6.2.8.3-.4,1.2-.9,2.4-1.3,3.6ZM541,689.9c.8,1.4,1.7,2.9,2.5,4.3-.5.3-1,.5-1.4.8-.8-1.5-1.6-2.9-2.5-4.4.5-.2.9-.5,1.4-.7ZM543.4,744.7c-1.2-1.5-2.9-3.4-2.6-4.8.7-3.6.6-7.9,4.6-10.1.3,2.7,1.6,5.3-1.4,7.7-.8.7.5,4,.8,6.2.5.1,1,.2,1.6.3-1,.3-2.7,1.1-2.9.8ZM549,740.7c-.4-1-.8-2.1-1.3-3.1.4-.1.8-.3,1.1-.4.3,1.1.6,2.2.9,3.2-.3,0-.5.2-.8.2ZM587.4,680.8c-.2-.9-.4-1.7-.6-2.6.3-.1.6-.2,1-.4.3.9.6,1.7.9,2.6-.4.1-.9.2-1.3.4ZM596.4,665.3c-.3-.2-.5-.4-.8-.5.4-.8.8-1.6,1.2-2.4l.8.3c-.4.9-.8,1.8-1.2,2.6ZM653.4,787.4c0,.3,0,.6,0,.9-.9.1-1.8.3-2.7.4,0-.4,0-.9,0-1.3h2.6ZM651.9,733c.3-1.6.6-3.2.8-4.8.3,0,.6.1.8.2-.2,1.6-.3,3.2-.5,4.8-.4,0-.8-.2-1.2-.2ZM653.6,759.8c-.3,0-.9-.8-.8-.9.2-.4.7-.7,1.1-1,.3.4.5.7.9,1.3-.5.3-.9.7-1.2.6ZM653.1,746c-.2-.1-.4-.2-.6-.3.5-.8,1-1.6,1.5-2.4.2.5.5,1,.7,1.5-.5.4-1.1.9-1.6,1.3ZM656.9,620.5c.3-2.2.5-3.6.6-4.9,1.2.3,2.4.6,4.6,1.1-2.1,1.5-3.1,2.3-5.2,3.8ZM664.7,579.7c0-.5,0-.9.1-1.4,1.4,0,2.8.2,4.2.2,0,.5,0,1,0,1.5-1.5-.1-2.9-.3-4.4-.4ZM686,578.6c-.7-.1-1.1-1.8-2.3-3.8,2.7.9,4.1,1.4,7,2.3-2.4.8-3.7,1.7-4.7,1.5ZM702.3,554.9c-.3,0-.6,0-.9.1l-.4-2.6c.4,0,.9-.1,1.3-.2v2.7ZM707.4,563.5c0-.6-.2-1.2-.3-1.8,1.6-.5,3.2-.9,4.9-1.4.1.5.3,1.1.4,1.6-1.7.5-3.4,1.1-5,1.6ZM736.9,547.9c-.3,0-.7,0-1,0,0-1.1-.1-2.3-.2-3.4.5,0,1,.1,1.5.2,0,1.1-.2,2.2-.2,3.2ZM702.7,704c-1-.2-2.1-.5-3.1-.7.1-.4.2-.8.3-1.2,1,.3,2,.6,3,.9,0,.3-.1.6-.2,1ZM732.7,682.6v-4.7c.3,0,.7,0,1,0,0,1.6.2,3.1.3,4.7-.4,0-.9,0-1.3,0ZM736.5,644.7c.2.3.3.6.5.9-1.2.9-2.4,1.8-3.7,2.6-.3-.5-.6-1-.9-1.5,1.4-.7,2.7-1.4,4.1-2ZM729.1,652.3c.1-.3.3-.6.4-.9h5.8c-1.2,1.1-1.8,1.7-2.4,2.3-1.2-.5-2.5-.9-3.7-1.4ZM735.5,661.2c-1-2.9-1.8-5-2.5-7.2,1.5,1,3,2,4.5,2.9-.3.7-.9,1.9-2,4.2ZM738,634.9c-.4-.2-.7-.4-1.3-.8.4-.5.7-.8.9-1.1.3.3.6.6.7,1,0,.2-.2.6-.3.9ZM741.4,604.1c-.3-.8-.5-1.6-.8-2.5.4-.1.8-.3,1.2-.4.2.9.4,1.7.5,2.6-.3,0-.6.2-.9.3ZM748.1,640l-3.7-3c.4-.4.7-.8,1.1-1.2,1.2,1.1,2.3,2.1,3.5,3.2-.3.3-.6.7-.9,1ZM756.5,590.4c-.9-1.2-1.8-2.5-2.8-3.7.3-.2.6-.5.9-.7,1,1.1,2.1,2.2,3.1,3.3-.4.4-.8.7-1.2,1.1ZM758.3,572.6c-.3,0-.5,0-.8,0v-9.3c.6,0,1.3,0,1.9,0-.4,3.1-.7,6.1-1.1,9.2ZM763.4,539c-.5-.3-1.1-.6-1.6-.9.5-.8,1.1-1.5,1.6-2.3.4.2.7.4,1.1.7-.4.8-.8,1.6-1.1,2.5ZM783.1,552c-.1-.9-.3-1.8-.4-2.7.4,0,.8-.1,1.3-.2,0,.9.2,1.8.3,2.8-.4,0-.8.1-1.1.2ZM788.7,543c-.8-1.3-1.5-2.7-2.3-4,.4-.2.7-.4,1.1-.7.8,1.3,1.6,2.6,2.4,4-.4.2-.8.5-1.2.7ZM793,505.4c.3-1.5.6-3,.8-4.6.5.1,1.1.2,1.6.3-.4,1.5-.8,3-1.2,4.5-.4,0-.8-.2-1.2-.2ZM795.9,511.2c-.5-1.1-1.1-2.2-1.6-3.3.3-.2.6-.3,1-.5.5,1.1,1.1,2.2,1.6,3.3-.3.2-.7.3-1,.5ZM896.5,805.1s0,0,0,0h0ZM917.5,589.8c-1.3,1.6-2.4,2.7-3.9,4.5.4-1.9.6-3.1.9-4.9-1.5,0-2.7.2-4.5.3,3-5.1,5-.8,7.6,0ZM901.8,778c.2,2,.4,4,.6,5.9-.2,0-.5,0-.7,0-.2-2-.4-4-.6-5.9.3,0,.5,0,.8-.1ZM894.8,414.6c.4,0,.8.2,1.2.2-.2.6-.5,1.3-1.2,3.2v-3.4ZM892.7,425.8c.2,0,.4.2.6.3-.2.7-.4,1.3-.6,2-.4-.2-.8-.4-1.2-.6.4-.6.8-1.2,1.2-1.8ZM895.3,498.1l.7,1.2c-1.5.9-3,1.8-4.5,2.7-.2-.5-.5-1.1-.7-1.6,1.5-.8,3-1.6,4.5-2.4ZM886.4,320.5c-.2,0-.4.1-.6.2-.4-.9-.9-1.9-1.3-2.8.5-.2.9-.3,1.4-.5.2,1,.4,2.1.6,3.1ZM881.2,344.9c0,1.2-.1,2.4-.2,3.7-.4-1.1-.9-2.2-1.3-3.3.5-.1,1-.2,1.6-.4ZM879.4,425.4c.5.2.9.6,1.6,1.2-.7.4-1.2.9-1.3.9-.5-.3-.8-.8-1.2-1.2.3-.3.7-.9.9-.8ZM877.3,315.6c.3,0,.7.3,1.3.6-.4.5-.6.9-.8,1.3-.4-.3-.8-.6-1.2-.9.3-.3.5-.9.8-1ZM877.4,353.8c-.5,0-1,0-1.5.1v-4.4c.4,0,.7-.1,1.1-.2.1,1.5.3,3,.4,4.4ZM875.6,340.5c.2.8.4,1.7.6,2.5-.3,0-.6.2-.9.2-.2-.8-.4-1.7-.6-2.5.3,0,.6-.2.9-.2ZM864.3,353.2c-2.9-.6-2.6-2-.9-3.7.3,1.2.6,2.5.9,3.7ZM862.8,341.1c0-.4-.2-.8-.3-1.3,1.1,0,2.2-.1,3.3-.2-1,.5-2,1-3,1.4ZM867,318.1c.4.9.9,1.9,1.3,2.8-.4.2-.8.3-1.1.5-.3-1-.5-2-.8-3,.2,0,.5-.2.7-.2ZM868.4,338.4c-.8.4-1.6.8-2.4,1.2.4-.8.9-1.5,1.3-2.3.4.4.7.7,1.1,1.1ZM862,306.9c.4,0,.8,0,1.2-.1,0,.8.2,1.6.2,2.4-.5,0-1,0-1.5,0v-2.4ZM861.1,330.3c.7.5,1.4.9,2.1,1.4-.2.3-.4.5-.6.8-.6-.5-1.3-1.1-1.9-1.6.1-.2.3-.4.4-.6ZM861.7,343.8c.2.2.5.5.7.7-.5.5-1,1.1-1.5,1.6-.2-.1-.4-.3-.6-.4.4-.6.9-1.3,1.3-1.9ZM858.3,338.2c.6.3,1.3.6,1.9,1-.2.3-.6,1-.7,1-.7-.4-1.3-.8-1.9-1.2.2-.2.4-.5.7-.7ZM852.1,357.5l1.1.5c-.3.6-.5,1.2-.8,1.8-.3-.1-.7-.3-1-.4.2-.6.4-1.3.7-1.9ZM850.8,368.7h0c1.1,2.2,3.4,4.7-1.6,5.4.5-1.8,1.1-3.6,1.6-5.4ZM847.2,370.5c-.2-.5-.3-1.1-.5-1.6,1.3,0,2.6-.2,4-.2-1.2.6-2.3,1.2-3.5,1.8ZM846,317.3c.7.5,1.5,1,2.2,1.5-.3.4-.6.8-.8,1.2-.7-.5-1.4-1-2.1-1.6.2-.4.5-.7.7-1.1ZM842.6,385c.2,0,.3,0,.5,0v3.5c-.2,0-.5-.1-.7-.2,0-1.1.1-2.2.2-3.3ZM840.3,345.6c.3.3.6.5.8.8-.7.9-1.3,1.8-2,2.8-.5-.4-.9-.8-1.4-1.3.8-.8,1.7-1.5,2.5-2.3ZM835.4,375.2c-.2,1.3-.4,2.1-.5,2.9-.3-.6-.8-1.1-.9-1.7,0-.2.7-.6,1.4-1.2ZM835.7,385.2v2.7c-.4,0-.7,0-1.1,0v-2.7c.4,0,.7,0,1.1,0ZM832.2,347.7c0,.4-.6,1-1.4,2-.3-1.6-.4-2.3-.8-4.1,1.3,1.2,2.1,1.6,2.2,2.1ZM830.5,414.6c-.2,1.2-.4,2.4-.6,3.5-.4,0-.8,0-1.2,0,0-1.2-.1-2.3-.2-3.5.6,0,1.3,0,1.9,0ZM826.9,366c1,.2,2,.3,3,.5,0,.2,0,.5,0,.7-1,0-2.1-.1-3.1-.2,0-.3,0-.7.1-1ZM822,407.6l.3,2.1c-.4,0-.8,0-1.2.1-.1-.7-.3-1.4-.3-2.1,0,0,.8-.1,1.2-.2ZM822,425.7c-.4,0-.8.1-1.2.2-.4-1.4-.8-2.9-1.2-4.3.6,0,1.1-.2,1.7-.2.2,1.5.5,2.9.7,4.4ZM817.1,394.4c.9.8,1.8,1.6,2.7,2.3-.5.6-1.1,1.2-1.6,1.8-1.1-.6-2.3-1.2-3.4-1.8.8-.8,1.5-1.6,2.3-2.4ZM817.2,445.6c-.2.3-.4.7-.6,1-.8-.4-1.7-.9-2.5-1.3.2-.4.4-.7.6-1.1.8.5,1.6.9,2.5,1.4ZM814.7,431.7v3.1c-.3,0-.6,0-1,0,0-1-.1-2-.2-3,.4,0,.8,0,1.2,0ZM810.6,420.7c0,0,1.1,0,1.7,0v3.5c-.6,0-1.2,0-1.8,0,0-1.1,0-2.3,0-3.4ZM842.7,519.3c-.3-.2-.6-.4-.9-.6.5-.9,1-1.7,1.5-2.6.4.3.8.6,1.2.9-.6.8-1.2,1.5-1.8,2.3ZM853.3,507.3c-.4-1.2-.8-2.3-1.2-3.5.4-.2.7-.3,1.1-.5.6,1,1.2,2,1.9,3-.6.3-1.2.7-1.8,1ZM849.6,491.2c0-.4.2-.7.3-1.1,1.2.2,2.4.4,3.5.6-.1.5-.2,1-.4,1.4-1.1-.3-2.3-.6-3.4-1ZM861.3,524.2c-.2-.2-.4-.4-.5-.6.7-.6,1.4-1.3,2.1-1.9.2.2.4.5.6.7-.7.6-1.5,1.2-2.2,1.8ZM868.2,502.7s-.4-.2-.8-.4c.5-.9,1.1-1.7,1.6-2.5.2.1.4.2.6.3-.5.9-.9,1.7-1.4,2.6ZM873.5,426.1c0,16.3.1,32.6.3,49,0,0,0,.2,0,.3-23,9.5-46.1,18.5-69,28,0-.5-.1-1-.2-1.5,2.5-5.6,5-11.2,7.4-16.8.4-.9.1-2.2.1-3.3,0-1-.5-2.3,0-2.8,7.7-8.6,9.3-19.9,13.7-30.1,5.5-12.9,11.1-25.8,16.3-38.8,1.4-3.6,1.6-7.6,2.4-11.8-1.1.7-1.9,1.1-3.1,1.9,2.8-4.3,5.2-8,7.7-11.8l-.9-.7c-.8.4-1.5.8-3.6,1.9,1.6-2.9,2.7-4.7,3.5-6.1h3.8c-.3-1.6-.7-3.1-1-4.4,1.2-.6,2.6-1.3,4.1-2l-1.1-.6c.6-1.4,1.3-2.7,1.7-4.1.3-1,.5-2.1.3-3.2-.2-1.3-.8-2.5-1.2-3.7.6-.2,1.1-.4,1.7-.6.4,1,.8,2.1,1.5,3.8,3.8-4.9,1.4-11.9,6.6-15.3,0,0,0,0,0,0,0,0,0,0,0,0,0,0,0,0,.1,0,0,0,0,0,0,0,.6-1,1.2-1.9,1.8-2.9-.9-.3-1.8-.7-2.7-1,1.1-2,2-4.6,4.7-1.4,2.5.3,6.5,2,4.7,3.8-3.5,3.6-1.2,7.1-1.3,10.4-.4,8.9-.3,17.8-.2,26.8.1,7.1.6,14.2,1,21.3,0,1,1.3,1.9,1.9,2.8-2.2,1.3-1.8,8.9,1,10.5-.7.9-1.9,1.8-1.9,2.8ZM874.9,360c.4,0,.9,0,1.3,0v2.7c-.3,0-.5,0-.8,0-.2-.9-.3-1.9-.5-2.8ZM876.2,417c.5-.1.9-.3,1.4-.4.4,1,.8,2,1.2,3-.5.2-.9.4-1.4.6l-1.2-3.2ZM877.9,436c-.1-.4-.2-.8-.3-1.2,1.1-.2,2.1-.3,3.2-.5,0,.2.1.5.2.7-1,.3-2,.7-3,1ZM879.5,644.7c.2-1.2.3-2.4.5-3.7.2,1.2.3,2.4.5,3.6-.3,0-.7,0-1,0ZM880,640.3c-.1-1.2-.2-2.3-.4-3.5.6.1,1.3.2,1.9.3-.5,1.1-1,2.1-1.5,3.2ZM880.9,479.2l-1.8-4.2c.4-.2.9-.4,1.3-.5.6,1.4,1.1,2.8,1.7,4.2-.4.2-.8.3-1.1.5ZM882.8,350.9c-.6-.7-1.1-1.4-1.7-2.1.8.3,1.6.5,2.4.8-.2.4-.5.9-.7,1.3ZM883.6,272.7c.4,0,.8.2,1.2.3-.2.8-.4,1.7-.6,2.5-.2,0-.4,0-.6,0v-2.7ZM885,333.6c0,1,.2,2,.3,3-.2,0-.5,0-.7.1l-.5-3c.3,0,.7,0,1-.1ZM885.8,364c-.4-.6-.9-1.3-1.3-1.9.3-.2.7-.4,1-.7.3.7.6,1.4.9,2.2-.2.1-.4.2-.7.4ZM886.3,417.7c1-.6,2-1.2,3-1.8.2.6.8,1.2.6,1.7-.2.8-.7,1.6-1.7,3.4-.2-.3-.9-1.5-2-3.2ZM893.2,678.9c-.3-.1-.5-.2-.8-.3.4-1.1.9-2.3,1.3-3.4.3.2.7.3,1,.5-.5,1.1-1,2.1-1.6,3.2ZM892.5,647.4c0-.3.6-.8.7-.7.4.2.7.5,1,.8-.3.3-.7.6-1.2,1.1-.2-.5-.5-.8-.5-1.2ZM893.9,618.4c-.8.4-1.6,1.2-2.3,1.1-1.1-.2-2.1-1-3.1-1.6.5-.4,1.1-.8,1.6-1.2,1.9-1.6,3.8-3.2,6.7-5.6-1,3.7-5.9,3.9-2.8,7.3ZM899,686.6c-.3.1-.6.2-.9.3-.2-.7-.4-1.5-.6-2.2.2,0,.4-.1.5-.2.3.7.7,1.4,1,2.1ZM899.3,486.7c-.7-.5-1.4-1-2-1.6.2-.3.4-.7.5-1,.8.3,1.6.7,2.5,1-.3.5-.7,1-1,1.5ZM905,473.5c-.6-1.3-1.2-2.5-1.7-3.8.5-.2,1-.5,1.5-.7.5,1.3,1.1,2.5,1.6,3.8-.5.2-1,.4-1.5.6ZM909.9,482.9c-3.4-1.7-3.4-3,.8-6.2-.3,2.4-.6,4.3-.8,6.2ZM918.5,480.7c0-.7,0-1.5.2-2.2,0-.1.8,0,2.6-.2-1.5,1.3-2.1,1.8-2.7,2.4ZM938.5,471.4c-1.4-.9-2.9-1.8-4.3-2.8.2-.3.4-.6.6-1,1.4.9,2.9,1.8,4.3,2.8-.2.3-.4.7-.6,1ZM941.6,460.6c.5-1.9.8-3,1.1-4.2,1,.5,1.8,1,3.1,1.8-1.5.9-2.5,1.5-4.2,2.4ZM946.5,472.8c0-.3,0-.6-.1-1,.9-.1,1.8-.3,2.7-.4,0,.4,0,.9,0,1.3h-2.7ZM950,458.4c-.3-.4-.5-.9-.8-1.3,1.1-.7,2.1-1.4,3.2-2,.3.5.6.9.9,1.4-1.1.7-2.2,1.3-3.3,2ZM968.2,439.8c-.2-.8-.4-1.6-.7-2.4.4,0,.8,0,1.2-.1,0,.8.2,1.6.3,2.3-.3,0-.6.1-.8.2Z"/>
        <path class="cls-1" d="M324,525.2s0,0,0-.1c0,0,0,0-.1,0h.1Z"/>
        <path class="cls-1" d="M378.8,210.1c-.4-1-.8-2-1.2-3-.3,0-.5.2-.8.2.2,1,.5,2.1.7,3.1.4-.1.8-.3,1.3-.4Z"/>
        <path class="cls-1" d="M383.9,184.9c-.3-.2-.5-.4-.8-.6-.4.6-.8,1.3-1.3,1.9l.5.4,1.5-1.7Z"/>
        <path class="cls-1" d="M382.5,193.8c-.3-.2-.6-.4-.9-.6-.8.9-1.6,1.8-3.2,3.5,1.8-.4,2.8-.3,3.2-.7.5-.5.6-1.4.8-2.2Z"/>
        <path class="cls-1" d="M374.6,211.7c-.8-.6-1.6-1.2-2.3-1.7-.2.3-.4.6-.6.9.8.5,1.6,1.1,2.4,1.6.2-.3.4-.5.6-.8Z"/>
        <path class="cls-1" d="M486.1,551.2c2.3-1.5,3.9-5.1,4.2-7.9.2-1.2-3.6-2.9-5.9-4.7,1.1-10.4,1.5-21.9,3.6-33.1,2.1-11.2,5.8-22,8.9-32.9-6.5,7.8-13.2,15.9-20.2,24.2-2.6-4.8-2-6.9,1.5-8.6,1-.5,2.1-1.8,2.4-2.9,2.2-7.9,4.1-15.9,6.1-23.9.5-2.1,1-4.2,1.7-7.1-.2,0,1.7,0,1.9-.6,6.5-19.2,12.9-38.4,19.3-57.6-.6-.2-1.1-.4-1.7-.7-5.4,9.3-11,18.4-16.1,27.8-8,14.5-15.6,29.3-23.5,43.9-6.1,11.4-12.3,22.7-18.6,34-5.8,10.3-11.2,20.9-17.9,30.5-5.1,7.3-10.1,15-19.8,19.9,13.8-29.5,27.2-58,40.6-86.7-1.1.5-2.7.8-3.6,1.7-2,2.1-3.9,4.5-5.5,6.9-10.4,15.7-21,31.1-30.7,47.2-5.3,8.7-8.8,18.5-13.2,27.8-.5,1.1-1.7,1.9-2.7,2.6-4.1,2.8-8.1,5.5-12.2,8.3-3.4-1.1-7.8-3.5-10.2-8.3,1.2-1.8,2-4,2.2-5.9,1.1-10.8,1.5-21.6,2.1-32.4.1-1.9-.6-3.8-.3-5.6.9-5.2,2.1-10.4,3.3-15.6,1.4-6.6,1.9-13.7,4.6-19.8,3.2-7.5,8.3-14.3,12.6-21.4,1.1-1.9,2.5-3.6,3.8-5.5-6.1,5-11.6,10.4-16.9,16.1-6,6.4-11.4,13.3-17.7,19.3-3.8,3.6-7.3,8.6-15,9,2.3-4.1,3.6-7.6,5.8-10.4,7.3-9.1,15.1-17.8,22.5-26.8.9-1.1.6-3.4.7-4.1,2.6-2,5.1-3.7,7.3-5.8,1.5-1.4,2.6-3.3,4-4.9,7.9-9,18.7-13.7,29.1-19,1.4-.7,3.3-.6,5.8-1.1-5.3,11-10.1,21.2-15,31.4.7.4,1.3.8,2,1.2,5.7-7.2,11.4-14.3,17-21.5,8.4-10.9,16.4-22.2,25.2-32.8,4-4.9,9.7-8.5,14.4-12.8,1.3-1.2,2.1-2.9,3.2-4.4-.3-.3-.5-.7-.8-1-3,.5-6,.9-9,1.4-.2-.4-.3-.7-.5-1.1,1.6-1,3.8-3.3,4.9-2.8,3.8,1.6,6-1,8.5-2.4,4.8-2.7,9.5-5.7,13.9-9,5.4-4.1,10.5-8.6,15.7-12.9-.3-.4-.5-.7-.8-1.1-5.4,2.9-10.7,6-16.3,8.6-5.5,2.6-11.2,4.9-16.8,7.3-.4-.7-.8-1.5-1.3-2.2,13.2-9.5,26.4-19.1,39.6-28.6-12.8,5.2-25.7,9.8-36.2,19.1-3.3,2.9-8.2,4.1-12.4,6-.2-.4-.4-.8-.6-1.2,4.6-3.2,9.3-6.4,13.9-9.6-17.3,2.6-31.1,13.2-47.5,18.2l27.2-32c-.3-.3-.5-.7-.8-1-7.8,5.5-15.9,10.5-23.2,16.6-6.2,5.2-12.1,11.1-16.7,17.6-5.5,7.9-13.3,11.5-21.5,15.3-.2-.7-.4-1-.4-1.3,1.1-7.2,2.1-14.5,3.2-21.7,0-.6.2-1.3.5-1.9,2.9-4.8,6-9.5,8.8-14.3,1.5-2.5,2.5-5.3,3.7-8-.3-.1-.5-.2-.8-.3-9.4,12-18.8,24.1-28.2,36.1-3.7,2.8-7.5,5.7-11.3,8.5.1-.7,0-1.8.5-2.6,5.8-9,11.6-18.1,17.6-27,5.9-8.8,10.6-18.1,12.2-28.6,1.1-6.8,1-13.8,1.6-20.7.9-11.5,1.9-22.9,3.1-34.4.2-1.9,1.1-4.5,2.6-5.5,4.8-3.1,9.8-5.8,15-8.2,13.3-6.2,27.6-10.2,38.9-20.2,4-3.5,8.4-6.7,12.7-10.1-.3-.5-1-1.6-1.6-2.8,2.6,1.2,4.4,2,5.4-1.5.3-1,1.4-1.6,2.1-2.5,4.6-5.8,9.3-11.6,13.8-17.6,6.3-8.4,13.5-15.7,24.1-21.8-.8,3-.8,5.1-1.8,6.3-3.9,4.4-8.2,8.5-12.4,12.6-4.9,4.8-10.3,9.1-14.8,14.2-5.4,6-10.1,12.8-15.4,19-7.5,8.7-15.2,17.3-22.8,25.9-3.3,3.7-6.6,7.4-10.1,11-2.9,2.9-6,5.6-9.1,8.4.4.5.8,1,1.1,1.5,25.6-15.6,55.4-24.5,76.2-47.9-4.4,1.7-8.5,3.8-12.5,6.1-8.2,4.7-16.3,9.6-24.5,14.3-1,.6-2.6.2-4.6.3,2.1-2.9,3.3-5.2,5-7,5.6-5.6,11.4-11.1,17.2-16.4,3-2.7,6.1-5.5,9.6-7.4,6.9-3.7,14.1-6.6,21.1-10,6.4-3.2,8-6.6,6.7-11.2-.9-3.2-1.5-7-.6-10.1,2.2-7.7,6.1-14.6,11.4-20.8,2.6-3,4.4-6.6,7-10.7.4-.2,2-.5,3.2-1.4,4.4-3.2,5.7-2.9,8.6,2.2-11.7,7.9-12.3,20.8-15.2,31.9,1.7,1.1,2.8,1.6,3.4,2.5.2.3-.7,1.6-1.2,2.3-1.1,1.4-2.7,2.6-3.3,4.2-4.3,10.9-8.7,21.7-12.5,32.7-3,8.6-5.2,17.4-7.7,26.1-.7,2.5-1.2,5.1-1.8,7.7.4.2.7.5,1.1.7,3.8-4.2,8.5-7.8,11.2-12.6,8.1-14.4,15.4-29.2,23.2-43.8,3.7-6.9,5.6-15.5,13.7-19.1,6.1-2.8,8.1-7.6,9.1-13.7,1.4-8.9,3.2-17.6,4.7-26.5.2-1.2-.1-2.5-.5-3.7-.4-1.6,3.1-7.5,4.6-7.7,12.6-1.8,16.4-4.7,17.8-15.8-2.4.7-4.6,1.2-6.6,2-9,3.8-17.9,7.9-27,11.5-6.9,2.8-14.4,4.4-21.1,7.7-12.3,6-24.2,12.8-36.4,19.1-17.9,9.2-35.9,18.2-53.9,27.3-15.5,7.8-30.9,15.7-47.4,24,.8-5.9-54.2,25.5-58.3,27.5-10.2,4.9-20.2,10-30.2,15.2-4,2.1-7.6,5-11.7,7-5.3,2.5-7.5,6.2-6.4,11.9.2,1.2,0,2.5,0,3.8-.5,0-.9,0-1.4-.1,0-2.1,0-4.3,0-6.4-.1-3.7-2.1-4.9-5.5-3.5-4.8,2-9.8,3.7-14.4,6-2.4,1.2-5.1,3-6.1,5.2-3.9,8.3-7.2,16.8-10.5,25.3-.6,1.7,0,3.8,0,7.1,9.9-3.2,19.3-5.7,28.3-9.2,6.5-2.5,13.2-5.6,18.6-9.9,14.2-11.3,27.4-23.9,43.2-33,2-1.2,4.4-1.6,6.6-2.4.3.5.6,1.1.9,1.6-16.8,11.2-30.9,25.1-43.5,42.2,10.3-5,19.5-9.4,30-14.4,1.4,30.8-14.3,56.3-19,84.8,1.2-1.8,2.3-3.4,3.3-4.9,5.5-8.4,10.9-16.9,16.6-25.2,1.3-1.8,3.8-2.7,5.7-4.1.5.4,1,.9,1.5,1.3-2.5,6.8-4.5,13.8-7.5,20.4-4.5,10-9.7,19.6-14.3,29.6-1.5,3.3-2.1,7.1-3.1,10.7.5.3,1,.5,1.5.8,1.8-1.4,3.6-2.7,5.6-4.2.2,2.1,0,3.9.6,5.3,1.8,4.1.4,7.1-2.9,9.5-4.3,3-8.4,6.3-13,8.7-12.4,6.5-40.6,32.8-47.2,30.7.3-1,.4-2.2,1-2.8,6.3-6.3,12.5-12.6,19.1-18.6,4.1-3.7,7.8-7.2,7.8-13.3,0-4.3.7-8.5.9-12.8.7-16.2,1.5-32.4,2-48.6.2-8.3,1.5-16.2,4.5-24,1.4-3.7,4-6.9,4-11.5,0-2.5,3.8-5.1,5.8-7.6-1.7-.3-2.9,0-3.6.7-8.3,8.7-16.5,17.6-24.9,26.3-7.6,7.8-15.5,15.4-23.3,23-4.2,4.1-8.4,7.9-9.9,14.3-2.3,10.3-2.1,27.7-1.7,27.8-3.5,13.4-7.8,64.7-7.8,66.5,0,0,0,0,.1,0-.4,3.2-1,6.4-1.2,9.7,0,1.1.8,2.4,1.5,3.3,1.8,2.1,3.8,3.9,5.7,5.9,0,.6.1,1.3.2,1.9,9.1-8,18-16.5,27.5-24,9.7-7.6,20.3-14.2,29.3-20.5,2.5,1.7,4,2.8,5.5,3.8,0,0,0,.1,0,.2,0,0,.2,0,.2,0h0s0,0,0,0h-.1c0-.1,0-.2,0-.2,4.4-3,8.6-6.2,13.2-8.8,3.8-2.1,6.5-3.9,4.7-8.9-.4-1.1.5-3.6,1.4-3.9,1.5-.6,3.5,0,5.3,0-.6,1.6-1.4,4.3-2.6,6.7-1.7,3.4-3.1,7.4-5.8,9.7-3.7,3-6.1,6.3-7.1,10.8-1,4.1-2.1,8.2-3.4,12.2-2.7,8.3-5.6,16.5-8.3,24.2,5-5,10.3-10.3,15.6-15.5,5.3-5.3,10.7-10.5,16.1-15.7.6.5,1.2.9,1.8,1.4-15.8,17.2-20.3,40.2-32.9,58.9,2,1.2,3.6,2.1,5.1,2.9,0,.6.1,1.2.2,1.8,1.1,0,2.1.3,3.2.2,1.3-.1,2.5-.5,3.8-.8.2,1.5.7,3.2.4,4.6-.8,3.5-.8,6.4,2.9,7.5,3.6-4.6,6.8-8.9,10.4-13,.5-.6,2.9-.4,3.6.2.7.7.4,2.4.5,3.7-4.2-.4-4.2,4-6.2,6-4,3.9-7.6,8.3-10.8,13-4.2,6.1-7.9,12.6-11.5,19.1-3.1,5.6-5.9,11.4-8.8,17.1,0,0,0,0,0,0-4.3,7.9-8.6,15.8-12.9,23.7l-18.5,29h0c-2.4,3.2-4.6,6.6-7.1,9.6-3,3.7,2.8-18.9,5.4-22.9,1.2-1.8,3.7-3.8,0-6.3-.9-.6.5-4.5.9-6.9,2.4-1.2,5.6-1.7,5.2-5.6,0-.8.4-1.9,1-2.5,6.5-6.3,8.1-14.3,7.6-22.9,0-.5,0-.9.2-1.4.7-2.9,1.5-5.7,2.2-8.5l-1.2-.3c-.3,1.2-.5,2.3-.8,3.5l-.7-.2c2.8-11.8,5.5-23.7,8-34.4-5.3,6-11,13.3-17.6,19.6-12.6,12.3-22.8,26.4-33.4,40.3-11.5,15-19.4,31.7-25.6,49.3-.7,2-.3,4.5-.4,6.8,3.1-2.1,6.1-4.2,10.3-7.1-2.5,7-4.4,12.8-6.6,18.5-2.7,6.9-5.9,13.7-8.4,20.7-2.1,6-3.6,12.2-9,15.1.9,1.9,2.3,3.6,2.4,5.3.1,2.9-.6,5.9-1,9.1-.9,1.1-2.9,2.6-3.7,4.6-2.3,5.8-3.8,12-6.1,17.8-3,7.7-6.6,15.2-9.6,22.9-6.5,16.2-12.7,32.4-19.1,48.6-6.2,15.4-12.6,30.8-19.1,46.4,1.4.7,2.6,1.3,4,2-2,.5-4.6.4-5.3,1.5-3.9,6.2-8.5,12.4-7.3,20.7,4.8.4,6.2-2.9,7.8-6,6-11.9,11.8-24,18-35.9,12.9-24.5,25.9-48.8,39-73.2,2.9-5.4,6.1-10.7,9.4-16.5-1.5.3-2.2.5-2.9.6,6.5-4.2,10.5-10.8,15.3-16.2,5.2-5.7,7.7-13.9,11.4-21,0,0,0,0,0,0,1.6-1.9,3.2-3.8,4.7-5.7-3.1-1.5-2-2.8.5-4.5.1,1.7.2,2.8.3,3.8,1.6-1.5,3.2-3.2,4.9-4.6,5.3-4.3,10.5-8.7,15.9-12.8,7.9-5.9,15.9-11.7,23.9-17.5.6.3,1.1.6,1.7.9-4.2,12.7-8.3,25.4-12.5,38.1.5.2.9.5,1.4.7,7.2-12.4,14.6-24.7,21.7-37.1,5.4-9.4,12.2-17.3,23.1-22.2-.7,11.6-9.7,20.8-6.7,32.3,1.5.1,3,.2,5.2.3-2.9,1.6-5.1,2.8-6.1,3.3.2,1.8.3,2.8.5,3.8-1.6-.7-2-.8-1.7,1.4.3,2.4-.9,5-.9,7.5,0,1,1.5,2,2.1,2.8-.6.9-1.3,2.1-2,3.2,1.4.5,2.3.4,2.5,0,12.1-21.5,24.2-43,36.3-64.6,0,0,0,0,0,0,3.8-5.6,7-11.8,11.6-16.7,4.4-4.6,10.2-7.8,16.2-12.1,0,2.1.7,4.4-.1,5.8-4.1,7.4-8.4,14.7-13.1,21.7-2.1,3.1-4.1,5.4-1.2,9.1,1.1,1.4,1.3,3.7,1.3,5.6-.2,10.9-.8,21.9-.9,32.8,0,9.8.8,19.6.7,29.3,0,13.9-.6,27.9-.8,41.8,0,6.6.4,13.2.3,19.8-.3,12.8-.9,25.5-1.3,38.3-.2,5.8,2.1,8.8,6.2,8.9,4.9.2,8.6-3.3,8.7-8.7.2-10.3.2-20.6,0-31,0-2.5-1.3-4.9-2-7.2.6-1,2-2.4,2-3.8-.1-7.1-1.2-14.3-.8-21.3.5-8.7-1.2-17.4.5-26.2,1.4-7.3.3-15.1.4-22.7,0-14.8,0-29.6,0-44.4,0-1.4-1.4-2.7-2.1-4.1-.3-.8-.4-1.7-.5-2.5.8,0,1.5,0,2.7.2,0-4.5.2-9.1,0-13.8-.4-6.6,1.3-12.2,4.9-18,8.1-13,17.2-24.3,31.2-31.6,15.5-8.1,30-18,45.1-27,6.3-3.8,13-6.8,19-10.9ZM488.6,446.4c.3,0,.5,0,.8,0v2.5c-.3,0-.5,0-.8,0v-2.5ZM445.3,369.5c.1.3.3.8.3.8-.7.3-1.4.6-2.2.9-.1-.2-.2-.5-.3-.7.7-.3,1.4-.7,2.2-1ZM424.2,398.6c.7.1,1.4.3,2.2.4,0,.3-.1.6-.2.9-.7-.2-1.4-.3-2.2-.5,0-.3.1-.6.2-.8ZM419.3,396.6c.2.3.4.6.7,1-.8.6-1.7,1.3-2.5,1.9-.3-.4-.5-.9-.8-1.3.9-.5,1.8-1.1,2.6-1.6ZM412.6,401.6c.4.3.7.7,1.1,1-1.3,1.4-2.6,2.7-3.9,4.1-.4-.4-.8-.8-1.3-1.2,1.4-1.3,2.7-2.5,4.1-3.8ZM385.3,420.5c.1.7.2,1.4.3,2.1-.2,0-.4.1-.7.2-.3-.6-.6-1.3-.9-1.9.4-.1.8-.3,1.3-.4ZM381.4,375.2c0-1-.1-2-.1-3,.6.8,1.1,1.7,1.7,2.5-.5.2-1,.4-1.5.5ZM376.2,381.9c.2,0,.4,0,.7.1-.1,1-.3,2-.4,3-.3,0-.5,0-.8-.1.2-1,.4-2,.5-3ZM551.2,186.4c-1,.6-2,1.1-3,1.7-.1-.6-.3-1.2-.4-1.8,1.1-.2,2.1-.4,3.2-.6,0,.2.3.7.2.7ZM560.9,179.9c2.1-3.5,2.2-3.4,5.7,1.9-2.2-.8-4-1.3-5.7-1.9ZM561.7,142c.4.2.8.5,1.2.7.2,1.2.4,2.3.6,3.5.3,0,.7,0,1,0,.9-1.8,1.9-3.7,3-5.9.8.9,1.5,1.8,2.4,2.7,2.6-2.3,5.2-4.6,7.8-6.9.3.2.6.4.9.6-.9,5.4-1.9,10.8-2.8,16.4-2,.3-3.6.5-5.5.7,5.1,7.3,1,14.2-.5,21.4-5.8-7.5-6.2-16.7-7.5-25.8-1.4.3-2.7.7-4.1,1-.4-.3-.8-.6-1.2-.9,1.6-2.6,3.1-5.2,4.7-7.7ZM515.5,205.3c.8-1.6,1.4-2.7,1.7-3.3,1.3.8,2.2,1.4,3.2,1.9,0,0,0,0,0,0-1.4.4-2.7.8-4.9,1.4ZM523.3,196.1c1.8,3.7-.2,5.9-2.9,7.8-2.1-3.7.3-5.8,2.9-7.8ZM473.4,198c.4,1,.7,2.1,1.1,3.1-.4.2-.9.3-1.3.5-.2-1.1-.4-2.2-.7-3.3.3,0,.6-.2.9-.2ZM452.3,219.4c.3,1.2.7,2.3,1,3.5-.6.1-1.1.3-1.7.4-.3-1.2-.5-2.4-.8-3.6.5-.1,1-.3,1.5-.4ZM421.3,237.2c.7.5,1.3.7,1.3,1,0,.5-.3,1.1-.5,1.6-.4-.2-1-.4-1.1-.7-.1-.4.1-1,.2-1.8ZM406,238.1c.2-.4.8-.7,1.2-1,.1.4.4.9.4,1.3,0,.5-.3.9-.8,1.9-.5-1.4-.9-1.9-.8-2.2ZM394.2,225.6c.8.2,1.7.3,2.5.5-.2.4-.3.8-.5,1.2-.8-.4-1.5-.7-2.3-1.1,0-.2.1-.4.2-.7ZM358.4,252.3c-.3,0-.6,0-.9,0v-2.6c.3,0,.6,0,.9,0v2.6ZM286.9,379.5c-.5-.9-.9-1.8-1.4-2.7.3-.2.6-.4.8-.5l1.7,2.6c-.4.2-.8.5-1.2.7ZM286.7,359.5c.4.2.8.4,1.2.6-.4.7-.7,1.3-1.1,2-.3-.2-.5-.4-.8-.5l.7-2.1ZM286.1,371.5c.3,1.1.6,2.3,1,3.4-.5.1-1,.3-1.4.4-.2-1.2-.5-2.3-.7-3.5.4,0,.8-.2,1.2-.3ZM268.1,429.6c.3.3.6.7,1,1l-4.2,3.6c-.2-.2-.4-.5-.6-.7,1.3-1.3,2.6-2.6,3.9-3.9ZM268.5,453.1c-.3.8-.6,1.6-.9,2.3-.4-.2-.8-.4-1.2-.7.4-.7.8-1.4,1.2-2.1.3.1.7.3,1,.4ZM262.5,446.5l2.6,3c-.3.3-.6.6-.9.9l-2.8-2.8c.4-.4.8-.8,1.2-1.2ZM263.6,471.8s-.8.3-.8.3c-.3-.7-.6-1.5-.9-2.3.4-.1.7-.2,1.1-.3.2.8.4,1.5.6,2.3ZM261.3,470c-.9,1.1-1.7,2-2.7,3.2-.9-2.1-1.6-3.7-2.3-5.3,1.6.7,3.1,1.4,4.9,2.2ZM260,462.1c.4.4.8.8,1.2,1.1-.8.6-1.7,1.2-2.5,1.8l-.6-.6c.6-.8,1.3-1.6,1.9-2.4ZM253.6,475.4c-.4,0-.9,0-1.3,0,0-2.1,0-4.2,0-6.4.7,0,1.5-.2,2.4-.3-.4,2.2-.7,4.4-1.1,6.6ZM256.4,456.5c.5.2.9.5,1.4.7-.5,1-1,2.1-1.5,3.1-.4-.2-.8-.4-1.2-.5.4-1.1.9-2.2,1.3-3.3ZM255.8,478.2c-.2-.9-.5-1.7-.7-2.6.2,0,.5-.2.7-.2.3.8.7,1.6,1,2.5-.3.1-.7.2-1,.3ZM259.6,484.8c-.5-.3-1-.6-1.5-.9.8-1.3,1.7-2.6,2.5-3.9.4.2.7.4,1.1.7-.7,1.4-1.4,2.7-2.1,4.1ZM259.9,479.1c-.3-.7-.6-1.5-.9-2.2,2.5-.8,5.1-1.7,7.6-2.5.2.4.3.9.5,1.3-2.4,1.2-4.8,2.3-7.2,3.5ZM265.8,472.2c-.4-.4-.8-.8-1.1-1.2,1.1-1,2.2-2,3.4-3,.3.3.6.6.9.9-1,1.1-2.1,2.2-3.1,3.3ZM268.1,465.4c-.5-.4-1-.7-1.5-1.1.8-1.1,1.5-2.1,2.3-3.2.4.3.9.6,1.3,1-.7,1.1-1.4,2.2-2.1,3.3ZM269.9,441.2c-.3-.8-.6-1.5-1-2.3.2,0,.5-.2.7-.3.4.7.7,1.5,1.1,2.2-.3.1-.5.2-.8.4ZM275.2,424.4c-.4-1.2-.7-2.5-1.1-3.7.6,0,1.1-.2,1.7-.2,0,1.3.2,2.5.3,3.8-.3,0-.6.1-.8.2ZM276.7,460.1c.8-1.4,1.7-2.7,2.5-4.1-.4,1.6-.8,3.2-1.2,4.8-.5-.2-.9-.5-1.4-.7ZM279.7,455.3c.8-1,1.6-2.1,2.4-3.1.3.4.7.8,1,1.2-1.1.6-2.3,1.2-3.4,1.9ZM320.8,442.8c-.7-.1-1.5-.3-2.2-.4.5-2.1,1-4.1,1.5-6.2.4.1.7.3,1.1.4-.2,2.1-.3,4.2-.5,6.3ZM321.1,434.3c-.6-.6-1.1-1.2-1.7-1.9.3-.3.7-.6,1-.9.5.7,1.1,1.3,1.6,2-.3.3-.6.5-.9.8ZM326.8,436.1c-.6-1-1.2-2-1.8-3,.3-.2.6-.4.9-.6.7,1,1.4,1.9,2.1,2.9-.4.3-.8.5-1.2.8ZM324,523c0-.8.1-1.7.2-2.5.4.3.9.6,1.3.9-.5.5-1,1.1-1.5,1.6ZM336.5,522c-.8-.1-1.5-.3-2.3-.4,0-.3.1-.6.2-.9.7.2,1.5.4,2.2.5,0,.2,0,.5-.1.7ZM285.8,565.3c.7.9,1.4,1.8,2,2.8,0,.1-1,.9-1.6,1.3-.5-1.1-1-2.3-1.5-3.4.4-.2.7-.4,1.1-.7ZM272.5,618.3c-.5-.1-.9-.3-1.4-.4l1.3-4.1c.5.2,1.1.4,1.6.6-.5,1.3-1,2.6-1.5,4ZM271.2,601.3l.7-.2c.3.8.5,1.7.8,2.5-.4,0-.9.2-1.3.2,0-.9-.1-1.7-.2-2.6ZM281.6,587.9c.5,1.6.9,3.2,1.4,4.8-.4.2-.8.3-1.2.5-.6-1.5-1.2-3.1-1.8-4.6.5-.2,1.1-.4,1.6-.6ZM276.3,607.4c1,.5,1.9,1,2.9,1.4-.9.6-1.8,1.2-3.2,2.2.1-1.5.2-2.6.3-3.7ZM273.3,608.1c-.3-.2-.6-.4-.8-.6.5-.8,1-1.7,1.5-2.5.3.2.7.4,1,.7-.6.8-1.1,1.6-1.7,2.4ZM273.9,589.3c0,.4,0,.8.1,1.2-1.3.2-2.6.3-3.9.5l-.2-1.5c1.3,0,2.7-.1,4-.2ZM267.1,626.9c0,.3,0,.6,0,.9-.9,0-1.8.1-2.7.2,0-.3,0-.6,0-1,.9,0,1.8,0,2.7-.1ZM261.9,617c.6.8,1.2,1.6,1.7,2.4-.3.2-.7.5-1,.7-.6-.8-1.2-1.6-1.7-2.3.3-.3.7-.5,1-.8ZM205.8,738.6c-.5-.1-.9-.3-1.4-.4.3-1.1.6-2.2.9-3.3.4,0,.8.1,1.1.2-.2,1.2-.4,2.3-.6,3.5ZM232.6,660c.4.1.8.2,1.3.3-.3,1-.6,1.9-.9,2.9-.3,0-.5,0-.8-.1.2-1,.3-2,.5-3ZM225.6,695.4c.4.8.7,1.5,1.1,2.3-.2.1-.5.2-.7.4l-1.3-2.1c.3-.2.6-.4.9-.5ZM220.7,695.7c.9-.5,1.8-1,2.7-1.5,0,.1.2.3.3.4-.7.7-1.5,1.4-2.2,2.1-.3-.3-.5-.7-.8-1ZM224.2,735.1c-.8-1.1-1.6-2.2-2.4-3.3h6.2c-1.6,1.4-2.7,2.3-3.9,3.3ZM229.3,680.8c.4-.6,1.1-1,1.6-1.5.4.5,1.1,1,1,1.4-.1.6-.8,1-1.5,1.8-.5-.8-1.2-1.5-1.1-1.7ZM231.7,725.7c-.4,0-.8,0-1.1-.1.3-.9.5-1.9.8-2.8h.5c0,1-.1,2-.2,2.9ZM232.2,711.1c-.4-.3-.8-.6-1.3-.9.7-1,1.5-1.9,2.2-2.9.3.1.5.3.8.4-.6,1.1-1.1,2.2-1.7,3.3ZM250.9,613.4c.4.8.9,1.7,1.3,2.5-.3.2-.5.4-.8.6-.4-1-.8-1.9-1.2-2.9.2-.1.5-.2.7-.3ZM248.2,644.9c.7,1.5,1.3,2.7,2.1,4.2-1.9-.5-3.5-1-5.7-1.6,1.4-1,2.3-1.7,3.6-2.6ZM239.8,647.8c1,.3,2,.5,2.9.8,0,.3-.2.6-.2.9-.9-.3-1.9-.5-2.8-.8,0-.3,0-.6.1-.9ZM237.5,719.2c-1-.7-1.7-1.3-2.9-2.1,1.4-1,2.6-1.8,4.1-2.9-.5,1.9-.8,3.3-1.3,5ZM239.3,711.8c0-.6,0-1.1.1-1.7,1.2.2,2.4.4,3.6.6-1.2.4-2.5.7-3.7,1.1ZM244.4,662.7c0-.2.5-.5.7-.5.3,0,.6.4,1.1.9-.7.3-1.1.5-1.5.6-.1-.3-.4-.7-.4-1ZM246.9,692.7c-.4-.2-.7-.4-1.1-.6l2.1-3.8c.4.2.7.4,1.1.6-.7,1.3-1.4,2.5-2,3.8ZM247,651.8c.1-.5.2-.9.3-1.4.6.3,1.2.6,1.7.9,1.4-.8,2.8-1.6,4.2-2.4.2.3.4.7.5,1-1.3.7-2.6,1.4-3.9,2.1-1,0-2-.1-2.9-.2ZM259.6,656.6c-1.5,1-3.4,1.7-6.5,3.1,2-2.6,3.1-4.3,4.5-5.6.5-.5,1.8-.1,2.8-.2-.2.9-.2,2.3-.8,2.7ZM376.2,746.7c0-1.1-.1-2.2-.2-3.3.5,0,1,0,1,0,.3,1,.5,2,.7,3-.5,0-1,.1-1.6.2ZM381.2,766.5c-.3-.6-.6-1.1-.9-1.7.4-.2.8-.4,1.2-.6.1.7.2,1.4.3,2.1l-.6.2ZM371.6,523.3c.4,0,.9.5,1.7,1-1,.7-1.5,1.3-2.1,1.4-.3,0-.8-.9-1.2-1.3.5-.4,1-.9,1.6-1.1ZM366.1,409.9c-.3,0-.6-.6-.8-.9,0-.2.3-.7.4-.7.4.1.7.4,2,1.1-.9.3-1.3.6-1.6.5ZM373.8,250.9l.9,1.2-3.6,2.7c-.4-.5-.8-1-1.1-1.5,1.3-.8,2.6-1.7,3.9-2.5ZM369.5,356.3c.4,0,.8.2,1.2.3-.3,1-.6,2.1-.9,3.1-.3,0-.5-.1-.8-.2.2-1.1.4-2.1.5-3.2ZM367.8,326.3c.3,0,.6.2.8.3-.2.8-.4,1.7-.7,2.5-.4,0-.7-.2-1.1-.2.3-.8.6-1.7.9-2.5ZM365.8,361.9v2.8h-.6c-.2-.8-.5-1.7-.7-2.6.4,0,.9-.1,1.3-.2ZM364.4,313.5v3.6c-.4,0-.7,0-1.1,0,0-1.2-.1-2.4-.2-3.6.4,0,.8,0,1.3,0ZM363.4,404.8c.2,2.2.3,3.1.4,3.9-.4,0-.9,0-1.3,0,.2-.9.4-1.7.9-3.9ZM358.9,384.6c.2,0,.5.1.7.2,0,.8-.2,1.5-.3,2.3l-1.3-.4c.3-.7.6-1.4.9-2.1ZM353.3,405.6c.4.2.8.3,1.2.5-.3.6-.6,1.3-.9,1.9-.2,0-.4-.1-.6-.2.1-.7.2-1.5.3-2.2ZM329.3,552.8c.2.3.5.5.7.8l-2,1.4c-.1-.1-.2-.2-.3-.3.5-.6,1.1-1.2,1.6-1.8ZM313.1,585.5c-.5.1-1,.3-1.6.4,0-1.1,0-2.1,0-3.2.5.9,1,1.8,1.6,2.8ZM304.9,629.7c-.6,2-1.2,4-1.7,6-.4-.1-.8-.2-1.2-.3.6-2,1.1-4,1.7-6,.4.1.8.2,1.2.3ZM280.4,642.8c0-.3-.3-.8-.2-.8.7-.4,1.4-.6,2.2-1,.1.3.2.7.3,1-.8.3-1.5.5-2.3.8ZM287.6,659.4c-.6-.1-1.1-.2-1.7-.3.3-1.6.7-3.2,1-4.7.5,0,1.1.2,1.6.3-.3,1.6-.6,3.2-.9,4.8ZM305.2,661c-1.4-1.1-2.7-2.2-4.1-3.3.3-.3.5-.5.8-.8,1.5.9,2.9,1.7,4.4,2.6-.4.5-.7,1-1.1,1.4ZM317.7,643.7c-1.4-.1-2.9-.2-4.3-.3,0-.3,0-.6,0-.9h4.3c0,.4,0,.8,0,1.2ZM325.8,625.5c.3-.5.7-1,1-1.5,1,.8,2,1.6,3.1,2.3.6.2,1.3.3,1.9.5-.2.4-.5,1.1-.6,1.1-.7-.3-1.4-.6-2.1-1-1.1-.5-2.2-1-3.3-1.5ZM333.7,638.1c-.9-.4-1.7-.8-2.6-1.2.2-.3.4-.6.7-.9.8.5,1.5,1,2.3,1.5-.1.2-.2.4-.3.6ZM335.7,614.6c.3.5.7.9,1,1.4-.5-.3-1-.6-1.5-.8.2-.2.3-.4.5-.6ZM339.7,654.4h-3.6c0-.3,0-.5,0-.8h3.6c0,.3,0,.5,0,.8ZM340.4,616.8c-1.1,0-2.2-.4-3.3-.6,1.3-.6,2.7-1.2,4-1.8-.3.8-.5,2.4-.8,2.4ZM343.9,617.1c-.9-.9-1.8-1.8-2.7-2.7,1.1.4,2.2.9,3.3,1.3-.2.5-.4.9-.7,1.4ZM351.6,643.4c-.9-.8-1.9-1.6-2.8-2.3.4-.4.8-.8,1.2-1.2.8,1,1.5,2,2.3,3-.2.2-.4.3-.6.5ZM353.8,613.2c-.6-.7-1.1-1.3-1.7-2,.6-.3,1.3-.7,1.9-1,.3.8.6,1.6.9,2.4-.4.2-.7.4-1.1.6ZM355.7,638.5l.7-1.1c.5.7,1,1.4,1.5,2.1-.7-.4-1.5-.7-2.2-1.1ZM365.5,607.9c-.3,0-.7,0-1,0,0-.9-.2-1.8-.3-2.7h1.3v2.6ZM378.5,612.6c-.9-.5-1.7-1-2.6-1.5-1-.2-1.9-.4-2.9-.6,0-.4.1-.9.2-1.3,1.2.3,2.4.6,3.7.9.8.5,1.5,1,2.3,1.5-.2.3-.4.7-.7,1ZM387.2,601.9h-.7v-2.7c.2,0,.5,0,.7,0v2.7ZM413.4,542.5c.4.3.8.6,1.3.8-.8,1-1.5,2-2.3,3.1-.4-.2-.7-.5-1.1-.7l2.1-3.1ZM439.7,549.3c-1-1.5-2-3-3.1-4.4.6-.3,1.2-.6,1.9-.9.9,1.5,1.7,3,2.6,4.6-.5.3-.9.5-1.4.8ZM456.2,525.3c-.4,0-.8,0-1.2-.1.2-1.4.3-2.8.5-4.3.4,0,.8,0,1.2.1-.2,1.4-.4,2.8-.5,4.3Z"/>
        <path class="cls-1" d="M223.7,652.7s0,0,0,0v.5c0-.1,0-.2.1-.4,0,0,0,0,0,0,0,0,0-.1,0-.2,0,0,0,0-.1,0,0,0,0,0,0,0Z"/>
        <path class="cls-1" d="M521.6,441c-3,7.1-5.7,14.4-6.2,22.6-1,16.3-3,32.6-4.8,48.9-.9,8.9-2,17.8-3.2,26.6-1.5,11.4-3.2,22.7-4.8,34.1-1.4,10-2.6,20.1-8,29v5.9c-.3,0-.6,0-.8,0,0-1.6-.2-3.2-.3-4.8-.3.4-.7.7-.8,1.1-1.9,11.9-2.5,24-8,35-.7,1.5-.7,3.4-1.1,5.1.6.3,1.1.6,1.7.9,20-26.2,39.9-52.4,59.9-78.6.6.3,1.3.5,1.9.8-1,4.2-1.2,8.8-3.2,12.4-4.2,7.8-11.3,13.9-13.4,23-.1.5-1.1.9-1.8,1.3-1.4.6-3.3.8-4.1,1.8-4,5.2-8.1,10.5-11.5,16.1-7.5,12.5-15.2,25-21.5,38-4.4,9.1-6.7,19.3-10.1,29.7,4.8-3.6,8.4-6.4,12.1-9.1.4.4.9.8,1.3,1.2-2.7,2.2-5.1,4.4-1.7,7.6-1.9,1.5,1.5,5.8-3.2,5.8-.5,0-1.3,1.2-1.3,1.9,0,4.8,0,9.6.2,14.4,0,1.3.6,2.7.4,4-1.1,6.1-3,12.1-3.4,18.3-.7,9.5.3,19.2-3.5,28.1-1.9,4.4.9,8.5-.7,13.2-2.6,7.6-2.5,16.1-3.4,24.2-.2,1.9,0,3.8,0,5.8,0,0,.1,0,.2,0v11.3c-.6-2.2-.9-3.4-1.5-5.6-.4,7.3-.7,13.3-1,20.7,1.4-2.4,2.6-3.7,3-5.2,2.7-9.5,5.4-19,7.8-28.6,3.3-13.1,6.2-26.3,9.7-39.4,1.7-6.4,4.3-12.6,6.3-19,5.5-17.2,11-34.5,16.5-51.7,6.8-20.9,13.7-41.8,20.5-62.7,2.3-7.3,4.4-14.6,6.4-22,.7-2.5.5-5.2.7-7.8-.3,0-.6,0-1,.1-1.3,2.3-2.6,4.6-4.1,7.1-3.3-4.2-1.9-6.7,1.9-7.5,4.5-.9,5.8-4.1,7.1-7.6,3.1-8.4,5.9-16.9,9.5-25.1,3.6-8.2,8.2-16,11.9-24.1,2.7-6,4.7-12.3,7-18.4-.6-.3-1.1-.6-1.7-.9-9.5,4.1-11.7,14.5-17.4,21.8-5.8,7.3-9.9,16-15.3,25.1.2-2.1.2-3.1.4-4,.2-1.1.7-2.2.8-3.3,1.2-12.1,4.6-23.4,11-33.9,3.2-5.2,7.4-10.2,7.1-17.8-3.1,2.5-5.8,4.6-8.4,6.7-.4-.2-.7-.4-1.1-.6.8-2.7,1.1-5.6,2.4-8,3.5-6.8,5.8-14.1,6.8-21.6,1.2-9,1.5-18.1,2.3-27.1,1.2-13.6,2.7-27.2,3.7-40.8.5-5.9-.5-11.9.2-17.8,2-15.4,4.6-30.7,6.8-46,.4-2.4-.2-5.2.8-7.3,1.8-3.8,4.6-7.3,6.8-10.9,2-3.3,3.9-6.8,5.9-10.2-.6-.4-1.2-.9-1.8-1.3-11,15.5-24.4,28.7-38.4,41.5.2-3.3.7-6.5,2.4-8.9,7.1-10,14.6-19.7,22-29.6-.2-.4-.4-.7-.6-1.1-5.1,2.8-10.2,5.6-15.2,8.5-.5.3-.7,1.1-1.2,1.6-.6.6-1.3,1-2.3,1.9.3-2.2.4-3.6.7-5.9-5,2.5-9.3,4.6-13.5,6.8-3.5,1.8-6.7,4.2-10.4,5.6-8.5,3.3-13.7,9.7-13.3,17.2,4.7-4.2,9.4-8.3,14.1-12.4.5.3,1.1.7,1.6,1-1,2.6-1.3,5.8-3,7.7-8.7,9.6-10.1,21.3-10.5,33.4-.2,6.6-.4,13.2-1.2,19.8-.6,5-2.3,9.8-3.4,14.7-.7,3.1-1.3,6.2-1.7,8.6,4.7-3.6,9.8-7.5,15.8-12-.2,2.2.3,4.8-.6,5.5-5,4-5.6,10.2-7.8,15.4ZM515,529.4c.4,0,.9,0,1.3,0v2.6c-.3,0-.7,0-1,0-.1-.9-.2-1.8-.3-2.7ZM516.1,562.3c-.3-1.3-.5-2.6-.8-3.9.4,0,.8,0,1.1,0,0,1.3.1,2.6.2,3.9-.2,0-.4,0-.6,0ZM525,439.9c.6.9,1.2,1.8,1.8,2.7-.4.3-.8.5-1.1.8-.6-.9-1.3-1.7-1.9-2.6.4-.3.8-.6,1.2-.9ZM523.7,452.3c-.2-.4-.5-.8-.5-.8,1.1-.9,2.2-1.7,3.3-2.5l.4,1.3c-1.1.7-2.2,1.3-3.3,2ZM487.2,769.2c.2.7.5,1.4.6,2.1,0,.2-.7.4-1.1.6-.3-.2-.5-.4-.8-.5.4-.7.9-1.5,1.3-2.2ZM487.3,784.5c-.6-1.7-1.3-3.4-1.9-5.1.5-.2,1.1-.3,1.6-.5.3,1.8.6,3.6,1,5.4-.2,0-.5.2-.7.2ZM527.3,629.2c0,.9.1,1.8.2,2.6-.3,0-.7.1-1,.2-.2-.9-.4-1.8-.5-2.7.5,0,.9,0,1.4-.1ZM495.8,714.5c-.2-.1.2-.8.4-1.9.6,1.2,1,2,1.4,2.7-.6-.3-1.3-.5-1.8-.9ZM503.5,690.1c-.4-.7-.9-1.5-1.2-2.2,0,0,1-.7,1.1-.6.6.7,1,1.5,1.6,2.3-.5.2-.9.4-1.4.6ZM505.6,664.6c-.2-1.8-.4-3.5-.6-5.3.2,0,.5,0,.7,0,.2,1.8.4,3.5.5,5.3-.2,0-.4,0-.6,0ZM513,666.8c-.4-.2-.7-.4-1.1-.7.4-1.9.7-3.7,1.2-6.4,1.3.6,2.4,1.1,3.6,1.6-1.2,1.8-2.5,3.6-3.7,5.4ZM517.1,648.6c-.1,0-.1-.5-.2-.8.8,0,1.6-.1,2.5-.2,0,.4,0,.8,0,1.2-.8,0-1.6,0-2.3-.2ZM521.2,618.9c-.5,0-.9,0-1.4,0,0-1.2.1-2.4.2-3.6.5,0,.9,0,1.4.1,0,1.2-.2,2.4-.2,3.6ZM524.4,649.9c.7.3,1.4.6,2.1.9,0,0-.2.8-.2.8-.8-.2-1.5-.4-2.3-.6.1-.4.2-.7.4-1.1ZM526.2,658.1c-.3-.1-.6-.3-.9-.4.4-.9.8-1.8,1.1-2.8.4.2.8.5,1.3.7-.5.8-1,1.6-1.5,2.5ZM525.6,640.1c-.3-.4-.6-.7-.9-1.1l2.4-2c.3.3.6.7.9,1-.8.7-1.6,1.4-2.3,2.1ZM536.1,617.2c-.6-1.6-1.2-3.3-1.8-4.9.6-.2,1.3-.5,1.9-.7.6,1.6,1.2,3.3,1.7,4.9-.6.2-1.3.5-1.9.7ZM541.2,609.3c-2.2-.2-4.5-.3-7.3-.6.8-1.1,2.1-3.6,2.6-3.4,1.8.6,3.4,2,4.8,4ZM577,338.1c.1,0,.3,0,.4,0v3.5c-.3,0-.6-.1-1-.2.2-1.1.4-2.2.6-3.3ZM553,412.2c0-.5,0-.9,0-1.4,1.9-.2,3.7-.3,5.6-.5,0,.5,0,1,.1,1.6-1.9.1-3.8.2-5.7.3ZM562.8,482.5c-.8.4-1.5.8-2.3,1.2-.1-.1-.2-.2-.3-.4.6-.5,1.2-1.1,1.8-1.6.3.3.5.5.8.8ZM559.9,435.1c-.7-.4-1.3-.7-2-1.1.2-.3.4-.5.5-.8.7.2,1.4.5,2.1.7-.2.4-.4.8-.6,1.2ZM558.9,396.3c.4.7.7,1.5,1.1,2.2-.3.1-.6.3-.9.4-.4-.7-.7-1.5-1.1-2.2.3-.1.6-.3.8-.4ZM553.3,380.6c.9.2,1.7.6,2.6.8-.2.5-.4,1-.6,1.5-.9-.5-1.7-.9-2.6-1.4.3-.6.5-1,.6-1ZM522.4,421.4l-.6-1.1c1.1-.7,2.2-1.4,3.2-2,.3.4.6.9.9,1.3-1.2.6-2.3,1.2-3.5,1.8ZM546.5,534.4c-.9-.5-1.8-1-2.6-1.5.1-.2.2-.5.4-.7,1,.5,2,.9,3,1.4-.2.3-.5.6-.7.8ZM545.1,451.1c-.1-1-.3-2-.4-3,.3,0,.5-.1.8-.2.4,1,.8,2,1.1,3-.5,0-1,.2-1.5.3ZM545.3,390.5c-.9-1-1.9-2.1-2.8-3.1l1.1-1.1c.8,1.2,1.7,2.3,2.5,3.5-.3.2-.6.4-.8.7ZM542.8,371.7c.2,0,.5-.2.7-.2.3.8.7,1.6,1,2.5-.3.1-.7.2-1,.3-.2-.9-.5-1.7-.7-2.6ZM545.4,338.6c0,.5.2,1,.3,1.5l-3.5.6c0-.5-.2-1-.3-1.5,1.2-.2,2.3-.4,3.5-.6ZM536.3,534.9h-3.7c0-.2,0-.3,0-.5,1.3-.2,2.5-.3,3.8-.5,0,.3,0,.7,0,1ZM535.2,453.8c.2,1.1.3,2.1.5,3.2-.4,0-.8,0-1.3,0,0-1-.2-2-.3-3,.3,0,.7,0,1-.1ZM534.7,471.5c.4.1.6.6,1,1-.4.3-.8.6-1.1.9-.3-.4-.6-.8-.7-1.3,0-.1.6-.7.8-.6ZM533.5,494.4c0,.5,0,.9,0,1.4h-2.7c0-.3,0-.6-.1-.9.9-.1,1.8-.3,2.8-.4Z"/>
        <path class="cls-1" d="M281.9,478.7c-3.7,2.9-7.4,5.8-11.3,8.9.9,1.4,1.6,2.4,2.5,3.7-2.1.4-4.4,0-5.1,1-3.5,4.6-6.6,9.5-9.7,14.4-2.3,3.7-4.4,7.6-6.4,11.5-1.5,2.9-3.3,5.8-3.7,8.9-1.4,10.3-2.3,20.6-3.1,30.9-.8,10.3-1.5,20.5-4.5,30.5-.4,1.3-.4,2.7-.6,4,.5.2,1,.3,1.5.5,1.5-3.5,3-6.9,4.2-9.8,2.2-1.5,4.1-2.9,6-4.2,5.4-3.7,7.1-10.4,12.2-14.6,5.7-4.7,10-11.1,15-16.6,8.2-9.2,16.5-18.3,24.8-27.5-5-6.6-2.6-14.2-2.5-21.4.2-7.7,1.1-15.4,1.6-23.1,0-1.4-1.2-3.4-.6-4.2,2.1-2.7,4.5-5.2,7.2-7.3,5.2-3.9,8.7-9,11.3-14.8-.7.2-1.5.2-2,.6-12.3,9.6-24.6,19.2-36.8,28.8ZM246.8,576.6c-.3,0-.6,0-.9,0v-3.1c.4.1.8.3,1.2.4,0,.9-.2,1.8-.3,2.7ZM250,551s-.5-.2-.8-.3c.3-.7.6-1.4.9-2.1.3.1.5.2.8.4-.3.7-.6,1.4-.9,2ZM264.2,532.8c-.3-.3-.3-1.1-.3-1.6,0-.2.8-.5,1-.4.4.3.7.9,1.4,1.7-1.1.2-1.9.5-2.1.3ZM274.4,533.9c-.5-.2-.9-.7-1.5-1.3.7-.5,1.2-.8,1.7-1.1.3.5.7,1,.7,1.5,0,.3-.8,1-1,.9ZM287,528.1c-.3,0-.6-.2-.9-.3.2-.8.4-1.7.6-2.5.4,0,.7.2,1.1.3-.3.8-.5,1.7-.8,2.5ZM289.5,493.9l-2.6-1.7c.4-.4.8-.7,1.2-1.1.7.7,1.3,1.5,2,2.2-.2.2-.4.4-.6.6Z"/>
        <path class="cls-1" d="M583.7,196.7c.4-2.2,1.1-4.3,2-7.6-4.8,2.7-8.3,4.7-11.8,6.6-.1-.4-.4-1.2-.5-1.7-2,2.2-4.2,4-5.6,6.4-4.3,7.2-8.8,14.3-12.3,21.9-5.1,11.1-9.2,22.8-14.3,34-2.9,6.4-6.8,12.3-10.4,18.3-.4.7-2,.9-3.1,1.1-2.7.3-5.9-.6-7.9.7-7.1,4.3-13.8,9.3-21,14.3,1.3.8,2.2,1.4,3.1,2,0,.5-.1,1-.2,1.6-4,1.4-8.1,4.2-12,4-5-.3-7.8,1.7-10.7,5.8.8-4.5-1.2-4.1-3.3-2.9-2.8,1.6-5.5,3.5-8.4,5.1-2.1,1.2-4.4,2.2-6.3,3.6-.9.7-1.1,2.4-1.7,3.6,1.3,0,2.7.3,3.9-.2,13.9-5.5,27.5-11.6,40.8-18.7,19.3-10.3,40.6-16.7,59.1-28.8,6.3-4.1,13-7.7,12.4-16.5-.5-7.9.9-15.4,2.9-23.1,2.5-9.6,3.5-19.6,5.2-29.4ZM550.2,258.5l-3.3-1c.1-.4.2-.7.3-1.1,1.1.3,2.2.7,3.2,1-.1.3-.2.7-.3,1Z"/>
        <path class="cls-1" d="M852.5,543c-2.6,1.3-5.2,2.7-7.8,4,0-.9,0-1.9,0-3.9-9.6,5.3-19.1,9.5-27.4,15.4-3.9,2.8-9.9,4.5-10.4,11.7-.3,4.6-3.4,9-5.5,13.4-3.7,7.4-8,14.6-11.5,22.1-5,10.8-9.6,21.8-14.3,32.7-.5,1.1-.9,3.2-.4,3.5,4.4,2.7,2.2,6.4,1.8,9,2.2,1.7,4,3,5.9,4.5,6,0,11-3,14.4-9.1-.2,1.2-.3,2.4-.5,3.5.4.1.8.3,1.2.4,2.2-5.1,4.5-10.1,6.2-14.2-2.3-2.5-4-4.3-5.5-6.3-.1-.1,1.8-1.8,3-2.9-1.3-1.1-2.7-2.1-4.6-3.6,1.4-.5,2.4-.9,3.4-1.2v1.8c.4,0,.8,0,1.2,0-.1-.9-.2-1.8-.3-2.7,1.1-2.7,2.2-5.4,3.2-8.1.5,0,.9-.2,1.3-.2-.2,1.3-.4,2.6-.6,3.9.6.2,1.1.4,1.7.6.8-1.7,1.9-3.3,2.3-5,.6-2.6.7-5.4,1-8.1-1.2.7-2.5,1.4-3.8,2.1,0-5.6.8-6.2,4.9-4.2.9-2.3,1.7-4.7,2.8-7.5,3.4-.5,3.8-1.7,1.7-7.4,3-.6,6-1.3,9.1-1.9v3.5c-2.2,1.2-4.2,2.2-6.8,3.6,1.8.5,2.8.8,4,1.2-2.6,3-2.6,4.9,2.1,6.2-2-4.9-1.6-8,3.4-7.6,3.4-8,6.7-15.8,9.9-23.5-.3-.3-.7-.7-1-1-2.1,1-4.1,1.9-6.2,2.9-3.1-3.7,1.6-4.5,3.1-5.9,1.1-1.1,3.9-.4,6.4-.5,4-6.1,8.6-13.2,13.2-20.3-.2-.2-.4-.4-.7-.5ZM795.1,609.6c.4.1.7.3,1.1.4-.3.6-.5,1.3-.8,1.9-.3-.1-.6-.2-1-.3.2-.6.4-1.3.6-2ZM786.8,651.1c0-.4-.1-.9-.2-1.3.9,0,1.8-.2,2.7-.3,0,.3,0,.6.1,1-.9.2-1.7.4-2.6.6ZM781.8,635.1c3.2-2.7,6.1-1.1,9-.3-2.5,4.7-5.5,2.8-9,.3ZM791,634.3v-5.5c.4,0,.8.1,1.3.2-.4,1.8-.8,3.5-1.3,5.3ZM791.1,610.3c-.2-.4-.5-.8-.5-1.2,0-.3.7-.7.9-.7.4.2.6.6.9,1.1-.5.3-.9.5-1.3.7ZM795,641.9c-.6-1-1.1-2-1.7-3,.4-.4.9-.8,1.3-1.2.7.9,1.4,1.8,2.1,2.6-.6.5-1.1,1-1.7,1.5ZM796.2,619.6c-.2,0-.5-.1-.7-.2.3-1,.6-2,.8-3,.4.1.8.3,1.1.4-.4.9-.9,1.9-1.3,2.8ZM800.3,605.9c0-.8.1-1.6.2-2.5.3,0,.6,0,.9,0,0,.8-.2,1.6-.3,2.4-.3,0-.6,0-.8,0ZM806.8,575.3c.4.2.7.4,1.1.6-.5.9-1,1.8-1.5,2.7-.4-.2-.7-.5-1.1-.7.5-.9,1.1-1.8,1.6-2.6ZM804.7,612.6c-.2-1-.5-1.9-.7-2.9.5,0,1,0,1.5,0-.3,1-.5,1.9-.8,2.9ZM807.7,610.5c.3.3.6.7.9,1-.8.4-1.6.7-2.4,1.1.5-.7,1-1.4,1.5-2.1ZM807.2,594.2c-1.1-.1-2.2-.3-3.3-.4,0-.2,0-.4,0-.5,1.1,0,2.3-.1,3.4-.2,0,.4,0,.8-.1,1.1ZM807.1,587.5c.5-.2.9-.7,1.4-.7.3,0,.7.6,1,.9-.2.2-.3.3-.5.5-.6-.2-1.3-.5-1.9-.7ZM811,595.8c-.9-.5-1.7-1-2.6-1.5.2-.4.4-.8.6-1.2.9.5,1.8,1,2.7,1.5-.2.4-.5.8-.7,1.2ZM818.5,563.9c.2,0,.5,0,.7,0,0,.6-.1,1.3-.2,1.9-.3,0-.8-.1-.8-.2,0-.6.1-1.2.2-1.8ZM818,579.7c0-.5-.2-.9-.3-1.4.9,0,1.9,0,2.8-.1,0,.3.1.7.2,1-.9.2-1.8.3-2.7.5ZM824,574.1c-.5,0-.9-.2-1.4-.3.8-3.1,1.5-6.3,2.3-9.4.2,0,.4,0,.5,0-.5,3.2-1,6.4-1.5,9.6ZM831.4,563c-.4-.3-.9-.6-1.3-.9,1.4-2.1,2.7-4.1,4.1-6.2.5.3,1,.7,1.5,1-1.4,2-2.9,4-4.3,6ZM841.5,549.1c.9-.5,1.8-1.1,2.7-1.6-.6.9-1.1,1.8-1.7,2.7-.4-.4-.7-.7-1.1-1.1Z"/>
        <path class="cls-1" d="M860.6,746.6c3.8-9.8,1.4-19.9,1.5-29.9.2-9.7.2-19.5.2-29.2,0-9.6.1-19.3.1-28.9,0-10-.7-20,0-29.9.6-9.2-1.1-18.3-.2-27.6,1-9.8.2-19.8.2-29.7q-11.2,1.3-11,11.7c0,6.3,0,12.5,0,18.8,0,23.5,0,47,0,70.5,0,27.1,0,54.2,0,81.3,0,3.1,1.1,6.1,1.3,9.2.3,4.8.3,9.7.4,14.5,2.1-2.9,5-3.8,9.8-3.5-4.1-8.9,2.4-18.2-2.4-27.1ZM853.7,682.8c.3-.7.5-1.5.8-2.2.3.2.6.3,1,.5-.3.7-.7,1.4-1,2-.3-.1-.5-.2-.8-.3ZM855.4,763.8c-.1,0-.7-.5-.7-.8,0-.3.4-.6.7-1.1.5.4.8.7,1.1,1-.4.3-.7.7-1.1.9Z"/>
        <path class="cls-1" d="M275.7,713.4c.4-6.3.7-12.5,1.1-19.9-5,4.4-9.1,8-13.5,11.8.2,2.3.6,4.3.6,6.4-.3,15.5-.8,31.1-.9,46.6,0,8.1.6,16.2.5,24.3-.2,9.7-1.1,19.4-1.5,29.1-.2,6.1-.3,12.2.1,18.2.2,2.2,1.5,5.1,3.2,6.2,1.5,1,5.2,1,6.4-.1,2-1.9,3.1-5.1,3.9-7.9.5-1.7-.7-3.8-.7-5.7,0-34.3,0-68.5,0-102.8,0-2.1.6-4.2.7-6.4Z"/>
        <path class="cls-1" d="M419.6,634.3c.1-9.6,0-19.1,0-29.5-2.4,1.4-3.6,1.7-4.3,2.5-2.9,3.1-8,6.3-8.1,9.6-.9,35.9-1.1,71.7-1.2,107.6,0,1.8,1.6,4.3,3.2,5.3,5.2,3.2,10.7-.2,10.6-6.6-.1-10.8-.8-21.5-.9-32.3-.2-13.8,0-27.6,0-41.4,0-5.1.6-10.2.7-15.3Z"/>
        <path class="cls-1" d="M830.9,612c-3-1-5.1,0-6.2,2.6-1.3,3.1-2.4,6.4-3.2,9.7-1,4.2,1.9,8.7-.9,12.9-.4.5.6,1.9.9,2.9.2.6.4,1.3.2,1.8-2.5,5.4-1,9.3,5.3,10.6-2.4.4-3.7.6-5.4.9.3,6.6.9,12.7.8,18.9,0,9.1-.7,18.2-.9,27.3,0,1.2-1.2,3.4,2.1,3,1.2-.1,2.6,2.2,4.8,4.2-2.9-.1-4.5-.2-6.1-.3v22.9c.3,0,.7,0,1,0,.2-1.2.5-2.5.7-3.7.7-.3,1.4-.6,2.1-.8-4.6,6.9,2.6,6.8,4.4,10.4,1.1-3.3,1.9-6.5,1.9-9.8,0-4.7-.9-9.5-.9-14.2,0-6.7.8-13.4.9-20.1,0-5.9-.8-11.9-.5-17.8.7-18.6,1.7-37.2,2.7-55.9.1-2.8-.7-4.7-3.6-5.6ZM830.2,729.8c-.2,0-.5-.2-.7-.3.3-.9.5-1.7.8-2.6.3.1.7.2,1,.4-.4.8-.7,1.6-1.1,2.5ZM830.1,648.1c-.3-1.1-.5-2.1-.8-3.2.3,0,.6-.1,1-.2.3,1,.6,2,.9,3-.4.1-.8.2-1.1.3Z"/>
        <path class="cls-1" d="M937.1,503.1c-2.3,1.7-3,4.4-1.7,7.8,1.3,3.4,1.5,7.3,1.7,11,.2,2.9-.8,5.8-.7,8.7.1,5.4.8,10.8.9,16.3.1,8.4-.2,16.8,0,25.2.1,9.8.5,19.7.9,29.5,0,2,.9,4,.7,6-.3,2.8-1.2,5.6-2,8.7,3.7-.6,6.4-1.1,9.2-1.6-.5-1.4-1.6-2.8-1.3-4.1.3-1.4,1.7-2.6,2.7-3.9-1.1-.3-2-.5-2.9-.7,3.9-4.4,3.5-9.7-.2-11.5,1.2-1.9,3.5-3.8,3.6-5.8.2-4.9-1-9.9-1-14.8,0-6.2,1.2-12.5,1.3-18.7.2-13.1.2-26.3,0-39.4-.1-7.3-.1-14.3,6.7-19.3-7.2-.3-12.8,2.8-17.9,6.5ZM940.5,611.7c0-.2,0-.5-.1-.7.9-.1,1.7-.3,2.6-.4,0,.4,0,.8.1,1.1h-2.7Z"/>
        <path class="cls-1" d="M860.3,205c.2.2-.6,1.7-1,2.5-1.3,2.7-2.6,5.3-3.8,7.9-1.5,3.3,0,8.8-6.4,8.4-.4,0-1.4,1.4-1.3,1.9,1.2,4.1-2.5,5.9-3.9,8.8-4.6,9.7-9,19.5-13.2,29.4-1,2.3-.9,5.1-1.1,6.4-1,2.4-1.5,3.6-2.1,4.9.6-.1,1.2-.2,1.8-.3-.3,1.2-.5,2.3-.8,3.5-.3,1.6-.6,3.3-.9,4.8-1.8.2-3.4.4-5.7.6,1.5,2.9,2.7,5.1,4.6,8.6,2.9-5.8,5.4-10.5,7.6-15.3,3.2-7,6.1-14.2,9.3-21.2,8.7-19.7,17.6-39.4,26.1-59.2,6.4-15,12.3-30.2,18.5-45.3,3.5-8.5,7-17,10.5-25.6-.6-.3-1.1-.6-1.7-1-6.4,10.2-13.5,20.1-19,30.8-6.4,12.6-11.6,25.9-17,39-1.2,3-4.7,6.4-.5,10ZM835.7,264.4l-1.1-.4c.4-1,.8-2,1.1-3,.3.2.6.3.9.5-.3.9-.6,1.9-.9,2.8Z"/>
        <path class="cls-1" d="M432.3,597.1c.2,3.2.5,6.1.5,9,0,10.3,0,20.6.1,30.9,0,2.6,1.2,5.1,1.8,7.5-.1,0-1.2.1-1.2.2-.3,12-.7,24-.5,36,0,3.4,1.8,6.7,2.7,10.1.3,0,.5,0,.8,0,.2-1.2.4-2.3.7-3.7,1.4,1.2,2.5,2.1,3.9,3.3.7-1,1.8-1.7,1.8-2.5,1-33.2,1.9-66.3,2.8-100.5-5,3.7-9.3,6.8-13.4,9.7Z"/>
        <path class="cls-1" d="M826.9,198.5c6.7-12.8,13.2-25.6,19.7-38.5.5-.9.5-2.1.7-3.2-.5-.3-1.1-.7-1.6-1-1.2,1.5-2.5,3-3.6,4.6-5.8,8.7-11.6,17.3-17.2,26.2-10.1,16.2-20.2,32.5-29.9,49-4,6.9-7,14.4-10.4,21.7,1.4-.9,2.8-1.8,4.3-2.7.4,1.1.8,2,1.8,4.5,2.8-4.8,5-8.4,7.2-12,0,0,0,0,0,0,4.3-6.1,8.9-11.9,12.7-18.3,5.8-9.9,11-20,16.3-30.2ZM794.4,248.8c.4-1.3.5-2.3.6-2.3.9,0,1.8.3,2.7.5-.9.5-1.8,1-3.4,1.8Z"/>
        <path class="cls-1" d="M471.8,586.9c.2-4.8.8-9.7,1.1-14.5-.5-.3-.9-.6-1.4-1-4.5,3-9.1,6-13.3,8.8.2,2.7.5,4.6.5,6.5,0,14.6,0,29.2,0,43.9,0,3.7-2,8.5,4.4,9.5,1.5.2,3.5,1.9,4.3,1.4,1.5-1,2.9-3,3.1-4.7.4-3.2-.4-6.5-.3-9.7.4-13.4.9-26.8,1.4-40.1Z"/>
        <path class="cls-1" d="M554.9,126.8c-2.7-3.8.8-6.9.7-10.3-.4-12.5,2.2-24.5,4.8-36.5,1-4.5.9-9.1,1.2-13.7-.7-.1-1.4-.2-2.1-.4-9.4,22.6-14.1,46.7-22,71.4,5.7-2.7,10-4.5,14-6.7,1.4-.8,3.6-3.4,3.3-3.7Z"/>
        <path class="cls-1" d="M943.6,211.7c.4-7.6-.1-15.2-.2-22.8,0-4.7,0-9.4,0-14.2-.7-.1-1.3-.2-2-.3-3.1,10.5-7.2,20.9-8.9,31.7-1.8,10.7-1.2,21.8-1.6,32.8.5,0,.9.1,1.4.2,2.7-5.9,5.5-11.7,8-17.7,1.4-3.1,3.1-6.4,3.3-9.6Z"/>
        <path class="cls-1" d="M237,543c.1-.3-.2-.8-.7-2.8-10.2,19.2-19.8,37.1-29.2,55.2-2.6,5.1-7.3,10.2-3,16.6.7-.3,1.6-.4,1.9-1,4.9-8.3,9.4-16.9,14.6-24.9,8.6-13.2,11.8-28.4,16.3-43.2Z"/>
        <path class="cls-1" d="M761.9,670c-4.3,7.4-7.5,15.2-11.5,22.6-3.9,7.1-5.5,14.3-3.7,22.2.4,1.7.5,3.4.9,6.6,2.3-2.6,4-3.7,4.5-5.2,1.4-4,2-8.3,3.6-12.2,1.7-4.2,3.6-8.1,2.3-13-.8-3-.7-6.4,0-9.5.8-4,2.5-7.7,3.9-11.6Z"/>
        <path class="cls-1" d="M725.3,405.8c13.5-17.5,24.4-36,34.2-56.3-7.3,2.5-35.2,49.1-34.2,56.3Z"/>
        <path class="cls-1" d="M939.9,245c-.8,0-1.6-.2-2.4-.3-3.2,14.8-6.5,29.5-9.8,44.9h9.6c.9-15.2,1.8-29.9,2.6-44.6ZM934.5,264.4v-2.7c0,0,.3,0,.4,0,0,.9.2,1.8.3,2.6-.2,0-.5,0-.7,0ZM935.9,284.1c0,.1,0,.2,0,.3,0,0,0-.2,0-.3,0,.4,0,.9,0,0ZM935.8,284.5c0,.3,0,.2,0,0h0Z"/>
        <path class="cls-1" d="M599.5,443.3c-7.4,13-15.1,26.4-22.8,39.8.5.3,1,.6,1.4.9-.5.4-1,.8-1.5,1.3-3.8,4.3-5.4,9.4-5.5,15,3.1-4.3,5.9-8.8,8.6-13.3,7.6-12.8,15.2-25.5,22.8-38.3,1.3-2.1,2.2-4.3-3-5.4Z"/>
        <path class="cls-1" d="M449.9,416.5c.4.5.9,1,1.3,1.4,15.2-11.5,30.4-23,45.6-34.5-.3-.4-.5-.8-.8-1.1-9.7,2.1-17.2,8.3-24.7,14.1-7.7,6-14.3,13.4-21.4,20.2Z"/>
        <path class="cls-1" d="M577.3,120.2c0,0-.3-.6-.6-1.2-.8.5-1.7.9-3.5,2,1.4-3.5,2.5-6.1,3.5-8.6l3-.8c-.1-.4-.2-.7-.3-1.1-.7.4-1.5.8-2.2,1.3-1.4-4.7-2.8-9.3-4.4-14.5-3.7,10.2-7.4,20-11.2,30.6,6.8-.9,11.7-3.4,15.7-7.7Z"/>
        <path class="cls-1" d="M413.3,782.9c-4.1-.2-8.3,4.4-8.4,9.3-.1,4.1,4.4,8.8,8.4,8.7,3.5,0,7.6-4.5,7.6-8.4,0-4.5-3.8-9.4-7.6-9.6Z"/>
        <path class="cls-1" d="M790.1,725.9c-5,0-8.8,3.4-8.6,8,0,3.9,3.7,7.1,8,7,3.5,0,8-4.5,8-7.9,0-3.6-3.6-7-7.3-7.1Z"/>
        <path class="cls-1" d="M305.7,784.1c-3.4,0-6.7,3.4-6.8,7.1-.1,3.6,4.2,8.6,7.4,8.7,2.7,0,7.6-4.6,7.6-7.3,0-3.9-4.4-8.4-8.2-8.4Z"/>
        <path class="cls-1" d="M966.5,658c-4.9,0-7.1,2.3-7.2,7.8-.1,4.6,2.3,7.3,6.6,7.3,3.6,0,7.4-3.4,7.5-6.5,0-4.8-2.8-8.4-6.8-8.5Z"/>
        <path class="cls-1" d="M660.2,321.4c.3-1.5-.5-3.5-1.4-4.9-.5-.6-2.6-.5-3.8-.1-5.2,2-8.7,5.6-9.6,11.3-.3,3.6,1.7,5.3,4.9,4.2,5.2-1.7,8.7-5.2,10-10.5Z"/>
        <path class="cls-1" d="M599,401.2c-5,0-9.2,4.1-9.3,10.9,1,.9,2.6,3.5,4.6,3.8,4,.8,9.4-5.2,9.4-9.7,0-2.9-1.1-5.1-4.6-5.1Z"/>
        <path class="cls-1" d="M624.1,418.3c7.9-13.2,15.4-26.5,19.3-41.6-7.5,4.8-7.1,13.5-10.9,20.2-3.8,6.6-7,13.6-10.4,20.4.7.3,1.4.7,2.1,1Z"/>
        <path class="cls-1" d="M563.7,817.8c-4.7,0-6.1,1.8-6,7.9.6,2.6-.9,7.3,4.9,7.1,3.8-.1,6.2-3.4,6.1-8.3,0-3.4-.2-6.7-5-6.7Z"/>
        <path class="cls-1" d="M229.2,770.9c-4.1-.2-6.2,2.2-6.2,6.9,0,4.2,2.4,7.1,5.8,7,3-.1,6.3-4.1,6.3-7.6,0-4-1.8-6.2-5.8-6.4Z"/>
        <path class="cls-1" d="M219.3,110.3c-1.3,4.7-1.5,9.7-2.2,14.6.9.3,1.8.6,2.7.9,2.8-3.7,5.7-7.3,8.4-11.1,2.1-3,.3-4.9-2.3-6.4-2.9-1.7-5.8-.9-6.6,1.9Z"/>
        <path class="cls-1" d="M675.4,148.7c1.2-2.3-4.2-7.7-6.8-6.6-2.8,1.2-6,4.1-6.6,6.7-.4,2.1,3,4.9,5.6,8.9,3.4-3.8,6.2-6.1,7.7-9Z"/>
        <path class="cls-1" d="M137.2,778c-2.9,0-7.7,4.8-6.7,7.7.8,2.4,3.6,4.2,5.5,6.2,4.2-1,8-4.4,8.1-7.3.1-2.9-3.7-6.6-6.9-6.5Z"/>
        <path class="cls-1" d="M302.7,819.1c-3.8-.9-5.7,2.2-5.8,6.3,0,3.7,1.8,6.9,5.6,6.1,2.5-.5,5.9-3.9,6-6.2,0-2.1-3.4-5.6-5.8-6.2Z"/>
        <path class="cls-1" d="M610.4,747.9c-2.8-.2-4.8,1.3-4.7,5.2,0,2.8,4.6,8.3,6.9,7.7,3.5-.9,5.4-3.4,5.1-7.2-.3-4-2.7-5.7-7.3-5.7Z"/>
        <path class="cls-1" d="M700.8,787.9c-.7,2.4-1.5,4.7-2.2,7-1.3,4.4-1.9,9.1-4.1,12.9-1.7,2.9-2.2,4.8.6,8.1,2.7-2.6,5.3-5,8.2-7.8-4.4-1.9-4.8-5.4-1.8-8.2h0s0,0,0,0c-.3.5-.6,1-1.1,1.9,4.6-1.3,4.6-1.3,3.2-3.8-.6.6-1.3,1.2-1.9,1.8,0,0,0,0,0,0h0c0-1.1-.2-2.2-.2-3.3.7.4,1.5.8,2.2,1.2.6-.7,1.2-1.3,1.4-1.5-1.4-2.8-2.8-5.4-4.3-8.3Z"/>
        <path class="cls-1" d="M704.1,619.5c-8.8,4.2-11.7,12.1-6.9,19.7,8-4.9,5.6-12.9,6.9-19.7Z"/>
        <path class="cls-1" d="M965.4,638.8c2.6-1.2,6.1-3.7,6.4-6,.4-2.8-2.1-6.1-6.5-5.7-4-.7-5,2.3-5.6,5.2-.5,2.9,3.4,7.6,5.6,6.5Z"/>
        <path class="cls-1" d="M942.4,653.9h-.2c0,.1,0,.2,0,.2,0,0,0,0,.1,0,0,0,0-.1,0-.2Z"/>
        <path class="cls-1" d="M947,638.1c-.1-2.8-2.3-6.2-6.6-5.1h0s0,0,0,0c-.8-1.2-1.6-2.4-2.4-3.6-.3.3-.6.5-.9.8,1.1.9,2.1,1.9,3.2,2.8-4.1,1.6-2.7,5.2-2.6,8,0,.9,1.7,1.8,2.7,2.7.8-1.7,1.5-3.3,2.3-4.9.5.2.9.5,1.4.7-.9,1.5-1.7,2.9-2.6,4.4h0c0,0,0-.1,0-.1h0s0,0,0,0c0,0,0,0,0,.1,0,0,0,0,0,0,.6,1.6,1.6,3.2,1.7,4.8.2,1.6-.3,3.3-.6,5,.9-.3,1.9-.6,2.8-.9.7-5,2-10,1.8-14.9Z"/>
        <path class="cls-1" d="M260.4,155.6c3.9-.1,6.6-1.8,6.5-5.2-.1-3.5-2.4-5.9-6.4-6-3.4,0-5.4,1.1-5.4,4.8,0,4,2.1,5.9,5.4,6.4Z"/>
        <path class="cls-1" d="M77.8,385.4c-.8.6-1.6,2.5-1.2,3.2,1.4,2.9,3.1,5.8,5.1,8.3.6.8,2.8.5,4.2.3,1.4-.2,2.8-.9,4.5-1.5-3.9-5.1-6.1-8.3-8.7-11.1-.5-.5-2.9,0-3.9.8Z"/>
        <path class="cls-1" d="M66.8,685c2.1-2.1,5.4-4,6.1-6.5.6-2.5-1.5-5.6-5.6-5.5-4.2.3-4.8,4.1-4.8,7,0,1.7,2.8,3.3,4.3,5Z"/>
        <path class="cls-1" d="M21.5,353.1c-1.2,2.4,2.7,6,7,7.2,1.6-1.9,4.9-4.5,4.5-5.5-1-2.4-3.6-4.8-6-5.6-1.3-.4-4.5,2.1-5.4,4Z"/>
        <path class="cls-1" d="M309.6,549.3c3-2.8,4.9-6,6.7-9.2.6-1.1,1.6-2.6,1.2-3.5-2.2-5,2.1-6.1,4.6-8.4.8-.8,1.2-2,1.7-3.1-2.2-.3-4.3-.6-6.2-.9-2.6,8.3-5.3,16.7-8,25.1Z"/>
        <path class="cls-1" d="M324,525.2s-.1-.1-.1-.1c0,0,0,0,0,.1,0,0,.1,0,.2,0Z"/>
        <path class="cls-1" d="M50.5,193.9c1.4-.9,2.5-1.7,3.9-2.6-1-.3-1.6-.4-2.3-.6.3-1.5,1-3.6.7-3.8-2.4-1.4-6.3-2.1-1.2-5.2,0,0-.2-1.2-.5-1.3-1.9-.6-3.9-1.7-5.6-1.3-1,.2-1.9,2.9-1.9,4.5,0,1.5.9,3.1,1.4,4.4,5-.9,4,4,5.6,5.9Z"/>
        <path class="cls-1" d="M458.1,287.5c-.4-.8-2.3-1.1-3.4-1-4.5.4-6.8,3.7-6.7,9.3,4.6,1,7.9-.6,10.1-4.3.6-1.1.6-3,0-4Z"/>
        <path class="cls-1" d="M770.6,759.4c-1.7-.3-3.8,2.5-7.1,4.8,3.4,2.1,5.3,4.2,7.5,4.4,1.4.1,4.4-3.1,4.2-4-.7-2.1-2.7-5-4.6-5.3Z"/>
        <path class="cls-1" d="M71,250.9c-2.7-2-4.5-4.3-6-4.2-1.7.1-3.2,2.6-4.8,4.1,1.8,1.9,3.6,3.7,5.3,5.6,1.5-1.5,2.9-2.9,5.5-5.5Z"/>
        <path class="cls-1" d="M580.3,82.8c1.1-2.1,2.1-4.1,3.1-6.1.2,1.1.4,2.4.7,3.7.2,0,.3,0,.5,0,.1-1.7.2-3.4.4-6.6.7,2.2,1,3.1,1.3,3.9.4,0,.8,0,1.1,0v-13.1c-3.2,5.6-6.3,11.3-9.5,17,.8.4,1.6.8,2.4,1.2Z"/>
        <path class="cls-1" d="M587.5,64.4s-.1,0-.1-.1c.7-.5,2.2-1,2.1-1.4-.3-3-.9-6-1.5-8.9,0,0,0,0,0,0,0,0,0,0,0,0,0,0,0,0,0,0h0s0,0,0,0c0,0,0,0,0,0h0c-.3,1.3-1.1,2.8-.8,3.8.8,2.2-2.5,4.5.1,6.5v.4c0,0,0-.2.1-.2Z"/>
        <path class="cls-1" d="M609.8,476.7c-.5-.5-1-.9-1.6-1.4-1,.6-2.4.9-3,1.8-1.8,2.6-3.1,5.5-4.8,8.2-2.6,3.8-5.3,7.5-8,11.2.6.4,1.2.8,1.8,1.3,5.2-7,10.4-14,15.7-21.1Z"/>
        <path class="cls-1" d="M783.1,331.3c0-1.6-2.7-4.6-4.3-4.6-1.7,0-3.5,2.6-6.4,5.2,3,2.1,5.1,4.5,6.2,4.1,1.9-.6,4.4-3,4.5-4.7Z"/>
        <path class="cls-1" d="M591.5,369.8c-1.6.9-2.4,4-2.5,6.2,0,1,3,3.4,3.4,3.1,2.2-1.4,4-3.4,6-5.2l-.6-2.2c-2.1-.8-4.9-2.7-6.2-2Z"/>
        <path class="cls-1" d="M89.5,647c-1.6,2.1-2.9,3.8-3.9,5.1.2,1.6.3,3.1.5,4.9.7.2,1.8.6,3.1,1.1-.2,1.2-.5,2.4-.7,3.5.5.2,1,.3,1.6.5.8-2.5,2.4-5,2.2-7.4-.2-2.6,1.9-7-2.7-7.7Z"/>
        <path class="cls-1" d="M964.9,177c-1.9-.6-3.6-1.1-6-1.8-1.8,3.2-3.6,6.5-6,10.8,2.2-.8,3.2-1.2,4.1-1.6-.4,1.6-.7,3.1-1,4.6.6.1,1.2.2,1.9.4.4-2.3.8-4.6.9-5.7,4.2-.8,4.5-4.5,6.2-6.7Z"/>
        <path class="cls-1" d="M424.6,461.9c-2.1,2.1-2.9,4.5-.3,6.2,4.1,2.6,5.9-1.7,9.1-3.6-2.9-3.1-4.8-6.5-8.8-2.5Z"/>
        <path class="cls-1" d="M339.1,193.1c.3-1.1-2.1-2.9-4.1-5.6-2.3,2.5-5,4.6-4.7,5.3.9,1.9,2.8,4,4.7,4.4,1.2.2,3.7-2.4,4.2-4.1Z"/>
        <path class="cls-1" d="M126.8,748.1c-4-.2-5.9,3-5.3,8.7,4.4.1,8.8-2.8,8.3-5.8-.2-1.1-1.9-2.8-2.9-2.9Z"/>
        <path class="cls-1" d="M822.4,296.7c-.5-.2-1-.5-1.5-.7-3.9,7.5-7.8,15-11.7,22.5.8.4,1.5.8,2.3,1.2l11-23Z"/>
        <path class="cls-1" d="M159.3,300.5c1.7,1.6,3.7,3.1,5.9.4,2-2.6.9-5.6-3.6-8.5-2.1,2.6-6.2,4.3-2.2,8.1Z"/>
        <path class="cls-1" d="M637.9,340.2c.8-.7.8-4.2,0-4.7-1.8-1.2-4.3-1.4-6.5-1.9l-1.4,1.9c.8,1.9,1.2,4.5,2.6,5.6,1.1.8,4,.2,5.3-.9Z"/>
        <path class="cls-1" d="M257.1,358.4c0-.7-.1-1.4-.2-2,0,0,0,0,0,0,0,.7.1,1.4.2,2,3.1-2.9,3.3-3.9,1-6.2.9-1.1,1.8-2.2,2.8-3.3.3,0,.6.2.9.3-.4,3.5-.9,7.1-1.3,10.6,17.1-16,33.9-32.4,47.1-52-10.8,2.2-21.4,4-30.7,9.9-.8.5-2.1,0-3.2,0-5.5,1.4-10.6,4.2-13,10.5-1.7,4.6-3.9,9.1-6.6,13.1-2.9,4.2-2.2,8.3-1.6,14.2,1.5-3.6,2.5-5.9,3.5-8.3.3,0,.5.2.8.3v4.7c-.6,1-1.3,2-1.9,3-.7.7-1.3,1.4-2,2,0,0,0,0,0,0h-.2s0,0,0,0c-1,1-2.6,2-2.7,3.1-.6,4.6-.8,9.3-1.1,14,1.5-2.1,2.4-4.3,2.9-6.6.9-3.6,1.9-7,5-9.4ZM273.7,330c-.7.1-1.5.3-2.2.3-.2,0-.3-.8-1-2.8,1.9,1.4,2.5,1.9,3.2,2.5Z"/>
        <path class="cls-1" d="M415,306.7c-.2.6,1.7,1.7,2.6,2.6,1.7-2.1,3.7-4.2,5-6.5.3-.5-2-2.3-4.1-4.7-1.6,3.6-2.9,6-3.6,8.6Z"/>
        <path class="cls-1" d="M64.1,230.4c1.4-1.3,3.9-2.7,3.8-4,0-1.6-2.2-3.1-3.5-4.7-.7,0-1.4,0-2,.1-.7,1.4-2.3,3.2-2,4.3.5,1.7,2.4,2.9,3.7,4.3Z"/>
        <path class="cls-1" d="M719.7,126.3c1.9-.6,3.2-2.7,4.8-4.1-1.3-1.4-2.5-3.4-4.1-3.8-1.2-.3-3,1.5-5.7,3.1,2.4,2.4,4.2,5.1,5,4.9Z"/>
        <path class="cls-1" d="M144.5,509.1c.2,1.6,2.2,3,4.3,5.6,1.5-2.5,3.4-4.3,3.1-5.5-.4-1.6-2.5-2.7-3.9-4-1.2,1.3-3.6,2.8-3.5,3.9Z"/>
        <path class="cls-1" d="M331.8,230.6c1.1,0,2.2,0,3.3,0l1.3-8.1-5.5-.6c.3,2.8.6,5.7.9,8.5Z"/>
        <path class="cls-1" d="M67.8,580.9c-.8-7-1.5-13.2-2.2-19.5-2.5,6.7-3.5,13.2,2.2,19.5Z"/>
        <path class="cls-1" d="M357.3,664.3c-4.1.5-3.4,4-3.2,7.4,3.6.7,6.6.4,6.7-3.6,0-1.3-2.4-3.9-3.4-3.7Z"/>
        <path class="cls-1" d="M433.1,318.9c-.2.8,2.4,3.4,3.3,3.2,1.6-.4,3.3-2,4.2-3.6.3-.6-1.5-2.4-3.2-4.8-2.1,2.3-3.9,3.5-4.3,5.2Z"/>
        <path class="cls-1" d="M92.1,431.8c.9,2.4,1.4,4.5,2.6,6.3.7,1,2.3,1.7,3.6,1.9.5,0,1.7-1.5,1.8-2.3.2-2.9-4.3-6.3-7.9-5.9Z"/>
        <path class="cls-1" d="M33.9,874.4s0,0,0,0c0,0,0,0,0,0h0Z"/>
        <path class="cls-1" d="M330.2,164.3c1.5-.2,2.9-1.8,5.2-3.5-2.2-1.8-3.9-4-4.6-3.7-1.6.7-3.1,2.4-3.7,4.1-.2.6,2.1,3.2,3,3.1Z"/>
        <path class="cls-1" d="M167.8,321.4c-2.2,3.7.3,5.9,3.5,8.3,2.6-3,2.9-5.8.1-8.3-.7-.6-3.3-.6-3.6,0Z"/>
        <path class="cls-1" d="M90.2,411.2c1.3,1.3,2.5,3.1,4.1,3.8.7.3,2.3-1.6,5-3.5-2.9-1.7-4.3-3.2-5.6-3.1-1.2,0-2.3,1.8-3.5,2.8Z"/>
        <path class="cls-1" d="M982.7,268.9c-.2-.8-.4-1.6-.6-2.5h-6.9l1.1,5.3c2.1-.9,4.3-1.9,6.4-2.8Z"/>
        <path class="cls-1" d="M589.5,236.3c5-3.7,5.3-6.1.8-10-3.4,5.2-3.5,6.8-.8,10Z"/>
        <path class="cls-1" d="M193.2,350.5c-1.3,0-2.6,2.5-4,3.9,1.9,1.2,3.8,2.4,5.7,3.6l1-1.3c-.4-2.3,1.8-6-2.8-6.2Z"/>
        <path class="cls-1" d="M971.3,162.2c-2.2,2.7-4.1,5.2-6.4,8,5.1-.4,8.8-7.6,7.4-14.9-1.6,2.5-2.7,4.1-3.8,5.6,1.2.6,2.1,1,2.8,1.3Z"/>
        <path class="cls-1" d="M964.6,600.3c1.7-2.1,3.6-3.5,3.5-4.6-.1-1.3-2.2-2.3-3.4-3.5-1.1,1.2-2.9,2.3-3.2,3.6-.2,1.1,1.6,2.5,3,4.5Z"/>
        <path class="cls-1" d="M713.6,766c-.4,3.4,1.9,7.3-1.9,10,.5,1.3,1.1,2.5,1.9,4.3,3.9-5.2,1.5-10.2,1.5-15-.5.2-1,.5-1.5.7Z"/>
        <path class="cls-1" d="M713.5,766s0,0,.1,0c0,0,0,0,0,0h-.1Z"/>
        <path class="cls-1" d="M711.5,776.1c0,0,.1,0,.2-.1,0,0,0,0,0,0l-.2.2Z"/>
        <path class="cls-1" d="M730,421.5c-1.1-.2-2.6,1.4-5,2.9,2.5,1.7,3.8,3.3,5.4,3.6.9.1,3.1-2.2,2.9-3-.3-1.4-1.9-3.1-3.3-3.4Z"/>
        <path class="cls-1" d="M616.5,207.4c0-4-2.9-2.8-5.1-2.7-.5.5-1.1,1-1.6,1.5,1.3,1.7,2.6,3.5,3.8,5.2,1-1.3,2.8-2.6,2.9-3.9Z"/>
        <path class="cls-1" d="M234.3,209.4c1.2-1.2,3.1-2.2,3.5-3.7.3-.9-1.6-2.4-3.3-4.7-1.2,2.3-2.4,3.6-2.3,4.7,0,1.3,1.4,2.4,2.2,3.7Z"/>
        <path class="cls-1" d="M588.7,502.2c-2.6,3.2-5.2,6.5-7.7,9.7.7.6,1.5,1.1,2.2,1.7,3.8-2.4,4.4-7.1,5.5-11.4Z"/>
        <path class="cls-1" d="M537.7,805.5c1.1,1.1,2,2.9,3.3,3.2.9.2,2.3-1.5,4.2-2.9-1.7-1.3-2.8-2.8-3.6-2.7-1.4.3-2.6,1.6-3.9,2.4Z"/>
        <path class="cls-1" d="M774.8,382.5c-.6-.5-1.3-1-1.9-1.5l-6.5,9.8c.6.4,1.3.9,1.9,1.3,2.2-3.2,4.3-6.5,6.5-9.7Z"/>
        <path class="cls-1" d="M134.6,727.7c2.4-4.5,4.4-8.1,6.6-12-3.5-.5-6.4,5-6.6,12Z"/>
        <path class="cls-1" d="M318.6,704.7c-1.1,1.3-2.6,2.5-3.1,4-1.3,3.6.6,4.6,3.3,2.6,2.3-1.8,3.2-4.5-.2-6.5Z"/>
        <path class="cls-1" d="M621.7,359.6c.9.6,2,1.9,2.7,1.7,1.6-.4,3.1-1.5,5-2.6-1.7-1.5-2.7-2.3-4.5-3.8-1.3,1.8-2.3,3.3-3.3,4.8Z"/>
        <path class="cls-1" d="M598.8,430c-2.4-2.7-4.3-1.4-7.2,2.9,3.2.2,5.2.4,7.3.5,0-1.2.4-2.7-.1-3.4Z"/>
        <path class="cls-1" d="M428.2,774.1c1.2,1.6,2.4,3.1,3.6,4.7,1-.9,2-1.7,3-2.6-1.5-1.4-2.9-2.8-4.4-4.2-.7.7-1.5,1.4-2.2,2.1Z"/>
        <path class="cls-1" d="M457.9,312.5c-.4-.6-.7-1.2-1.1-1.7-2.4,1.4-4.9,2.8-7.3,4.2,4.2,1.6,7.4,1.5,8.4-2.5Z"/>
        <path class="cls-1" d="M864.4,125.2c.2.7.4,1.3.6,2,2.2-.9,4.5-1.9,7.3-3.1-5-5.1-6.3-1.5-7.9,1Z"/>
        <path class="cls-1" d="M942.2,654.1c-.6,0-1.2,0-1.8.1-.6,1.8-1.3,3.6-1.7,5.5,0,.3,1.9,1.4,2.3,1.2,1.6-.9,2.9-2.3,4.3-3.5.2-.2,0-.8,0-1.3-1.1.3-2.3.5-3.4.8.1-.9.3-1.8.4-2.8Z"/>
        <path class="cls-1" d="M959.9,242.8c-1.6-.8-3.3-1.2-5.4-1.9v6c2.1-.7,3.8-1.2,5.4-2,.3-.1.3-2,0-2.1Z"/>
        <path class="cls-1" d="M959.3,277c-1.5-1.1-3-2.3-4.6-3.4l-2,2.2c1.2,1.2,2.2,2.7,3.6,3.4.5.2,1.9-1.5,2.9-2.3Z"/>
        <path class="cls-1" d="M966.5,299.4c-.2-.9-.3-1.8-.5-2.6-1.9.3-3.8.6-5.6.9.3,1.1.8,3.2,1,3.1,1.7-.3,3.4-.9,5.1-1.4Z"/>
        <path class="cls-1" d="M775.7,665.3c5.3,0,6.7,4,7.9,9.1,1.9-7.8-.6-10.3-7.9-9.1Z"/>
        <path class="cls-1" d="M644.6,350.9c1,.8,2,2.2,3,2.3,1,.1,2.2-1.1,4.5-2.4-2.4-1.3-3.5-2.4-4.6-2.3-1.1.1-2,1.5-3,2.4Z"/>
        <path class="cls-1" d="M88,664.7c-.2,3.4-.3,6.8-.5,10.2,4.7-8,4.6-9,.5-10.2Z"/>
        <path class="cls-1" d="M797.4,704.3c.1,0,.3-2.2.5-3.3h-6c-.1.9-.3,1.8-.4,2.6,2,.3,3.9.6,5.9.7Z"/>
        <path class="cls-1" d="M944.9,424.8c-1.2-1.2-2.3-2.6-3.8-3.4-.4-.2-1.8,1.3-2.7,2,1.6,1.2,3.1,2.3,4.7,3.5.6-.7,1.2-1.4,1.8-2.1Z"/>
        <path class="cls-1" d="M364.2,191.1c.2,3.4.3,6.1.5,8.7,4-1.5,4.1-4.4-.5-8.7Z"/>
        <path class="cls-1" d="M70.6,369.4c-1.4-2-2.6-3.8-3.9-5.6-1.7,5.9-1,6.7,3.9,5.6Z"/>
        <path class="cls-1" d="M704.9,157.3c.9.1,1.9-1.1,3.8-2.2-1.7-1.2-2.7-2.5-3.5-2.4-.9,0-2.3,1.4-2.4,2.2,0,.8,1.3,2.3,2.2,2.4Z"/>
        <path class="cls-1" d="M652.9,187.6c-.2-.5-.5-.9-.7-1.4-1.7.5-3.5.7-5,1.6-.5.3,0,2.1,0,4.5,2.6-2.1,4.2-3.4,5.8-4.7Z"/>
        <path class="cls-1" d="M677.7,857c5.7-.9,3.2-4,1.8-6.7-.5,2-1.1,4.1-1.8,6.7Z"/>
        <path class="cls-1" d="M118.7,415.3c-.2-2.2-.4-4.5-.6-7.4-1.7,1.7-2.6,2.5-3.5,3.3,1.4,1.3.2,5.3,4.1,4.1Z"/>
        <path class="cls-1" d="M109.6,776.1c-.2,1.7-.3,3.1-.6,6,2.6-1.6,4.1-2.5,5.7-3.4-.2-.4-.4-.9-.6-1.3-1.3-.4-2.6-.7-4.4-1.2Z"/>
        <path class="cls-1" d="M826.6,734.9c-1.6-1-3.1-2-5.9-3.7,1.2,3.4,1.8,5.4,2.7,8,1.3-1.7,2.1-2.8,3.2-4.2Z"/>
        <path class="cls-1" d="M483.6,588.6c5-2.3,4.4-4.5,1.2-7.9-.4,2.9-.8,5-1.2,7.9Z"/>
        <path class="cls-1" d="M198.6,619.1c.5.3,1,.6,1.6,1,1.3-2.6,2.6-5.2,3.9-7.8-4.7.2-3.5,4.7-5.5,6.9Z"/>
        <path class="cls-1" d="M204,612.3c0,0,.2,0,.3,0,0,0,0,0-.1-.1h.1c0,0,0,0-.1,0,0,0,0,0,0,0,0,0,0,.1,0,.2Z"/>
        <path class="cls-1" d="M717.9,133.6h-5.6c2.1,2.1,3.1,3.1,5.3,5.3.2-2.6.3-4,.4-5.3Z"/>
        <path class="cls-1" d="M642.3,302.1c.3.5.7.9,1,1.4,2.3-1.8,4.7-3.7,7-5.5-.3-.4-.6-.8-.9-1.2l-7.1,5.4Z"/>
        <polygon class="cls-1" points="777.9 423.9 777.9 423.9 777.9 423.9 777.9 423.9"/>
        <path class="cls-1" d="M530.4,833.7c0,.2,0,.5,0,.7,1.1.6,2.1,1.1,3.4,1.8-1.1.5-1.7.7-3.2,1.4,2.2,0,3.5.2,4.7.2.4-.5.7-1,1.1-1.5-1-.9-2-1.9-3.1-2.5-.8-.4-1.9,0-2.8,0Z"/>
        <path class="cls-1" d="M815.1,175.4c-1.6,3.4-3.2,6.8-4.9,10.2,2.2-3.1,4.3-6.2,6.5-9.3-.5-.3-1.1-.6-1.6-.9Z"/>
        <path class="cls-1" d="M933.6,437.1c2.2-1.9,3.7-3.1,5.8-4.9-6.2-2.4-4.8,1.6-5.8,4.9Z"/>
        <path class="cls-1" d="M33.9,874.4s0,0,0,0c0,.1,0,.2,0,.4,0,0,0-.2,0-.3Z"/>
        <path class="cls-1" d="M33.4,882.7c.1-2.7.3-5.4.4-8.1-.9,2.6-1.8,5.1-2.8,7.7.8.1,1.6.3,2.4.4Z"/>
        <path class="cls-1" d="M678.3,297.5c-.3-.3-.5-.7-.8-1-1.1.6-2.6,1-3.3,1.9-.4.5.2,2,.4,3,.5,0,.9,0,1.4-.1.8-1.2,1.6-2.5,2.4-3.7Z"/>
        <path class="cls-1" d="M92.4,810.9c-.2.4-.4.8-.6,1.2,1,.9,2,2.1,3.1,2.4,1,.2,2.2-.7,3.3-1.1-.5-.7-1.1-1.5-1.6-2.2-1.4-.1-2.9-.2-4.3-.4Z"/>
        <path class="cls-1" d="M185.5,348.9c.7,0,1.5-.1,2.2-.2-.2-1.5-.2-3-.6-4.4,0-.2-1.3-.1-2-.2.1,1.6.3,3.2.4,4.8Z"/>
        <path class="cls-1" d="M854.7,785.7c.7-1.8,1.4-3.6,2.2-5.7-.8,0-1.7.1-2.6.2-.3,1.8-.5,3.6-.8,5.4.4,0,.8,0,1.2.1Z"/>
        <path class="cls-1" d="M854.2,780.2s0,0,.1,0c0,0,0,0,0-.1,0,0,0-.1,0-.2,0,.1,0,.2,0,.3,0,0,0,0,0,0Z"/>
        <path class="cls-1" d="M461.4,650.2c1.5-2.9,2.3-4.3,3.1-6-1.4-.3-2.3-.4-3.1-.6v6.6Z"/>
        <path class="cls-1" d="M487.5,564.8c-1.3,1.8-2.7,3.5-4,5.3.4.4.9.7,1.3,1.1,1.4-1.7,2.8-3.4,4.2-5.1-.5-.4-1.1-.8-1.6-1.2Z"/>
        <path class="cls-1" d="M648.7,795.2c-.4,0-.7,0-1.1-.1-.7,1.6-1.4,3.2-2.1,4.9h4.4c-.5-1.9-.9-3.3-1.2-4.7Z"/>
        <path class="cls-1" d="M480.8,572.1c.7,1.3,1.3,2.7,2.1,3.9,0,0,1.2-.6,1.9-.9-.8-1.3-1.7-2.6-2.5-3.9-.5.3-1,.6-1.4.9Z"/>
        <path class="cls-1" d="M694.5,156c-1-.6-2.1-1.2-3.1-1.8-.4.5-.9.9-1.3,1.4.8,1,1.6,1.9,2.4,2.9.6-.8,1.3-1.6,1.9-2.4Z"/>
        <path class="cls-1" d="M878.9,666.5s0,0,0,0h0s0,0,0,0Z"/>
        <path class="cls-1" d="M878.8,674.5v-8c-2.4,4.3-2.4,4.3,0,8Z"/>
        <path class="cls-1" d="M781.3,414.5c-.6,0-1.2,0-1.8-.1v4.8c-.5,1.5-1,3.1-1.5,4.6.5-1.3,1-2.6,1.5-3.9,3.7-1.1,1.1-3.7,1.8-5.5Z"/>
        <path class="cls-1" d="M784.3,264.5c-1.1,2-2.2,4-3.2,6,.5.2.9.5,1.4.7,1.1-2,2.1-4,3.2-6-.4-.2-.9-.5-1.3-.7Z"/>
        <path class="cls-1" d="M55.7,368.6c-.2-.3-.5-.5-.7-.8-1.5.4-2.9.9-5.2,1.6,1.1.9,2.2,2.2,2.6,2.1,1.3-.7,2.3-1.9,3.4-2.9Z"/>
        <path class="cls-1" d="M826,741.8c-.4,0-.8,0-1.1-.1-1,2.3-2,4.5-3,6.8.4.2.9.3,1.3.5.9-2.4,1.9-4.8,2.8-7.2Z"/>
        <path class="cls-1" d="M704,166.5c-.8-.9-1.6-1.9-2.4-2.8-.6.7-1.2,1.3-1.9,2,1,.8,1.9,1.5,2.9,2.3.5-.5.9-.9,1.4-1.4Z"/>
        <path class="cls-1" d="M80.5,228.5c-.8-1-1.5-1.9-2.3-2.9-.7.6-1.3,1.2-2,1.8.9.8,1.9,1.6,2.8,2.4.5-.4,1-.9,1.4-1.3Z"/>
        <path class="cls-1" d="M672.9,172.6c-.4.7-1.2,1.4-1.2,2.1,0,.7.8,1.3,1.7,2.7.6-1.6,1.1-2.4,1-3.1-.1-.7-1-1.1-1.6-1.7Z"/>
        <path class="cls-1" d="M583.4,774.5c.1-2.1.2-3.5.4-5.2-1.7.7-2.8,1.1-4.4,1.8,1.5,1.2,2.5,2.1,4,3.4Z"/>
        <path class="cls-1" d="M35.7,456.1c-.4-2-.7-4.1-1.1-6.1-.3,2-.7,4-1,6,.7,0,1.4,0,2,0Z"/>
        <path class="cls-1" d="M281,614.6c.5.2,1.1.4,1.6.5.6-2,1.1-4,1.7-6-.3,0-.6-.2-.9-.3-.8,1.9-1.6,3.8-2.4,5.7Z"/>
        <path class="cls-1" d="M605.3,791.7c.8-.5,1.7-1,3.2-1.9-1.9-.9-3.1-1.5-4.9-2.3.8,1.9,1.3,3.1,1.7,4.2Z"/>
        <path class="cls-1" d="M932.3,319.9v-5.2c-.6,0-1.1,0-1.7,0,.2,1.8.4,3.5.6,5.3.4,0,.7,0,1.1,0Z"/>
        <path class="cls-1" d="M667.4,314.4c-.3-.6-1.5-.7-3.2-1.3.9,2,1.4,3.1,1.9,4.2.5,0,1.1,0,1.6,0,0-1,.2-2.1-.3-2.9Z"/>
        <path class="cls-1" d="M532.2,695.8v8.8c.5-2.9,1.1-5.8,1.6-8.7-.5,0-1,0-1.6,0Z"/>
        <path class="cls-1" d="M172.4,689.3c.7-.9,1.5-1.7,1.9-2.7.2-.4-.6-1.1-1.3-2.2-.8,1.7-1.4,2.7-1.9,3.8.5.4.9.7,1.4,1.1Z"/>
        <path class="cls-1" d="M722.8,406.5c-.7,1.7-1.4,3.5-2.1,5.2,1.2-1.4,2.4-2.8,3.6-4.2-.5-.3-1-.7-1.5-1Z"/>
        <path class="cls-1" d="M720.8,411.7c-.1.1-.2.3-.3.4h.1c0,0,.1-.2.2-.4Z"/>
        <path class="cls-1" d="M652.4,534.1c-1,1.9-2.1,3.9-3.1,5.8,1.5-1.6,3.1-3.1,4.6-4.7-.5-.4-1-.7-1.5-1.1Z"/>
        <path class="cls-1" d="M649.3,539.9c-.2.2-.3.3-.5.5,0,0,0,0,0,0,0,0,0,.1-.1.2,0,0,.2,0,.3,0,.1-.2.2-.4.3-.6Z"/>
        <path class="cls-1" d="M860.7,536.3l-4.2,3.1c.3.4.6.8.9,1.2,1.3-1.1,2.7-2.2,4-3.3-.3-.3-.5-.6-.8-.9Z"/>
        <path class="cls-1" d="M589,206.6v5.2c.4,0,.7,0,1.1,0,0-1.7.1-3.3.2-5-.4,0-.9,0-1.3,0Z"/>
        <path class="cls-1" d="M835,211.7c.5-.3,1.1-.6,1.6-1-.7-1.1-1.4-2.2-2.1-3.3-.5.3-.9.5-1.4.8.6,1.2,1.2,2.3,1.8,3.5Z"/>
        <path class="cls-1" d="M983,420.9c.8-1.6,1.6-3.3,2.3-4.9-.4-.2-.7-.3-1.1-.5-.9,1.6-1.7,3.2-2.6,4.8.4.2.9.4,1.3.6Z"/>
        <path class="cls-1" d="M612.2,467.8c-1.1,1.3-2.3,2.5-4.2,4.7,4.5-.5,5.3-2,4.2-4.7Z"/>
        <path class="cls-1" d="M857.9,777.7c0,.6,0,1.2,0,1.8h4.2c0-.7,0-1.4,0-2.1-1.4.1-2.8.2-4.2.3Z"/>
        <path class="cls-1" d="M705.8,785.3c.1,1.2.3,2.3.4,3.5.3,0,.6,0,1-.1,0-1.2-.1-2.4-.2-3.6-.4,0-.8.2-1.2.2Z"/>
        <path class="cls-1" d="M943.8,626.3v5.5c.3,0,.6,0,.9,0v-5.4h-.9Z"/>
        <path class="cls-1" d="M149.4,486.9c-.8-1.3-1.5-2.6-2.3-3.9-.5.3-.9.5-1.4.8,1,1.2,1.9,2.5,2.9,3.7.3-.2.5-.4.8-.7Z"/>
        <path class="cls-1" d="M953.1,190.9c-.5.2-1,.4-1.5.6.4,1,.9,2,1.3,3,.5-.2,1-.4,1.5-.6l-1.3-3Z"/>
        <path class="cls-1" d="M797.9,725.6c0,0,.5.2,1,.3.3-1.1.7-2.3,1-3.4-.6-.2-1.1-.3-1.7-.5-.1,1.2-.3,2.4-.4,3.7Z"/>
        <path class="cls-1" d="M614.5,379c.6,1.2,1.2,2.3,1.8,3.5.5-.2.9-.5,1.4-.7-.6-1.2-1.2-2.3-1.7-3.5-.5.2-.9.5-1.4.7Z"/>
        <path class="cls-1" d="M800.2,727.5c.2.3.4.7.6,1,1.3-1.1,2.5-2.2,3.8-3.3-.3-.3-.5-.6-.8-.9-1.2,1.1-2.4,2.2-3.6,3.3Z"/>
        <path class="cls-1" d="M935.7,305.6c.2,0,.4,0,.7,0-.1-1.6-.3-3.2-.4-4.8-.5.1-1.1.2-1.6.3.5,1.5.9,3.1,1.4,4.6Z"/>
        <path class="cls-1" d="M709.1,773.4c.8.7,1.6,1.5,2.4,2.2-.3-1.1-.5-2.3-.8-3.4-.5.4-1,.8-1.6,1.1Z"/>
        <path class="cls-1" d="M711.5,776.1s.2-.2.2-.2c0,0-.2-.2-.3-.2,0,.1,0,.3,0,.4Z"/>
        <path class="cls-1" d="M824.6,756.2c-.6,1.1-1.2,2.2-1.8,3.3.4.2.9.4,1.3.7.5-1.1,1.1-2.3,1.6-3.4-.4-.2-.7-.4-1.1-.6Z"/>
        <path class="cls-1" d="M772.1,427c.8-.5,1.6-1.1,2.4-1.6,1.2-.5,2.3-1,3.5-1.5-.7-1.5-1.4-2.9-2.3-4.9-.4,1.3-.8,2.3-1.1,3.3h0c-1,1.4-2.1,2.8-3.1,4.1.2.2.4.3.7.5Z"/>
        <path class="cls-1" d="M859.6,792.3c.4,0,.8,0,1.1,0,0-1.3.1-2.6.2-3.9-.5,0-1,0-1.5,0,0,1.3.1,2.6.2,3.9Z"/>
        <path class="cls-1" d="M699.8,175.4c-.5-.3-.9-.7-1.4-1-.6.8-1.3,1.6-1.9,2.4l1.1.9c.7-.8,1.4-1.6,2.2-2.3Z"/>
        <path class="cls-1" d="M581.8,87.9c.2,2.1.3,3.2.4,4.2.6,0,1.2.2,2.2.3-.8-1.4-1.5-2.5-2.6-4.5Z"/>
        <path class="cls-1" d="M582.2,92.1s0,0,0,0c0,0,0,0,0,0h0Z"/>
        <path class="cls-1" d="M189.5,324.6l-1.1,1.2c1,.8,2.1,1.6,3.1,2.4.3-.3.6-.7.8-1-1-.9-1.9-1.7-2.9-2.6Z"/>
        <path class="cls-1" d="M88.5,681.6c.4-.2.9-.5,1.3-.7-.7-1.1-1.4-2.2-2.2-3.3-.4.3-.8.5-1.2.8.7,1.1,1.4,2.1,2,3.2Z"/>
        <path class="cls-1" d="M720.6,412.2s-.1-.1-.1-.1c0,.2-.2.3-.3.5.1-.1.3-.3.4-.4Z"/>
        <path class="cls-1" d="M717.6,417.2c.8-1.5,1.7-3,2.5-4.5-1.3,1.2-2.5,2.4-3.8,3.5.4.3.9.7,1.3,1Z"/>
        <path class="cls-1" d="M794.3,655.1l-1.1-.5c-.4.9-.9,1.9-1.3,2.8.4.2.8.4,1.2.5.4-.9.8-1.9,1.3-2.8Z"/>
        <path class="cls-1" d="M773.2,652.5c-.3,0-.7,0-1,0v3.1c.3,0,.7,0,1,0v-3.1Z"/>
        <path class="cls-1" d="M940.3,651.9c0-1.6,0-3.2.1-4.9-.5,0-.9,0-1.4,0,1.1,1.4-3.1,4.2,1.2,4.8Z"/>
        <path class="cls-1" d="M43.1,863.5c-.9.7-1.9,1.4-2.9,2.2.4.4.9.8,1.3,1.2.6-1,1.2-2,1.8-3,0,0-.2-.4-.2-.4Z"/>
        <path class="cls-1" d="M940.3,644.1h.1q0,0,0,0h0s0,0,0,0c0,0,0,0,0,0,0,0,0,.1,0,.2-.5.2-1.1.4-1.2.8-.2.7,0,1.5,0,2.3.5,0,.9,0,1.4,0,.3-1,.5-2,.8-3-.3,0-.6,0-1,0,0,0,0,0,0,0Z"/>
        <path class="cls-1" d="M465.8,649.9c.3-1,.6-2.1.9-3.1-.4-.1-.8-.2-1.2-.3-.2.9-.5,1.9-.7,2.8.4.2.7.4,1.1.6Z"/>
        <path class="cls-1" d="M789.4,661.3l1.1.4c.4-.9.7-1.7,1.1-2.6-.6-.2-1.2-.4-1.8-.6-.1.9-.2,1.8-.4,2.8Z"/>
        <path class="cls-1" d="M615.7,179.3c-1.1-.5-2.1-1-3.2-1.4-.2.4-.4.8-.5,1.3,1.1.4,2.2.9,3.3,1.3.2-.4.3-.8.5-1.2Z"/>
        <path class="cls-1" d="M715.5,726.6c.4.2.8.4,1.3.5.5-1.2,1.1-2.4,1.6-3.7-.4-.2-.8-.3-1.3-.5-.5,1.2-1.1,2.4-1.6,3.6Z"/>
        <path class="cls-1" d="M871,136.5c0-.4.1-.8.2-1.1-1.2-.2-2.3-.5-3.5-.7,0,.5-.2,1-.2,1.4,1.2.1,2.3.3,3.5.4Z"/>
        <path class="cls-1" d="M860.4,785.4c-.7-.2-1.5-.5-2.2-.5-.2,0-.4,1-.6,1.6.9,0,1.7.1,2.6.2,0-.4.2-.8.2-1.3Z"/>
        <path class="cls-1" d="M854.7,788.8c.8.5,1.7,1.1,2.5,1.6,0,0,.6-.7.9-1-.9-.6-1.8-1.2-2.7-1.8-.2.4-.4.8-.7,1.2Z"/>
        <path class="cls-1" d="M703.5,798s0,0,0,0c0,0,.1,0,.2-.1,0,0,0,0,0,0,0,0,0,0-.1.1h0Z"/>
        <path class="cls-1" d="M762.2,401.4c.8-.7,1.7-1.3,2.5-2-.2-.3-.4-.6-.7-.9-.8.5-1.7,1-2.5,1.4.2.5.5,1,.7,1.4Z"/>
        <path class="cls-1" d="M475.8,841.5c0-.4-.2-.8-.3-1.1-1.1.3-2.2.5-3.3.8.1.4.2.7.4,1.1l3.2-.8Z"/>
        <path class="cls-1" d="M765.4,398.1c.2,0,.5.2.7.3l1.3-2.7c-.4-.1-.7-.3-1.1-.4-.3.9-.6,1.9-1,2.8Z"/>
        <path class="cls-1" d="M590.4,50.7c-.8,1.1-1.6,2.2-2.4,3.3,4.7,1.3,1.9-2,2.4-3.3Z"/>
        <path class="cls-1" d="M936.1,294.3c-.2-.1-.4-.2-.7-.4v4.5c.2,0,.4,0,.7,0v-4.1Z"/>
        <path class="cls-1" d="M784.8,260.8c-.1-1-.2-2.1-.3-3.1-.4,1-.7,2-1.1,3,.5,0,.9,0,1.4,0Z"/>
        <path class="cls-1" d="M784.5,257.7c0,0,0-.2,0-.2,0,0,0-.2.1-.2,0,0-.1,0-.2.1,0,.1,0,.2,0,.3Z"/>
        <path class="cls-1" d="M583.9,95.2c-.5-1-1.1-2.1-1.6-3.1.2,1.1.3,2.2.5,3.4.4,0,.8-.2,1.2-.3Z"/>
        <path class="cls-1" d="M582.2,92.1s0,0,0,0c0,0,0,0,0,0,0,0,0,0,0,0Z"/>
        <path class="cls-1" d="M759.1,343.8c-.7.7-1.4,1.4-2.1,2.1.7.7,1.5,1.4,2.2,2.1.6-.8,1.2-1.6,1.9-2.3l-2-1.9Z"/>
        <path class="cls-1" d="M582.6,105c.4,0,.7,0,1.1-.1-.1-1.4-.2-2.8-.4-4.3-.4,0-.8,0-1.2.1.2,1.4.3,2.8.5,4.3Z"/>
        <path class="cls-1" d="M924.6,114.4c-.3-.1-.6-.2-.9-.4-.5,1.2-1,2.4-1.5,3.6.3.1.6.2.9.3.5-1.2,1-2.4,1.5-3.6Z"/>
        <path class="cls-1" d="M145.4,771.8l2.7-.6c0-.4-.1-.7-.2-1.1-.9,0-1.8.1-2.7.2,0,.5,0,.9.1,1.4Z"/>
        <path class="cls-1" d="M827.7,745.4c.8.9,1.6,1.8,2.3,2.7.2-.2.5-.4.7-.6-.7-.9-1.5-1.9-2.2-2.8-.3.2-.5.4-.8.7Z"/>
        <path class="cls-1" d="M140.1,703c.6.6,1.3,1.1,1.9,1.7-.2-.9-.4-1.8-.5-2.6-.5.3-.9.6-1.4.9Z"/>
        <path class="cls-1" d="M88.4,364.7c.6.9,1.1,1.7,1.7,2.6.3-.2.7-.4,1-.6-.5-.9-1-1.8-1.6-2.7-.4.3-.7.5-1.1.8Z"/>
        <path class="cls-1" d="M851.8,217c-.4,1-.9,2.1-1.3,3.1.5.1.9.3,1.4.4.2-1.1.4-2.2.6-3.3-.2,0-.4-.1-.7-.2Z"/>
        <path class="cls-1" d="M469.2,648.1c.1-.9.3-1.8.4-2.7-.3,0-.6-.1-.9-.2-.3.9-.6,1.7-.9,2.6.4.1.9.2,1.3.3Z"/>
        <path class="cls-1" d="M619.5,371.2c-.7-.3-1.5-.6-2.2-.9-.1.4-.2.7-.4,1.1.8.2,1.5.5,2.3.6,0,0,.3-.8.3-.8Z"/>
        <path class="cls-1" d="M212.3,646.7v-2.4c-.4,0-.7,0-1.1,0,.1.8.2,1.7.3,2.5.3,0,.5,0,.8,0Z"/>
        <path class="cls-1" d="M945.3,656s0,0,0,.1c0,0,0,0,.1,0,0,0,0,0,0,0,0,0,0,0,0,0,0,0,0-.2,0-.3,0,0,0,.1-.1.2h0Z"/>
        <path class="cls-1" d="M945.4,653c0,.9,0,1.9,0,2.8.7-1,1.5-2.1,2.9-4.1-1.7.8-2.3,1-2.8,1.3Z"/>
        <path class="cls-1" d="M945.4,653s0,0,0,0h0c0,0,0,0,0,0,0,0-.1,0-.2,0,0,0,0,0,0,.1,0,0,.1,0,.2,0Z"/>
        <path class="cls-1" d="M223,656.5c.2-1.1.4-2.2.6-3.4-.6.9-1.2,1.9-1.8,2.8.4.2.8.4,1.2.5Z"/>
        <path class="cls-1" d="M856.1,206.4c-.2.9-.4,1.8-.5,2.8.2,0,.5.2.7.2.4-.9.8-1.7,1.1-2.6-.4-.1-.9-.3-1.3-.4Z"/>
        <path class="cls-1" d="M72.2,375.6c-.2-.7-.4-1.4-.6-2.1-.4.1-.9.2-1.3.4.3.7.6,1.3.9,2,.3,0,.6-.2,1-.3Z"/>
        <path class="cls-1" d="M754.9,416.2c0-.3.2-.6.2-.9-.6-.3-1.3-.5-1.9-.8l-.4,1.2c.7.2,1.4.3,2,.5Z"/>
        <path class="cls-1" d="M67.5,634.1c.1-.3.2-.7.4-1-.8-.2-1.5-.5-2.3-.7,0,0-.3.8-.3.8.7.3,1.5.6,2.2.9Z"/>
        <path class="cls-1" d="M778.8,673c.1.6.3,1.2.4,1.7.2,0,.5-.2.7-.3-.2-.5-.5-1.1-.7-1.6-.2,0-.3,0-.5.1Z"/>
        <path class="cls-1" d="M196.6,625.9c0-.6-.4-1.1-.6-1.7-.3.8-.6,1.5-1.2,3,1.1-.7,1.8-1,1.8-1.2Z"/>
        <path class="cls-1" d="M331.3,321.4c-.4.5-.6,1.2-.8,1.8.8-.4,1.5-.8,2.7-1.4-1-.3-1.7-.6-1.8-.4Z"/>
        <path class="cls-1" d="M953.9,304.7c.6-.8,1.1-1.6,1.7-2.4-.2-.1-.4-.3-.6-.4-.7.7-1.4,1.4-2.1,2.1.3.2.7.5,1,.7Z"/>
        <path class="cls-1" d="M349,705.5c.6-.2,1.2-.6,1.8-.9-.8-.2-1.7-.3-2.9-.6.6.8,1,1.6,1.1,1.5Z"/>
        <path class="cls-1" d="M250.8,357.3h2c-.5-.5-1-1-1.5-1.5-.2.5-.4,1-.6,1.5Z"/>
        <path class="cls-1" d="M777.9,423.9s0,0,0,0c0,0,0,0,0,0,0,0,0,0,0,0Z"/>
        <path class="cls-1" d="M962.3,516.5c-.2.8-.5,1.5-.7,2.3,0,0,.8.3.8.3.3-.7.6-1.5.9-2.2-.4-.1-.7-.2-1.1-.4Z"/>
        <path class="cls-1" d="M813.4,609.7c.3.7.6,1.5.9,2.2.3-.2.7-.4,1-.7-.4-.6-.8-1.3-1.3-1.9-.2.1-.4.2-.6.3Z"/>
        <path class="cls-1" d="M830.5,743.5c.5.4,1.2.6,1.8.9-.4-.8-.8-1.5-1.4-2.7-.3,1-.6,1.8-.4,1.9Z"/>
        <path class="cls-1" d="M825.5,763.4c.2,0,.4.1.6.2.4-.7.9-1.4,1.3-2.2-.4-.2-.8-.4-1.2-.6-.2.8-.5,1.7-.7,2.5Z"/>
        <path class="cls-1" d="M713.5,766s.1-.1.1-.1c0,0-.1-.1-.2-.2,0,.1,0,.2,0,.3Z"/>
        <path class="cls-1" d="M711.9,764c.5.6,1,1.2,1.5,1.7-.1-.8-.2-1.6-.4-2.5-.4.2-.8.5-1.2.7Z"/>
        <path class="cls-1" d="M748,424.1l1.2-2.5c-.4-.1-.8-.2-1.2-.3-.2.9-.4,1.7-.7,2.6.2,0,.4.1.7.2Z"/>
        <path class="cls-1" d="M667.7,349.3c0,.5.1.9.2,1.4,1.1-.3,2.2-.7,3.3-1,0,0,0,0,0,0,0,0,0,0,0,0h0s0,0,0,0c0,0,0,0,0,0-1.2-.1-2.4-.3-3.5-.4Z"/>
        <path class="cls-1" d="M854.8,777c-.5.1-1,.2-1.5.3.3.8.7,1.7,1,2.5.2-.9.4-1.9.5-2.8Z"/>
        <path class="cls-1" d="M853.2,777.4s0,0,0-.1c0,0,0,0,0,0,0,0,0,0,0,0,0,0,0,0-.1.1,0,0,.1,0,.2,0Z"/>
        <path class="cls-1" d="M96.5,602.8c.3-.2.6-.4.9-.6-.5-.9-1-1.8-1.5-2.8-.3.2-.7.5-1,.7l1.6,2.6Z"/>
        <path class="cls-1" d="M622.2,390.2c.4-.5.6-1.2.9-1.8-.8.4-1.5.8-2.7,1.4,1,.2,1.7.6,1.9.4Z"/>
        <path class="cls-1" d="M69.6,583.8c-.5.9-.9,1.7-1.4,2.6.3.1.5.3.8.4l1.3-2.6c-.2-.1-.5-.2-.7-.3Z"/>
        <path class="cls-1" d="M251.8,313c.2-.8.3-1.6.5-2.3-.3,0-.6-.1-.9-.2-.2.8-.4,1.6-.6,2.3.3,0,.6.1,1,.2Z"/>
        <path class="cls-1" d="M784.3,311h-2.8c0,.5,0,.8,0,1.1.9,0,1.8-.1,2.8-.2,0-.3,0-.6,0-1Z"/>
        <path class="cls-1" d="M42.4,860.7c0,.1,0,.3,0,.4h2.5c0-.1,0-.3,0-.4h-2.4Z"/>
        <path class="cls-1" d="M39.4,870.6c.3-.4.7-.7,1-1.1-.8-.4-1.5-.8-2.3-1.2.4.8.9,1.5,1.3,2.3Z"/>
        <path class="cls-1" d="M37.8,868.1c1.7-4.4,3.3-8.9,5-13.3-.6-.2-1.2-.4-1.8-.6-2.4,6.7-4.7,13.4-7.1,20.1.8.4,1.6.8,1.6.8.8-2.4,1.6-4.7,2.4-7,0,0,.1,0,.2.1,0,0,0-.2-.2-.3,0,0-.2.1-.2.1ZM37.8,868.1h0s0,0,0,0h0Z"/>
        <path class="cls-1" d="M857.2,465.6c-1.2,1-2.3,2-3.6,2.8-2.3,1.4-4.6,2.7-6.9,4,.3.3.5.6.8.9.7-.3,1.5-.4,2.2-.8,2.6-1.3,5.2-3.8,7.8-3.7,4.2.2,1.7-3.2,3-4.3.1,0-.4-.9-.6-1.4-.9.8-1.7,1.7-2.7,2.5Z"/>
        <path class="cls-1" d="M833.3,472.6c.2.4.4.8.6,1.3,1.9-.7,3.8-1.4,5.6-2.1-.3-.6-.5-1.1-.8-1.7-1.8.8-3.6,1.7-5.5,2.5Z"/>
        <path class="cls-1" d="M840.8,463.8c1,.4,2,.7,3.1,1.1.2-.4.4-.8.5-1.2-1.1-.4-2.2-.7-3.3-1.1-.1.4-.2.8-.3,1.2Z"/>
      </g>
    </g>
  </g>
</svg>